<?xml version="1.0" encoding="UTF-8" standalone="no"?><svg width="547" height="447" viewBox="0 0 547 447" xmlns="http://www.w3.org/2000/svg" xmlns:xlink="http://www.w3.org/1999/xlink"><svg viewBox="-1 -1 65.64 97.46" width="65.64" height="97.46" id="baby-orange" x="200.33" y="147.19" xmlns="http://www.w3.org/2000/svg"><g transform="matrix(.18644 0 0 .18644 -15.91 0)"><path d="M417.351 227.979c-3.613-1.979-8.083-1.677-11.425.771-27.278 19.938-49.084 34.885-63.016 43.219-24.166 14.458-60.468 32.385-86.681 44.885-3.3 1.583-5.577 4.74-5.995 8.375a10.632 10.632 0 0 0 3.864 9.531c47.288 38.271 101.219 74.802 129.144 93.167a10.795 10.795 0 0 0 5.89 1.76c.919 0 1.859-.115 2.757-.365a10.663 10.663 0 0 0 6.809-5.521c7.645-15.198 12.783-31.135 15.268-47.354l1.984-13.188 6.976-125.313a10.653 10.653 0 0 0-5.575-9.967zM370.543 445.156c-30.056-19.74-105.835-70.896-160.057-119.385-44.489-39.771-81.188-81.479-104.143-109.469-2.924-3.583-7.874-4.854-12.135-3.198a10.675 10.675 0 0 0-6.809 10.542l7.874 140.646 1.88 12.156C109.247 454.99 175.876 512 255.56 512c44.051 0 86.66-18.458 116.905-50.646a10.621 10.621 0 0 0 2.799-8.542 10.6 10.6 0 0 0-4.721-7.656zM255.56 0C167.96 0 94.856 65.438 85.498 152.219c-.418 3.927-.251 6.406 3.029 8.625.752.823 2.569 3.146 5.368 6.677 15.999 20.25 64.708 81.875 124.257 136.344a10.656 10.656 0 0 0 7.227 2.802c1.546 0 3.091-.333 4.533-1 20.595-9.615 71.789-33.927 101.991-52 25.566-15.281 71.371-49.344 89.877-63.281a10.566 10.566 0 0 0 4.24-7.917l.648-11.802C426.667 76.563 349.907 0 255.56 0zm101.992 169.354C348.236 219.167 305.418 256 255.56 256c-49.858 0-92.676-36.833-101.991-86.646-9.587-5.406-15.644-15.5-15.644-26.875 0-12.958 8.146-24.323 19.822-28.833 11.783-33.77 39.572-58.753 72.653-67.422a83.1 83.1 0 0 0-4.77 10.557c-3.425 9.219-2.757 19.281 1.838 28.344 4.992 9.792 13.932 17.135 24.563 20.146a33.38 33.38 0 0 0 9.107 1.281c5.556 0 11.07-1.417 16.041-4.188 7.728-4.292 13.326-11.333 15.749-19.833 4.282-15.146-4.553-30.969-19.717-35.26-5.786-1.656-11.613 1.677-13.221 7.344-1.608 5.667 1.692 11.573 7.373 13.177 3.843 1.083 6.057 5.094 4.971 8.917-.856 3.01-2.82 5.5-5.556 7.021a11.508 11.508 0 0 1-8.898 1.021c-4.825-1.375-9.065-4.844-11.321-9.281-1.337-2.615-2.569-6.698-.877-11.281 2.841-7.641 6.235-14.176 15.933-21.025 41.258 2.546 77.765 30.37 91.761 70.483 11.676 4.51 19.822 15.875 19.822 28.833-.002 11.374-6.059 21.468-15.646 26.874z"/><circle cx="212.779" cy="149.333" r="10.688"/><circle cx="298.347" cy="149.333" r="10.688"/><path d="M234.172 198.249c0 8.331 9.575 15.085 21.388 15.085 11.813 0 21.388-6.754 21.388-15.085.001-8.332-42.776-8.332-42.776 0z"/></g><path d="M28.6 94.978C14.93 93.732 3.794 82.595 2.185 68.56 1.871 65.835.756 45.694.756 42.761c0-2.05.11-2.381.91-2.691 1.226-.476 1.593-.172 5.914 4.884 10.3 12.052 22.21 22.364 39.49 34.188 6.848 4.687 7.485 5.44 5.998 7.097-1.425 1.587-5.323 4.354-8.076 5.733-5.17 2.588-10.416 3.55-16.391 3.006zM49.698 75.553c-3.225-2.24-8.686-6.194-12.134-8.785-8.469-6.366-8.503-5.875.739-10.589 8.488-4.33 10.531-5.539 17.123-10.136 2.816-1.964 5.388-3.572 5.714-3.572 1.55 0 1.64.844 1.132 10.63-.85 16.363-1.336 19.788-3.47 24.46-1.399 3.064-1.988 2.934-9.104-2.008zM20.028 51.674C10.568 42.25.35 30 .35 28.082c0-3.918 3.429-12.04 6.85-16.227C16.329.685 32.38-2.865 45.402 3.403c3.914 1.884 7.9 4.985 10.599 8.244 2.535 3.063 5.516 8.795 6.458 12.42.768 2.953 1.239 9.544.744 10.417-.451.797-7.326 5.91-13.789 10.257-4.59 3.087-22.145 12.292-23.443 12.292-.31 0-2.984-2.412-5.943-5.36zm17.499-4.71c5.932-1.847 10.834-6.811 12.824-12.987.394-1.223 1.112-2.537 1.595-2.919 1.335-1.054 1.925-2.887 1.697-5.266-.176-1.827-.417-2.3-1.8-3.535-.878-.784-2.206-2.575-2.952-3.98-2.658-5.009-7.715-8.834-13.191-9.98-2.318-.485-2.811-.482-3.572.016-1.096.718-2.654 3.428-2.654 4.616 0 1.08 2.08 3.25 3.115 3.25 2.28 0 3.46-2.837 1.544-3.71-1.69-.77-1.79-2.866-.161-3.383 2.137-.679 5.132 2.999 4.629 5.684-.587 3.125-4.151 5.44-7.138 4.636-2.177-.586-4.221-2.486-5.072-4.715-.669-1.75-.67-1.965-.027-3.777.376-1.057.683-2.034.683-2.17 0-.55-1.243-.18-3.953 1.175-3.391 1.697-7.125 5.453-8.778 8.831-.602 1.231-1.542 2.531-2.089 2.89-1.463.958-2.57 3.022-2.572 4.793-.002 1.839 1.015 4.174 2.06 4.734.409.218.949 1.163 1.201 2.099 1.682 6.248 6.604 11.5 12.76 13.617 3.187 1.097 8.47 1.133 11.85.08z" fill="#d4953f"/><path d="M30.08 39.258c-.444-.182-1.159-.721-1.588-1.198-1.206-1.341-.315-1.858 3.207-1.858 3.314 0 4.18.432 3.484 1.734-.718 1.34-3.375 2.029-5.102 1.322zM22.449 28.672c-.687-.98-.485-1.825.571-2.39 1.01-.54 1.965-.088 2.255 1.07.489 1.947-1.679 2.958-2.826 1.32zM38.454 29.042c-.746-.745-.579-1.83.386-2.506 1.513-1.06 3.233.56 2.348 2.212-.466.872-1.992 1.037-2.734.294z" fill="#d4953f"/></svg><svg width="65.74" height="24.68" viewBox="-1 -1 65.74 24.68" id="car-orange" x="413.17" y="206.67000000000002" xmlns="http://www.w3.org/2000/svg"><g transform="matrix(.64407 0 0 .64407 0 -20.53)"><path d="M17.275 52.156a7.468 7.468 0 0 0-7.468 7.468c0 .318.026.631.066.938.463 3.681 3.596 6.528 7.401 6.528a7.467 7.467 0 0 0 7.437-6.83c.017-.209.031-.422.031-.637a7.466 7.466 0 0 0-7.467-7.467zm-3.738 4.654l1.522 1.523a2.578 2.578 0 0 0-.271.656h-2.146c.11-.812.421-1.554.895-2.179zm-.905 3.472h2.163c.061.23.151.448.271.648l-1.526 1.525a4.672 4.672 0 0 1-.908-2.173zm3.997 3.981a4.652 4.652 0 0 1-2.166-.899l1.518-1.519c.2.117.419.203.648.263v2.155zm0-7.123a2.594 2.594 0 0 0-.66.275l-1.521-1.521a4.64 4.64 0 0 1 2.181-.902v2.148zm1.293-2.15a4.648 4.648 0 0 1 2.181.903l-1.52 1.521a2.594 2.594 0 0 0-.66-.275l-.001-2.149zm0 9.271v-2.152a2.55 2.55 0 0 0 .647-.264l1.519 1.519a4.654 4.654 0 0 1-2.166.897zm3.092-1.799l-1.531-1.533c.12-.201.217-.416.278-.646h2.146a4.659 4.659 0 0 1-.893 2.179zm-1.25-3.473a2.615 2.615 0 0 0-.271-.656l1.524-1.523c.471.625.782 1.367.894 2.18h-2.147zM79.284 52.156a7.468 7.468 0 0 0-7.468 7.468c0 .318.026.631.066.938.463 3.681 3.596 6.528 7.4 6.528 3.908 0 7.112-3.004 7.438-6.83.017-.209.031-.422.031-.637a7.465 7.465 0 0 0-7.467-7.467zm-3.738 4.654l1.521 1.523a2.578 2.578 0 0 0-.271.656H74.65a4.624 4.624 0 0 1 .896-2.179zm-.904 3.472h2.163c.061.23.151.448.271.648l-1.525 1.525a4.633 4.633 0 0 1-.909-2.173zm3.996 3.981a4.652 4.652 0 0 1-2.166-.899l1.518-1.519c.2.117.419.203.648.263v2.155zm0-7.123a2.594 2.594 0 0 0-.66.275l-1.521-1.521a4.636 4.636 0 0 1 2.181-.902v2.148zm1.294-2.15a4.648 4.648 0 0 1 2.181.903l-1.521 1.521a2.524 2.524 0 0 0-.66-.275V54.99zm0 9.271v-2.152a2.55 2.55 0 0 0 .647-.264l1.519 1.519a4.658 4.658 0 0 1-2.166.897zm3.091-1.799l-1.531-1.531c.12-.202.218-.416.278-.647h2.146a4.65 4.65 0 0 1-.893 2.178zm-1.25-3.473a2.578 2.578 0 0 0-.271-.656l1.523-1.523c.472.625.782 1.367.895 2.18h-2.147z"/><path d="M97.216 48.29v-5.526c0-.889-.646-1.642-1.524-1.779-2.107-.33-5.842-.953-7.52-1.47-2.406-.742-11.702-4.678-14.921-5.417-3.22-.739-17.738-4.685-31.643.135-2.353.815-12.938 5.875-19.162 8.506-1.833.04-19.976 3.822-20.942 6.414C.538 51.746.235 53.004.057 53.662c-.178.658 0 3.807 1.348 6 1.374.777 4.019 1.299 7.077 1.649-.035-.187-.073-.371-.097-.56a8.6 8.6 0 0 1-.078-1.125c0-4.945 4.022-8.969 8.968-8.969s8.968 4.023 8.968 8.969c0 .254-.017.506-.036.754a8.728 8.728 0 0 1-.292 1.613h.024l44.516-.896c-.02-.115-.046-.229-.061-.346a8.565 8.565 0 0 1-.078-1.125c0-4.945 4.022-8.968 8.968-8.968s8.969 4.022 8.969 8.968c0 .019-.002.035-.003.053l.19-.016 7.611-1.433s2.915-1.552 2.915-5.822c.001-2.848-1.75-4.118-1.75-4.118zm-44.159-5.239l-16.625.509c.306-2.491-1.169-3.05-1.169-3.05 6.609-5.999 19.929-6.202 19.929-6.202l-2.135 8.743zm18.658-.761l-15.15.509 1.373-8.49c7.83-.102 12.303 1.626 12.303 1.626l2.237 3.61-.763 2.745zm8.541-.052h-4.221l-4.22-5.795a79.895 79.895 0 0 1 7.209 3.287 2.354 2.354 0 0 1 1.232 2.508z"/></g><path d="M16.994 17.07c-1.009-6.728-10.516-6.749-11.763-.025-.317 1.71-.487 1.779-2.795 1.138-2.068-.575-2.76-3.065-1.652-5.939.667-1.725 2.04-2.38 7.889-3.76 2.957-.698 7.357-2.124 9.78-3.168C29.455.571 32.29-.129 38.688.319c4.729.332 8.81 1.27 13.52 3.11 2.077.81 5.19 1.776 6.92 2.148l3.145.675.13 2.291c.072 1.26.326 2.528.566 2.817.576.693.557 3.156-.032 4.257-.26.487-1.164 1.05-2.034 1.267-3.93.983-3.783.995-4.077-.344-.56-2.55-3.214-4.632-5.903-4.632-2.794 0-5.633 2.686-5.633 5.33v1.247l-7.616.276c-4.189.152-10.489.276-14 .276h-6.386l-.295-1.967zm14.563-9.629c3.128-.295 2.946-.077 3.878-4.654.266-1.307.223-1.363-1.036-1.363-3.253 0-10.704 2.416-11.52 3.735-.134.218-.023.882.248 1.476.45.988.707 1.08 3.046 1.076 1.404-.001 3.827-.123 5.384-.27zm14.957-.827c.096-.087.174-.724.174-1.416s.048-1.258.106-1.258c.058 0 .514.66 1.013 1.468.791 1.28 1.12 1.468 2.58 1.468 1.369 0 1.65-.134 1.535-.734-.138-.727-3.673-2.886-5.206-3.18-.438-.083-1.35-.378-2.027-.654-.677-.277-2.667-.613-4.423-.749l-3.192-.246-.418 3.023-.418 3.022 5.05-.293c2.778-.16 5.13-.364 5.226-.45z" fill="#d4953f"/><path d="M9.946 22.496a4.841 4.841 0 0 1-3.415-3.404c-.222-.812-.18-2.06.096-2.799.512-1.37 1.624-2.475 2.972-2.95.637-.225 1.896-.28 2.608-.112.905.212 1.552.582 2.263 1.296.98.984 1.404 1.995 1.404 3.341 0 1.272-.416 2.313-1.298 3.25-.96 1.022-2.076 1.499-3.48 1.49-.408-.003-.926-.053-1.15-.112zm.815-2.314v-.725l-.239-.09c-.236-.09-.245-.084-.738.404-.274.273-.48.523-.46.557.089.144 1.062.56 1.345.574.068.004.092-.186.092-.72zm1.594.466c.703-.32.7-.305.128-.873-.493-.49-.51-.5-.743-.419l-.237.083V20.904l.24-.044c.133-.024.408-.12.612-.212zm-2.722-2.17l-.09-.24H8.08l.05.242c.06.281.29.832.455 1.084l.116.177.51-.511c.507-.506.511-.513.421-.751zm4.072 1.044c.161-.246.47-1.144.42-1.225-.02-.032-.348-.058-.73-.058h-.692l-.082.234c-.09.26-.105.233.506.894.18.195.355.354.388.354.033 0 .119-.09.19-.199zM9.643 17.26c.081-.232.072-.25-.414-.739-.352-.354-.523-.48-.585-.428-.117.097-.449.863-.504 1.163l-.044.241H9.561l.082-.237zm4.482.034c-.088-.367-.323-.942-.456-1.113l-.13-.168-.51.514c-.504.508-.51.518-.417.743l.095.227h1.467l-.049-.203zm-3.597-.916l.233-.081v-.734c0-.404-.01-.734-.023-.734-.146 0-.902.277-1.153.422l-.323.187.507.51c.278.282.51.512.516.512.005 0 .114-.037.243-.082zm1.967-.43l.507-.51-.323-.187c-.252-.145-1.007-.422-1.153-.422-.013 0-.023.328-.023.73 0 .683.01.735.166.81a.953.953 0 0 0 .243.086c.042.002.305-.225.583-.506zM49.903 22.496c-1.66-.434-2.999-1.769-3.455-3.442-.208-.766-.176-1.887.077-2.632.548-1.617 1.775-2.762 3.412-3.184.551-.143 1.64-.146 2.227-.007 1.714.407 3.08 1.761 3.523 3.496.641 2.508-.978 5.178-3.5 5.773-.587.138-1.748.136-2.284-.004zm.8-2.314l.02-.676-.234-.122-.235-.121-.506.501c-.278.276-.488.53-.467.564.097.157 1.153.595 1.326.55.04-.01.084-.324.095-.696zm1.206.607c.479-.14.959-.395.959-.509 0-.045-.214-.294-.477-.553-.468-.465-.48-.471-.704-.379l-.227.095v.732c0 .403.01.732.023.732s.205-.053.426-.118zm-2.319-2.31l-.09-.24h-1.467l.051.278c.064.345.301.895.465 1.075.117.13.145.114.627-.369.5-.5.504-.507.414-.744zm4.177.79c.113-.223.229-.546.256-.718l.05-.312h-.702c-.68 0-.704.006-.788.189a.952.952 0 0 0-.086.276c0 .118.906 1.024.994.995.039-.013.163-.206.276-.43zm-4.177-2.01c.09-.237.084-.246-.41-.745l-.5-.505-.167.207c-.157.196-.464.978-.464 1.185 0 .073.178.096.726.096h.725l.09-.239zm4.433-.072c-.027-.17-.154-.506-.281-.746l-.232-.434-.506.502c-.279.276-.507.526-.507.555 0 .03.033.139.073.243.07.186.088.19.787.19h.716l-.05-.31zm-3.52-.842l.22-.114-.02-.683-.022-.682-.222.024c-.277.031-1.043.366-1.16.508-.072.086 0 .196.385.584.26.263.502.478.535.478.034 0 .161-.052.283-.115zm1.947-.394l.504-.508-.32-.186a3.38 3.38 0 0 0-1.008-.377c-.164-.037-.167-.026-.167.686 0 .676.011.728.167.803a.953.953 0 0 0 .243.086c.042.002.303-.224.58-.504z" fill="#d4953f"/></svg><svg id="comment" data-name="Layer 1" width="66" height="66" viewBox="-1 -1 66 66" x="214.25" y="266.64" xmlns="http://www.w3.org/2000/svg"><defs><style>.accls-1{fill:#2f5572}</style></defs><title>comment</title><path class="accls-1" d="M.72.08A.67.67 0 0 0 0 .8v46.48a.72.72 0 0 0 .72.72H48l16 16V.72a.67.67 0 0 0-.72-.72H.8z"/></svg><svg width="69.81" height="90.34" viewBox="-1 -1 65.57 84.82" id="dress" y="356.46999999999997" xmlns="http://www.w3.org/2000/svg"><g transform="translate(-276.331 -410.02)" fill="#14191e"><path d="M320.86 462.893c-1.23-1.6-5.661-15.879-5.661-15.879 1.967 4.68 8.123 16.987 8.123 16.987s-1.23.491-2.462-1.108zm-11.056-.145c-.423-2.14-.958-16.406-.958-16.406l2.98 19.932s-1.605-1.384-2.022-3.526zm-7.285 3.963s-1.355-2.71-1.23-3.941c.122-1.232.737-4.8.737-7.753v-8.864c1.232.861.493 20.558.493 20.558zm-6.4-9.356c-.422 1.099-2.585 4.806-3.9 7.02-.616 1.212-1.026 1.718-1.026 1.718s.425-.704 1.027-1.717c.467-.914 1.047-2.215 1.682-4.065.23-.664.515-1.483.844-2.394 1.787-4.997 4.694-12.748 4.694-12.748s-2.706 10.585-3.32 12.186zm41.66 23.49c-3.859-7.953-7.204-15.939-11.14-23.454-.809-1.544-1.697-2.895-2.58-4.337-.953-1.562-1.247-3.232-1.996-4.927-.297-.676-.829-1.34-1.054-1.876-.279-.665-.345-1.518-.585-2.111-.385-.955-1.377-1.961-1.903-2.967l.124.3-21.327-.322.508-1.708.106-1.3c-.01.08-.017.178-.025.25-.224 2.187-1.205 4.438-2.226 6.334-1.02 1.888-2.09 3.745-3.05 5.51-2.157 3.99-3.896 8.029-5.63 11.61-3.93 8.121-7.995 15.456-10.67 23.805 2.546 1.647 5.764 1.338 8.442 2.582 1.474.683 2.497 1.548 3.752 1.877 1.379.357 2.312-.06 3.403-.119 1.67-.093 3.505.613 5.395.818 1.972.222 4.013-.106 6.095.238.176.488.168 1.16.47 1.526 1.321-.048 2.697.37 3.989.234.545-.06.977-.46 1.525-.588 1.649-.39 3.266-.187 5.158-.47.414-.06.797-.336 1.174-.35 1.647-.065 3.428.564 5.042.35 1.385-.182 2.991-1.208 4.104-1.41 1.989-.352 3.404-.415 5.16-.817 2.75-.633 3.895-1.13 6.684-2.23 1.173-.46 3.01-1.01 3.166-1.757.156-.767-1.474-3.373-2.11-4.691M306.706 411.776c3.143.059 6.661-.256 7.735 1.874-.898 4.144-3.268 6.813-5.154 9.967-1.053-.493-1.73-2.214-2.466-3.75-1.136-2.375-3.017-6.57-.115-8.091zm11.585 24.25l.023-.213c.223-1.734 1.413-3.177 1.875-4.805.108-.38.019-.868.115-1.29.434-1.821 1.329-3.156.705-5.397-1.756-.547-1.913-2.16-2.461-3.87-.632-1.98-1.846-3.923-2.345-5.745 1.686.885 2.775 2.73 4.22 4.105.787.749 2 1.805 3.051 2.11.934.273 2.764-.303 2.93 1.171-.688.684-1.537 1.2-2.344 1.76-.13 1.003-.972 2.624-.471 4.221.29-1.462.086-2.2.588-3.163.831-1.611 3.918-1.582 2.58-4.458-.791-.704-1.78-.03-2.816-.233-1.413-.283-2.505-2.581-3.637-3.753-.604-.63-1.26-1.28-1.874-1.877-2.542-2.46-6.01-5.157-11.257-4.456-1.568.209-2.468 1.268-3.284 2.23-.922 1.08-1.875 2.474-2.932 3.282-1.735 1.326-3.875.834-6.451 1.056-.485.862-1.009 1.414-.937 2.343.127 1.631 2.043 2.611 1.644 3.87-.221.683-.877 1.01-1.526.939-1.328-.145-1.336-2.42-2.7-2.463.038 1.072 1.23 2.677 2.114 3.05 2.332.983 3.417-2.066 2.346-4.105-.367-.696-1.23-1.014-1.175-1.759.135-1.834 3.246-.766 5.045-1.055.678-.11.798-.61 1.404-.354-.426 1.637-1.204 3.276-2.46 4.456-.687.646-2.092 1.111-2.349 1.994-.342 1.206-.085 3.08 0 4.106.104 1.168.492 2.262.823 3.285.342 1.044 1.12 1.988 1.292 2.93.158.874.086 2.218-.014 3.36l.135-1.225 20.143-.046"/></g></svg><svg width="69.81" height="90.34" viewBox="-1 -1 65.57 84.82" id="dress-orange" x="69.81" y="356.46999999999997" xmlns="http://www.w3.org/2000/svg"><g transform="translate(-276.331 -410.02)"><path d="M320.86 462.893c-1.23-1.6-5.661-15.879-5.661-15.879 1.967 4.68 8.123 16.987 8.123 16.987s-1.23.491-2.462-1.108zm-11.056-.145c-.423-2.14-.958-16.406-.958-16.406l2.98 19.932s-1.605-1.384-2.022-3.526zm-7.285 3.963s-1.355-2.71-1.23-3.941c.122-1.232.737-4.8.737-7.753v-8.864c1.232.861.493 20.558.493 20.558zm-6.4-9.356c-.422 1.099-2.585 4.806-3.9 7.02-.616 1.212-1.026 1.718-1.026 1.718s.425-.704 1.027-1.717c.467-.914 1.047-2.215 1.682-4.065.23-.664.515-1.483.844-2.394 1.787-4.997 4.694-12.748 4.694-12.748s-2.706 10.585-3.32 12.186zm41.66 23.49c-3.859-7.953-7.204-15.939-11.14-23.454-.809-1.544-1.697-2.895-2.58-4.337-.953-1.562-1.247-3.232-1.996-4.927-.297-.676-.829-1.34-1.054-1.876-.279-.665-.345-1.518-.585-2.111-.385-.955-1.377-1.961-1.903-2.967l.124.3-21.327-.322.508-1.708.106-1.3c-.01.08-.017.178-.025.25-.224 2.187-1.205 4.438-2.226 6.334-1.02 1.888-2.09 3.745-3.05 5.51-2.157 3.99-3.896 8.029-5.63 11.61-3.93 8.121-7.995 15.456-10.67 23.805 2.546 1.647 5.764 1.338 8.442 2.582 1.474.683 2.497 1.548 3.752 1.877 1.379.357 2.312-.06 3.403-.119 1.67-.093 3.505.613 5.395.818 1.972.222 4.013-.106 6.095.238.176.488.168 1.16.47 1.526 1.321-.048 2.697.37 3.989.234.545-.06.977-.46 1.525-.588 1.649-.39 3.266-.187 5.158-.47.414-.06.797-.336 1.174-.35 1.647-.065 3.428.564 5.042.35 1.385-.182 2.991-1.208 4.104-1.41 1.989-.352 3.404-.415 5.16-.817 2.75-.633 3.895-1.13 6.684-2.23 1.173-.46 3.01-1.01 3.166-1.757.156-.767-1.474-3.373-2.11-4.691M306.706 411.776c3.143.059 6.661-.256 7.735 1.874-.898 4.144-3.268 6.813-5.154 9.967-1.053-.493-1.73-2.214-2.466-3.75-1.136-2.375-3.017-6.57-.115-8.091zm11.585 24.25l.023-.213c.223-1.734 1.413-3.177 1.875-4.805.108-.38.019-.868.115-1.29.434-1.821 1.329-3.156.705-5.397-1.756-.547-1.913-2.16-2.461-3.87-.632-1.98-1.846-3.923-2.345-5.745 1.686.885 2.775 2.73 4.22 4.105.787.749 2 1.805 3.051 2.11.934.273 2.764-.303 2.93 1.171-.688.684-1.537 1.2-2.344 1.76-.13 1.003-.972 2.624-.471 4.221.29-1.462.086-2.2.588-3.163.831-1.611 3.918-1.582 2.58-4.458-.791-.704-1.78-.03-2.816-.233-1.413-.283-2.505-2.581-3.637-3.753-.604-.63-1.26-1.28-1.874-1.877-2.542-2.46-6.01-5.157-11.257-4.456-1.568.209-2.468 1.268-3.284 2.23-.922 1.08-1.875 2.474-2.932 3.282-1.735 1.326-3.875.834-6.451 1.056-.485.862-1.009 1.414-.937 2.343.127 1.631 2.043 2.611 1.644 3.87-.221.683-.877 1.01-1.526.939-1.328-.145-1.336-2.42-2.7-2.463.038 1.072 1.23 2.677 2.114 3.05 2.332.983 3.417-2.066 2.346-4.105-.367-.696-1.23-1.014-1.175-1.759.135-1.834 3.246-.766 5.045-1.055.678-.11.798-.61 1.404-.354-.426 1.637-1.204 3.276-2.46 4.456-.687.646-2.092 1.111-2.349 1.994-.342 1.206-.085 3.08 0 4.106.104 1.168.492 2.262.823 3.285.342 1.044 1.12 1.988 1.292 2.93.158.874.086 2.218-.014 3.36l.135-1.225 20.143-.046" fill="#14191e"/><path d="M304.628 492.488c-.647-.088-.836-.255-.967-.853-.157-.713-.22-.743-1.595-.757-2.936-.03-5.22-.23-7.17-.628-1.454-.297-2.577-.362-4.074-.237l-2.068.172L286.51 489c-1.635-.862-3.009-1.355-5.046-1.812-1.54-.345-3.292-.843-3.892-1.107-1.287-.565-1.338-.153.637-5.164 2.034-5.159 12.127-26.149 15.969-33.208 1.398-2.57 2.664-5.042 2.814-5.493l.272-.82h7.264c3.996 0 8.824.074 10.73.165l3.464.166.771 1.122c.425.617.918 1.676 1.097 2.353.179.677.554 1.603.835 2.058.28.455.844 1.745 1.253 2.866.41 1.122 1.564 3.426 2.567 5.12 1.857 3.139 3.868 7.197 7.59 15.317a637.3 637.3 0 0 0 4.45 9.447c1.302 2.695 2.367 5.107 2.367 5.36 0 .546-.666.911-4.108 2.256-3.02 1.18-5.533 1.85-8.52 2.274-1.18.167-3.055.639-4.166 1.05-1.876.692-2.18.733-4.255.576-2.217-.169-6.436.147-8.877.664-1.47.311-3.944.456-5.097.298zm-1.892-36.015c-.06-6.82-.167-9.534-.39-9.9-.25-.412-.312.296-.327 3.787-.01 2.361-.125 5.487-.255 6.945-.592 6.622-.592 6.334.011 7.93.456 1.202.61 1.407.804 1.061.142-.255.206-4.21.157-9.823zm7.756.041c-.77-5.19-1.454-9.607-1.517-9.816-.414-1.35.454 15.099.879 16.678.282 1.05 1.804 3.282 1.946 2.856.051-.154-.537-4.527-1.308-9.718zm-18.617 8.746c.158-.347.246-.631.196-.631-.05 0-.278.284-.506.63-.227.348-.315.632-.196.632.12 0 .348-.284.506-.631zm2.44-4.277c1.853-3.283 1.968-3.586 3.549-9.4 2.43-8.936 2.242-8.664-1.949 2.818-1.52 4.167-2.985 8.073-3.253 8.681-.269.608-.489 1.148-.489 1.2 0 .387.47-.337 2.142-3.299zm28.703 2.193c-1.026-2.025-6.818-14.132-7.207-15.064-.226-.543-.466-.93-.534-.863-.189.189 3.856 12.21 4.793 14.248.889 1.932 1.608 2.626 2.722 2.626h.706l-.48-.947zM298.234 434.892c0-.52-.326-1.636-.725-2.479a15.967 15.967 0 0 1-1.547-6.862c0-1.983.024-2.066.766-2.635 2.027-1.552 2.549-2.12 3.262-3.548.89-1.781 1.01-2.634.328-2.32-.243.111-1.579.266-2.968.342-1.388.077-2.667.232-2.84.345-.442.285-.394 1.31.08 1.703 1.173.974 1.482 3.244.596 4.372-.93 1.181-2.435.775-3.497-.943-.588-.951-.64-1.17-.276-1.17.137 0 .54.46.894 1.022.355.563.812 1.086 1.014 1.164.65.25 1.639-.16 1.93-.8.245-.537.16-.819-.64-2.114-1.01-1.638-1.109-2.22-.554-3.293.444-.857.974-1.022 3.303-1.026 2.489-.005 3.574-.611 5.851-3.268 2.505-2.922 2.959-3.178 5.627-3.167 4.519.019 7.176 1.74 13.424 8.698l1.425 1.587 1.12-.168c.615-.092 1.299-.099 1.519-.014.464.178.783 1.218.574 1.875-.161.51-2.907 2.655-2.907 2.272 0-.136.2-.409.442-.606 2.375-1.928 2.337-1.872 1.687-2.523-.228-.227-.825-.397-1.402-.397-1.498 0-2.336-.553-5.502-3.635-1.584-1.542-2.926-2.67-2.981-2.508-.056.163.403 1.47 1.02 2.904.618 1.435 1.323 3.233 1.568 3.997.282.878.772 1.698 1.332 2.23.749.712.883 1.006.869 1.911-.009.589-.197 1.68-.418 2.425-.222.745-.403 1.625-.403 1.957 0 .33-.38 1.423-.843 2.427-.464 1.004-.92 2.133-1.015 2.509l-.172.683h-19.94v-.947zm13.582-15.032c1.862-3.067 2.934-5.836 2.543-6.568-.46-.859-2.297-1.453-4.997-1.618-2.072-.126-2.626-.081-3.137.254-.831.544-1.269 1.956-1.07 3.45.26 1.957 2.399 6.8 3.482 7.883l.54.539.526-.664c.29-.365 1.24-1.84 2.113-3.276z" fill="#d4953f"/></g></svg><svg id="facebook" data-name="Layer 1" width="23.23" height="44.01" viewBox="-1 -1 23.23 44.01" x="481.5" y="221.03" xmlns="http://www.w3.org/2000/svg"><defs><style>.afcls-1{fill:#fff}</style></defs><title>facebook</title><path class="afcls-1" d="M21.23.31V7H17.4a3.55 3.55 0 0 0-2.85.91 4.26 4.26 0 0 0-.74 2.72v4.77H21l-1 7.47h-6.19V42H6.27V22.85H0v-7.47h6.27V9.85q0-4.69 2.55-7.28A9 9 0 0 1 15.63 0a39.57 39.57 0 0 1 5.6.31z"/></svg><svg id="fire" data-name="Layer 1" width="58" height="66" viewBox="-1 -1 58 66" x="342.25" y="266.64" xmlns="http://www.w3.org/2000/svg"><defs><style>.agcls-1{fill:#d4953d}</style></defs><title>Untitled-2</title><path class="agcls-1" d="M16 0C24 16 0 24 0 40s16 24 16 24C8.16 48.16 32 40 32 24S16 0 16 0zm24 24c8 16-16 24-16 40h24c3.2 0 8-4 8-16 0-16-16-24-16-24z"/></svg><svg viewBox="-1 -1 64.92 60.91" width="64.91" height="60.91" id="gift-oranget" x="481.5" y="52.41" xmlns="http://www.w3.org/2000/svg"><path d="M3.932 31.382v23.593a3.936 3.936 0 0 0 3.932 3.932h19.661V31.382H3.932zM58.983 15.653H46.542c.892-.61 1.659-1.215 2.194-1.758 3.173-3.189 3.173-8.38 0-11.568-3.083-3.107-8.455-3.099-11.533 0-1.707 1.71-6.229 8.674-5.604 13.326h-.283c.621-4.652-3.9-11.616-5.603-13.326-3.083-3.099-8.455-3.099-11.533 0-3.17 3.189-3.17 8.38-.004 11.568.538.543 1.305 1.149 2.198 1.758H3.932A3.939 3.939 0 0 0 0 19.585v5.899c0 1.085.88 1.966 1.966 1.966h25.56v-7.865h7.864v7.865h25.56c1.084 0 1.965-.881 1.965-1.966v-5.899a3.936 3.936 0 0 0-3.932-3.932zm-31.69-.13s-.165.13-.727.13c-2.717 0-7.904-2.823-9.599-4.53a4.289 4.289 0 0 1 0-6.024 4.176 4.176 0 0 1 2.981-1.242c1.12 0 2.179.44 2.977 1.242 2.65 2.666 5.285 9.477 4.368 10.424zm9.052.13c-.558 0-.723-.126-.723-.13-.916-.947 1.718-7.758 4.369-10.424 1.584-1.6 4.356-1.608 5.957 0a4.282 4.282 0 0 1 0 6.024c-1.695 1.707-6.882 4.53-9.603 4.53zM35.39 31.382v27.525h19.66a3.934 3.934 0 0 0 3.933-3.932V31.382H35.39z"/><g transform="translate(-339.47 -381.812)" fill-opacity="0"><path d="M3.427 28.092h10.094v-14.17L9.717 20.67l-1.094-1.775-2.31.415 3.038-5.388H3.427zM26.331 7.16h-6.703a8.227 8.227 0 0 0 1.052-.637c1.192-.854 1.825-1.936 1.823-3.01 0-.881-.417-2.143-1.023-2.669A3.445 3.445 0 0 0 19.209 0c-.918 0-1.771.315-2.502.805-1.099.736-1.959 2.33-2.572 3.546l-.092.179c-.224-.469-.486-1.408-.783-1.836-.52-.742-1.145-1.398-1.879-1.889C10.652.315 9.8 0 8.883 0c-.914.003-1.751.386-2.377.977-.623.585-1.059 1.902-1.063 2.843a3.051 3.051 0 0 0 .487 1.647c.416.655 1.075 1.226 1.985 1.693H1.744l.014 5.635h11.588V7.16h1.412v5.635h11.59l-.017-5.635zM8.315 5.398c-.465-.294-.751-.589-.919-.854-.163-.263-.22-.725-.22-.952-.004-.379.185-1.044.521-1.356.328-.313.774-.506 1.174-.506h.012c.515.004 1.025.176 1.539.515.765.505 1.486 1.878 1.987 2.884a7.69 7.69 0 0 1 .597 1.57c-2.321-.24-3.821-.752-4.691-1.301zm7.933-1.225c.418-.599.911-1.587 1.422-1.928.508-.339 1.024-.511 1.539-.515h.005c.429 0 .842.168 1.123.417.282.253.433.716.433 1.042-.006.385-.205 1.271-1.104 1.928-.853.622-2.334 1.259-4.611 1.705a7.92 7.92 0 0 1 1.193-2.649zM24.68 28.092v-14.17h-5.924l3.035 5.365-2.309-.392-1.09 1.796-3.755-6.678v14.079z"/><path d="M14.667 21.158l.002-6.933 1.245 2.202c.684 1.21 1.5 2.67 1.813 3.24.313.572.603 1.04.645 1.042.043.002.322-.39.622-.87l.544-.873 1.077.176c.592.098 1.106.148 1.142.112.036-.036-.28-.673-.7-1.416l-1.49-2.631-.726-1.28h5.822v14.165h-9.998l.002-6.934zM3.476 21.01v-7.083h2.87c2.269 0 2.857.032 2.81.151-.03.083-.705 1.298-1.497 2.7-.792 1.403-1.428 2.562-1.413 2.577.015.015.548-.066 1.184-.179l1.157-.205.519.84c.285.463.559.841.608.841.05 0 .892-1.417 1.872-3.15.98-1.732 1.805-3.174 1.835-3.204.03-.03.054 3.062.054 6.87v6.924h-10v-7.083zM1.81 10V7.266l3.124-.032 3.125-.031-.655-.431C5.827 5.733 5.24 4.408 5.654 2.827 6.12 1.051 7.274.102 8.961.105c1.858.004 3.924 1.589 4.675 3.588.157.419.336.778.396.798.061.02.206-.165.322-.412.841-1.788 2.19-3.279 3.362-3.718 1.497-.56 3.222-.186 3.982.861.728 1.006.904 2.45.424 3.48-.39.836-.794 1.273-1.78 1.93l-.856.57 3.422.031 3.422.032v5.472H14.784V7.142H13.237V12.737H1.809V10zm14.912-3.526c2.597-.722 3.863-1.68 4.073-3.082.213-1.428-1.434-2.187-2.928-1.347-.786.441-2.51 3.217-2.782 4.477-.098.455-.18.457 1.637-.048zm-3.745-.135c-.215-.788-1.407-2.98-1.947-3.581-1.232-1.37-2.977-1.432-3.662-.13-.16.304-.204.601-.172 1.17.042.74.061.781.605 1.273.818.74 2.6 1.365 4.662 1.632l.496.064c.104.013.108-.097.018-.428z"/></g><path d="M6.966 58.75c-.797-.208-1.516-.643-2.024-1.224-.29-.333-.666-.993-.818-1.441l-.148-.435-.018-12.113-.018-12.113h23.529v27.459l-10.014-.004c-9.563-.003-10.035-.01-10.49-.128zM35.4 45.153V31.424h23.527v12.037c0 13.29.03 12.35-.421 13.283-.305.632-1.057 1.377-1.712 1.696-.948.463-.354.44-11.413.442H35.4V45.154zM1.366 27.302a1.95 1.95 0 0 1-1.29-1.446c-.05-.243-.066-1.402-.05-3.643.026-3.647.015-3.542.499-4.468.428-.82 1.302-1.558 2.213-1.868l.438-.149 6.632-.033 6.631-.033-.775-.577c-.998-.743-1.63-1.342-2.164-2.052-3.045-4.051-1.716-9.898 2.756-12.13 3.111-1.552 6.991-.96 9.39 1.433 1.147 1.145 2.705 3.536 3.862 5.928 1.26 2.605 1.886 4.926 1.813 6.715-.029.702-.027.716.117.716.144 0 .147-.02.179-1.15.037-1.318.191-2.132.686-3.62.835-2.51 2.526-5.61 4.233-7.76C37.802 1.571 39.323.628 41.332.192c.789-.17 2.475-.171 3.263 0 1.596.346 2.872 1 3.935 2.016 1.652 1.578 2.531 3.638 2.532 5.93 0 1.971-.701 3.831-2.032 5.384-.374.436-1.37 1.294-2.048 1.763-.246.17-.448.333-.45.36 0 .028 2.9.05 6.447.051 7.097.001 6.863-.011 7.744.415.6.29 1.438 1.125 1.724 1.717.415.858.419.895.398 4.742-.019 3.426-.022 3.494-.163 3.755-.194.362-.58.733-.95.916l-.306.15-13.013.018-13.013.017v-7.865H27.47v7.864l-12.88-.002c-12.188-.002-12.898-.009-13.223-.121zm25.72-11.677c.343-.095.415-.26.403-.93-.03-1.714-1.51-5.386-3.183-7.897C22.93 4.73 21.83 3.942 20.2 3.85c-2.681-.152-4.785 2.117-4.452 4.801.175 1.42.863 2.4 2.493 3.556 3.059 2.17 7.358 3.831 8.845 3.418zm10.147-.028c1.998-.326 5.23-1.81 7.597-3.49 1.15-.815 1.848-1.682 2.208-2.743.19-.558.178-1.935-.022-2.566-.33-1.039-1.072-1.936-2.002-2.42-.672-.35-1.258-.486-2.074-.484-.772.002-1.262.118-1.982.47-.45.22-.641.37-1.133.885-1.453 1.52-3.026 4.4-3.92 7.178-.628 1.953-.657 3.11-.081 3.222.31.06.837.041 1.41-.052z" fill="#d4953f"/></svg><svg viewBox="-1 -1 64.55 63.65" width="64.55" height="63.65" id="gift2-orange" x="481.5" y="113.32" xmlns="http://www.w3.org/2000/svg"><path d="M56.889 15.721h-7.01c2.498-1.569 4.138-4.148 4.138-7.065C54.017 3.883 49.64 0 44.262 0c-4.564 0-9.969 7.822-12.985 12.877C28.26 7.822 22.854 0 18.29 0c-5.379 0-9.756 3.884-9.756 8.656 0 2.917 1.64 5.496 4.139 7.065H5.665A5.671 5.671 0 0 0 0 21.385v8.979a5.663 5.663 0 0 0 3.162 5.072v20.55a5.67 5.67 0 0 0 5.663 5.665h45.32a5.671 5.671 0 0 0 5.666-5.665V35.208a5.658 5.658 0 0 0 2.742-4.842v-8.98a5.67 5.67 0 0 0-5.664-5.665zM5.665 30.867a.504.504 0 0 1-.504-.502v-8.98c0-.277.226-.503.504-.503h23.03v9.984l-23.03.001zm28.192-9.985H56.89c.278 0 .504.226.504.503v8.979a.504.504 0 0 1-.504.502H33.857v-9.984zM44.261 5.161c2.49 0 4.594 1.6 4.594 3.495 0 1.894-2.104 3.495-4.594 3.495h-6.374c2.61-3.77 5.293-6.766 6.374-6.99zm-26.042-.004c1.136.227 3.831 3.224 6.445 6.995h-6.373c-2.49 0-4.595-1.6-4.595-3.494 0-1.894 2.104-3.497 4.523-3.501zm-9.896 50.83V36.029h20.373v20.463H8.826a.503.503 0 0 1-.503-.503zm45.824.505h-20.29V36.028h20.794v19.959a.505.505 0 0 1-.504.505z" fill="#d4953f"/></svg><svg id="globe" data-name="Layer 1" width="66" height="66" viewBox="-1 -1 66 66" x="275.77" y="356.46999999999997" xmlns="http://www.w3.org/2000/svg"><defs><style>.ajcls-1{fill:#d4953f}</style></defs><title>globe</title><path class="ajcls-1" d="M32 0a32 32 0 1 0 32 32A32 32 0 0 0 32 0zm0 8a23.75 23.75 0 0 1 7.52 1.52c-1.68 1.6-3.6 3-3.28 4.48s5.52 1 5.52 4c0 2.16-3.36 2.8-1 5.28 2.8 2.8-5.12 7.84-5.28 11.52-.24 6.64 6.72 7.76 12.24 7.76 3.36 0 4.24 1.6 4 3.52a24.07 24.07 0 0 1-19.76 10 22.94 22.94 0 0 1-8.48-1.76c1.76-3.52-2.24-10.48-6-12.72-1.84-1.84-5.76-1.12-8-2a23.49 23.49 0 0 1-1.52-6.72 1.42 1.42 0 0 1 1.28-.72c1.52 0 3.6 3 4.72 2.72 1.4-.32-5.96-10.48-2.52-12.48 1.6-1 4.8 3.12 3.76-1.28-1-4.08 2.88-2.24 5.28-3.28 2.08-.88 3.6-3.28 1-4.72a8.55 8.55 0 0 1-1.76-1.52A23.75 23.75 0 0 1 32 8.08V8zm18.48 8.72A26.46 26.46 0 0 1 54 22.48v.24a11.78 11.78 0 0 1-1.76 1.76C50 26.72 49.68 22.8 48.72 22c-1-1-4.8.16-5.28-1-.56-1.48 4-3.4 7.04-4.28z"/></svg><svg width="65.35" height="52.41" viewBox="-1 -1 65.35 52.41" id="home" x="481.5" xmlns="http://www.w3.org/2000/svg"><g transform="matrix(.13687 0 0 .13798 -.113 -6.611)"><path d="M230.149 120.939L65.986 256.274c0 .191-.048.472-.144.855-.094.38-.144.656-.144.852v137.041c0 4.948 1.809 9.236 5.426 12.847 3.616 3.613 7.898 5.431 12.847 5.431h109.63V303.664h73.097v109.64h109.629c4.948 0 9.236-1.814 12.847-5.435 3.617-3.607 5.432-7.898 5.432-12.847V257.981c0-.76-.104-1.334-.288-1.707L230.149 120.939z"/><path d="M457.122 225.438L394.6 173.476V56.989c0-2.663-.856-4.853-2.574-6.567-1.704-1.712-3.894-2.568-6.563-2.568h-54.816c-2.666 0-4.855.856-6.57 2.568-1.711 1.714-2.566 3.905-2.566 6.567v55.673l-69.662-58.245c-6.084-4.949-13.318-7.423-21.694-7.423-8.375 0-15.608 2.474-21.698 7.423L3.172 225.438c-1.903 1.52-2.946 3.566-3.14 6.136-.193 2.568.472 4.811 1.997 6.713l17.701 21.128c1.525 1.712 3.521 2.759 5.996 3.142 2.285.192 4.57-.476 6.855-1.998L230.149 95.817l197.57 164.741c1.526 1.328 3.521 1.991 5.996 1.991h.858c2.471-.376 4.463-1.43 5.996-3.138l17.703-21.125c1.522-1.906 2.189-4.145 1.991-6.716-.195-2.563-1.242-4.609-3.141-6.132z"/></g><path d="M2.721 29.163c-.229-.218-.934-1.027-1.568-1.798C.11 26.096.001 25.915 0 25.46c-.001-.309.08-.6.21-.75.116-.135 6.604-5.609 14.418-12.163C24.632 4.153 29.03.536 29.5.316 30.075.044 30.332 0 31.376 0c1.02-.001 1.31.044 1.854.292.435.198 2.274 1.663 5.623 4.479l4.978 4.185.06-4.093.06-4.093.395-.355.395-.356H53.1l.353.357.353.356v14.004l-.355.79c-.546 1.214-.89 2.694-.903 3.876-.014 1.337.349 2.481 1.603 5.053.509 1.042.91 1.895.89 1.895-.019 0-5.346-4.468-11.838-9.93-11.557-9.72-11.81-9.924-12.059-9.72-.14.113-6.153 5.165-13.362 11.225-7.209 6.06-13.296 11.148-13.528 11.306-.59.403-1.029.372-1.533-.108z" fill-opacity="0"/><path d="M78.258 49.91c-2.378-.145-5.72-.92-6.796-1.577-.375-.229-.396-.28-.396-.966 0-.772-.186-1.107-.614-1.107-.389 0-1.067-.71-1.482-1.553-.812-1.65-.677-3.119 1.351-14.6.742-4.203.879-6.437.62-10.178-.2-2.913-.933-9.383-1.226-10.82l-.13-.642-.387.274c-1.84 1.306-4.498 4.69-6.962 8.861l-.822 1.391 1.492 4.095c2.155 5.916 2.691 7.266 3.797 9.558l.99 2.051.01 1.362.01 1.362-1.157.697c-1.443.868-1.642.915-2.431.575-.53-.228-.748-.438-1.49-1.44-.993-1.342-3.672-5.38-4.942-7.45-2.948-4.804-4.502-8.137-4.63-9.93-.073-1.019.247-2.629.792-3.99.682-1.699 8.7-15.212 10.292-17.345 1.322-1.77 2.564-3.062 3.304-3.437 1.288-.652 7.086-2.732 10.487-3.76 2.135-.647 2.83-.941 2.702-1.147-.094-.152.29-.434.412-.302.056.06.198.412.317.781.281.88.79 1.895 1.588 3.17 1.313 2.096 1.482 3.35.984 7.313-.814 6.49-1.593 15.763-1.74 20.724l-.078 2.62 1.979 2.286c1.088 1.257 2.02 2.286 2.072 2.286.093 0 2.23-2.545 3.345-3.982l.583-.751-.195-4.308c-.42-9.319-.727-12.933-1.71-20.154-.432-3.18-.216-4.135 1.515-6.705a37.555 37.555 0 0 0 1.41-2.286c.565-1.019.789-1.273.789-.892 0 .34.64.666 2.41 1.227.988.313 3.78 1.225 6.204 2.028l4.409 1.46 1.382 1.426c.76.784 1.807 1.989 2.325 2.678 1.433 1.905 8.653 14.041 9.997 16.805l.64 1.315.04 2.026c.038 1.923.024 2.075-.282 2.991-.87 2.603-6.33 11.816-9.171 15.472-.888 1.142-1.319 1.428-2.168 1.437-.389.005-2.026-.92-2.441-1.38-.28-.308-.422-1.485-.284-2.352.05-.324.458-1.394.906-2.377 1.398-3.077 3.029-7.25 4.62-11.824l.693-1.99-.822-1.362c-2.109-3.5-4.09-6.189-5.676-7.703-1.08-1.032-1.523-1.304-1.689-1.035-.17.275-.347 1.459-.728 4.876-.581 5.207-.771 7.987-.704 10.3.054 1.858.156 2.642.986 7.559 1.225 7.258 1.43 8.71 1.51 10.68.065 1.636.061 1.669-.267 2.271-.402.739-1.332 1.665-1.833 1.826-.36.116-.366.132-.366.955v.838l-.488.27c-1.17.65-4.324 1.31-7.192 1.507-1.972.135-13.407.13-15.664-.008zM10.726 50.243c-.644-.202-1.284-.76-1.55-1.347-.215-.479-.225-.98-.221-10.316l.004-9.813 11.175-9.264c6.147-5.096 11.233-9.25 11.303-9.233.07.017 5.13 4.186 11.245 9.264L53.8 28.767l.003 9.836c.002 5.8-.043 9.958-.11 10.134-.158.422-.82 1.154-1.265 1.4-.34.187-1.105.21-8.204.241l-7.83.035V35.289H26.358v15.115l-7.588-.01c-5.442-.006-7.717-.049-8.044-.151z" fill-opacity="0"/><path d="M10.726 50.243c-.644-.202-1.284-.76-1.55-1.347-.215-.479-.225-.98-.221-10.316l.004-9.813 11.175-9.264c6.147-5.096 11.233-9.25 11.303-9.233.07.017 5.13 4.186 11.245 9.264L53.8 28.767l.003 9.836c.002 5.8-.043 9.958-.11 10.134-.158.422-.82 1.154-1.265 1.4-.34.187-1.105.21-8.204.241l-7.83.035V35.289H26.358v15.115l-7.588-.01c-5.442-.006-7.717-.049-8.044-.151z" fill-opacity="0"/><path d="M10.726 50.243c-.644-.202-1.284-.76-1.55-1.347-.215-.479-.225-.98-.221-10.316l.004-9.813 11.175-9.264c6.147-5.096 11.233-9.25 11.303-9.233.07.017 5.13 4.186 11.245 9.264L53.8 28.767l.003 9.836c.002 5.8-.043 9.958-.11 10.134-.158.422-.82 1.154-1.265 1.4-.34.187-1.105.21-8.204.241l-7.83.035V35.289H26.358v15.115l-7.588-.01c-5.442-.006-7.717-.049-8.044-.151z" fill-opacity="0"/><path d="M10.582 50.243c-.635-.202-1.267-.76-1.528-1.347-.213-.479-.223-.98-.219-10.316l.004-9.813 11.026-9.264c6.064-5.096 11.082-9.25 11.15-9.233.07.017 5.062 4.186 11.095 9.264l10.97 9.233.003 9.836c.002 5.8-.043 9.958-.108 10.134-.157.422-.81 1.154-1.249 1.4-.335.187-1.09.21-8.095.241l-7.724.035V35.289h-9.902v15.115l-7.486-.01c-5.37-.006-7.614-.049-7.937-.151z" fill="#d4953f"/><path d="M2.685 29.163c-.226-.218-.922-1.027-1.547-1.798C.108 26.096 0 25.915-.001 25.46c-.001-.309.08-.6.207-.75.115-.135 6.516-5.609 14.225-12.163C24.302 4.153 28.64.536 29.105.316c.568-.271.821-.315 1.85-.316 1.008-.001 1.293.044 1.83.292.429.198 2.244 1.663 5.548 4.479l4.91 4.185.06-4.093.06-4.093.39-.355.39-.356H52.387l.35.357.348.356v16.566l4.35 3.686c4.726 4.006 4.79 4.075 4.434 4.898-.254.589-2.703 3.429-3.07 3.56a1.274 1.274 0 0 1-.635.03c-.178-.046-6.368-5.235-13.756-11.531C31.273 6.786 30.971 6.538 30.726 6.74c-.137.114-6.07 5.165-13.182 11.225S4.426 29.113 4.197 29.27c-.581.403-1.015.372-1.512-.108z" fill="#d4953f"/></svg><svg viewBox="-1 -1 65.43 65.45" width="65.43" height="65.45" id="info-orange" x="407.63" y="356.46999999999997" xmlns="http://www.w3.org/2000/svg"><path d="M31.725-.053C14.174-.053-.057 14.178-.057 31.73c0 17.552 14.231 31.785 31.782 31.785 17.552 0 31.785-14.233 31.785-31.785 0-17.55-14.233-31.782-31.785-31.782zm6.617 49.258a104.849 104.849 0 0 1-3.915 1.475c-.974.339-2.107.508-3.396.508-1.98 0-3.522-.484-4.62-1.45-1.098-.966-1.644-2.19-1.644-3.678 0-.578.04-1.17.121-1.773.084-.603.216-1.28.396-2.042l2.047-7.233c.18-.694.337-1.353.46-1.967a8.721 8.721 0 0 0 .184-1.703c0-.92-.192-1.566-.57-1.93-.386-.362-1.11-.54-2.188-.54a5.74 5.74 0 0 0-1.628.242c-.552.17-1.03.323-1.424.474l.541-2.228a51 51 0 0 1 3.848-1.402c1.224-.393 2.381-.587 3.47-.587 1.968 0 3.485.48 4.553 1.426 1.063.95 1.599 2.185 1.599 3.703 0 .315-.038.869-.11 1.66-.073.794-.21 1.517-.41 2.182l-2.036 7.211c-.167.579-.315 1.24-.45 1.98-.132.74-.196 1.305-.196 1.685 0 .958.212 1.612.643 1.959.425.347 1.17.522 2.225.522.498 0 1.055-.09 1.684-.261.625-.173 1.077-.326 1.362-.458l-.546 2.225zm-.36-29.269c-.95.883-2.094 1.324-3.431 1.324-1.335 0-2.487-.441-3.445-1.324-.952-.882-1.434-1.956-1.434-3.21 0-1.25.485-2.327 1.434-3.218.958-.893 2.11-1.337 3.445-1.337 1.337 0 2.483.444 3.43 1.337.95.89 1.426 1.967 1.426 3.218 0 1.257-.476 2.328-1.426 3.21z" fill="#030104"/><path d="M28.994 63.354c-6.161-.534-12.153-2.927-17.018-6.798-1.298-1.032-3.46-3.135-4.527-4.404-7.072-8.407-9.286-19.815-5.877-30.29 1.126-3.461 3.002-6.95 5.31-9.868 1.054-1.334 3.746-4.026 5.094-5.093C20.124.45 30.813-1.629 40.755 1.305 52.3 4.715 61.089 14.655 63.02 26.49c.65 3.986.523 8.477-.347 12.272-3.101 13.52-14.644 23.514-28.413 24.6-1.476.117-3.872.113-5.266-.008zm4.354-12.34c.707-.152 2.008-.596 3.969-1.358l1.065-.413.274-1.102c.15-.606.256-1.119.236-1.14-.02-.02-.368.072-.772.204-1.066.348-1.945.476-2.839.415-1.054-.072-1.643-.362-1.981-.973-.222-.4-.248-.562-.24-1.452.014-1.338.214-2.23 1.593-7.107 1.338-4.735 1.426-5.134 1.512-6.842.1-1.999-.204-3.01-1.237-4.127-.662-.715-1.492-1.2-2.58-1.51-1.04-.296-3.397-.323-4.505-.052-1.437.351-4.895 1.568-5.12 1.801-.062.065-.224.605-.36 1.2-.19.825-.217 1.07-.114 1.03 1.22-.469 1.937-.61 3.09-.61 1.097 0 1.241.022 1.648.25.738.415.856.728.853 2.253-.004 1.527-.05 1.734-1.68 7.507-.575 2.038-1.126 4.177-1.223 4.756-.253 1.496-.235 3.179.04 3.946.688 1.91 2.265 3.078 4.671 3.457.796.126 2.83.052 3.7-.134zm2.895-29.99c.77-.267 1.433-.698 1.979-1.285.933-1.003 1.223-1.802 1.166-3.209-.034-.821-.086-1.064-.346-1.617-.551-1.168-1.542-2.059-2.799-2.518-.473-.173-.814-.216-1.693-.216-.88 0-1.221.043-1.694.216-3.208 1.172-4.27 4.928-2.054 7.27.796.842 1.616 1.307 2.747 1.557.622.138 2.027.035 2.694-.197z" fill="#d4953f"/></svg><svg id="instagram" viewBox="-1 -1 70.15 68.73" width="70.15" height="68.73" x="139.62" y="356.46999999999997" xmlns="http://www.w3.org/2000/svg"><defs id="amdefs45"><style id="amstyle3378">.cls-1{fill:#d4953d}</style><style id="amstyle3393">.cls-1{fill:#d4953f}</style><style id="amstyle3408">.cls-1{fill:#2f5572}</style></defs><g id="amg3" transform="translate(0 -.71) scale(1.41976)" fill="#2f5572"><g id="amg5"><path d="M40.4 5.5h-4.8A2.602 2.602 0 0 0 33 8.1v4.8c0 1.434 1.166 2.6 2.6 2.6h4.8c1.434 0 2.6-1.166 2.6-2.6V8.1c0-1.434-1.166-2.6-2.6-2.6zm.6 7.4a.6.6 0 0 1-.6.6h-4.8a.6.6 0 0 1-.6-.6V8.1a.6.6 0 0 1 .6-.6h4.8a.6.6 0 0 1 .6.6v4.8z" id="ampath7"/><path d="M37.8.5H10.2C4.576.5 0 5.089 0 10.731V37.27C0 42.911 4.576 47.5 10.2 47.5h27.6c5.624 0 10.2-4.589 10.2-10.23V10.731C48 5.089 43.424.5 37.8.5zM46 37.27c0 4.538-3.679 8.23-8.2 8.23H10.2c-4.522 0-8.2-3.692-8.2-8.23V19.5h12.221A13.948 13.948 0 0 0 10 29.5c0 7.72 6.28 14 14 14s14-6.28 14-14c0-3.916-1.62-7.457-4.221-10H46v17.77zM36 29.5c0 6.617-5.383 12-12 12s-12-5.383-12-12 5.383-12 12-12 12 5.383 12 12zm-4.826-12c-2.101-1.261-4.55-2-7.174-2-2.624 0-5.073.739-7.174 2H2v-6.769C2 6.192 5.679 2.5 10.2 2.5h27.6c4.521 0 8.2 3.692 8.2 8.231V17.5H31.174z" id="ampath9"/><path d="M15 29.5c0 4.962 4.037 9 9 9s9-4.038 9-9-4.037-9-9-9-9 4.038-9 9zm16 0c0 3.86-3.141 7-7 7s-7-3.14-7-7 3.141-7 7-7 7 3.14 7 7z" id="ampath11"/></g></g></svg><svg id="mail" data-name="Layer 1" width="66" height="50" viewBox="-1 -1 66 50" x="281.17" y="206.67000000000002" xmlns="http://www.w3.org/2000/svg"><defs><style>.ancls-1{fill:#2f5572}</style></defs><title>mail</title><path class="ancls-1" d="M0 0v8l32 16L64 8V0H0zm0 16v32h64V16L32 32z"/></svg><svg id="mail-orange" data-name="Layer 1" width="66" height="50" viewBox="-1 -1 66 50" x="347.17" y="206.67000000000002" xmlns="http://www.w3.org/2000/svg"><defs id="aodefs3"><style id="aostyle5">.aocls-1{fill:#2f5572}</style></defs><title id="aotitle7">mail</title><path class="aocls-1" d="M0 0v8l32 16L64 8V0H0zm0 16v32h64V16L32 32z" id="aopath9"/><path d="M.164 32.073c0-8.702.04-15.822.088-15.822.05 0 7.229 3.57 15.954 7.933l15.866 7.933 15.821-7.923c8.702-4.358 15.881-7.928 15.954-7.933.073-.006.133 7.11.133 15.812v15.821H.164V32.073z" id="aopath3572" fill="#d4953f"/><path d="M16.03 15.888L.163 7.942V.164H63.98v7.773l-15.909 7.958c-8.75 4.377-15.969 7.953-16.042 7.948-.074-.006-7.274-3.585-16-7.955z" id="aopath3574" fill="#d4953f"/><path d="M47.309 47.98c3.053-.004 8.06-.004 11.125 0 3.065.005.566.009-5.553.009-6.118 0-8.626-.004-5.572-.008z" id="aopath3576" fill="#d4953f"/><path d="M57.858 47.98c.176-.005.464-.005.64 0 .177.006.033.011-.32.011-.352 0-.496-.005-.32-.01z" id="aopath3578" fill="#d4953f"/></svg><svg id="rain" data-name="Layer 1" width="66" height="66" viewBox="-1 -1 66 66" x="400.25" y="266.64" xmlns="http://www.w3.org/2000/svg"><defs><style>.apcls-1{fill:#d4953f}</style></defs><title>rain</title><path class="apcls-1" d="M36 0a20.42 20.42 0 0 0-20 16A16 16 0 0 0 0 32a15.4 15.4 0 0 0 4.27 10.72A11.88 11.88 0 0 1 12 40a10.51 10.51 0 0 1 4.47 1A12 12 0 0 1 28 32a12.06 12.06 0 0 1 11.51 9A11.84 11.84 0 0 1 44 40a11.94 11.94 0 0 1 11 7.52A12.07 12.07 0 0 0 64 36c0-5.2-3.36-10.32-8-12v-4A20 20 0 0 0 36 0zm-9.27 40A4 4 0 0 0 24 44v16a4 4 0 1 0 8 0V44a4 4 0 0 0-4.71-4h-.56zm-16 8A4 4 0 0 0 8 52v8a4 4 0 1 0 8 0v-8a4 4 0 0 0-4.71-4h-.54zm32 0A4 4 0 0 0 40 52v8a4 4 0 1 0 8 0v-8a4 4 0 0 0-4.71-4h-.58z" transform="translate(-.04)"/></svg><svg width="72.9" height="66.43" viewBox="-1 -1 68.47 62.4" id="shirt" x="141.35" y="266.64" xmlns="http://www.w3.org/2000/svg"><path d="M24.303 60.168c-2.134-.249-4.628-.863-5.653-1.393-.62-.32-.711-.495-.627-1.212.086-.743.02-.852-.586-.973-.476-.096-.888-.487-1.361-1.295-1.013-1.728-.87-3.315 1.428-15.904.731-4.005.728-7.562-.014-14.036-.307-2.688-.635-5.263-.729-5.722l-.17-.835-.927.738C14.06 20.809 11.7 23.88 9.633 27.38L8.51 29.278l1.816 4.994c2.128 5.853 2.94 7.839 3.835 9.38.477.82.666 1.52.695 2.572l.04 1.445-1.456.884c-1.116.678-1.56.827-1.907.641a5.552 5.552 0 0 0-.84-.36c-.486-.145-5.143-7.109-7.465-11.16C1.357 34.405.28 31.96.034 30.417c-.18-1.12.375-3.538 1.173-5.125.502-.997 5.718-9.87 8.17-13.896 1.558-2.56 3.62-5.122 4.753-5.907.835-.58 9.359-3.59 12.562-4.437.59-.156 1.014-.378.943-.494-.072-.116.017-.333.197-.482.258-.214.396-.008.644.96.174.678.777 1.888 1.34 2.688 1.451 2.063 1.773 3.726 1.322 6.843-.77 5.322-1.884 18.723-1.884 22.652v1.586l1.98 2.286 1.981 2.285 1.1-1.31a96.519 96.519 0 0 0 1.933-2.384l.834-1.076-.284-6.443c-.31-7.047-.799-12.63-1.504-17.192-.586-3.793-.36-5.121 1.247-7.305.61-.83 1.323-1.984 1.586-2.567.474-1.054.901-1.385.901-.698 0 .237.754.585 2.194 1.013 1.206.359 4.11 1.293 6.453 2.075l4.261 1.423 1.88 1.897c1.213 1.225 2.439 2.827 3.457 4.52 5.105 8.488 7.233 12.116 8.154 13.9.985 1.91 1.035 2.113 1.04 4.263.005 2.189-.03 2.333-1.198 4.75-2.244 4.644-8.689 14.672-9.43 14.672-.23 0-.55.132-.712.293-.223.223-.632.082-1.725-.596-1.414-.878-1.433-.905-1.509-2.184-.065-1.09.075-1.598.89-3.226.98-1.955 3.051-7.218 4.564-11.59l.827-2.392-1.322-2.188c-1.86-3.08-3.985-5.878-5.427-7.147-1.092-.96-1.253-1.032-1.416-.627-.288.714-1.233 9.646-1.375 12.99-.115 2.732-.032 3.547.906 8.897 1.366 7.785 1.875 11.763 1.657 12.928-.193 1.029-1.56 2.612-2.255 2.612-.334 0-.381.163-.251.858.144.766.084.898-.564 1.233-1.054.545-3.387 1.092-5.966 1.399-2.608.31-15.174.305-17.858-.007z" fill="#d4953f"/></svg><svg width="200.33" height="119.45" viewBox="-1 -1 187.94 112.11" id="shirt-dress-black" x="281.17" xmlns="http://www.w3.org/2000/svg"><g transform="translate(-262.958 -286.595)" fill="#14191e"><path d="M358.783 314.65c-8.98-15.914-12.503-14.096-15.913-15.573-3.408-1.479-15.914-5.116-15.914-5.116s.67-.675-.81-1.639c-1.157 3.02-3.107 6.399-5.362 8.404l-1.011 5.372c2.772 15.455 3.067 28.204 3.584 43.184-1.693 2.13-4.197 5.403-6.006 7.498-2.022-2.061-4.404-5.215-6.525-7.497.85-15.027 1.513-27.892 3.826-43.185l-1.112-5.292c-2.614-2.547-3.929-5.74-4.383-8.602l-.232.104c-1.514.97-.83 1.653-.83 1.653s-12.509 3.637-15.915 5.116c-3.411 1.477-6.933-.341-15.914 15.573-8.98 15.914-13.528 20.347-13.3 27.166.227 6.822 13.414 25.464 16.711 30.352 0 0 .795.909 1.818.682l.91 1.023 5.454-3.41-.68-1.478s1.705-1.251-.797-5.116c-2.502-3.865-9.094-23.301-9.094-23.301s7.959-14.438 12.96-16.711c0 0 2.158 16.595 2.387 23.53.228 6.935-5.912 29.895-4.207 34.33 1.708 4.432 4.092 3.637 4.092 3.637l-.455 2.615s2.504 3.182 17.961 3.637h14.997c15.459-.455 17.96-3.637 17.96-3.637l-.456-2.615s2.388.795 4.094-3.637c1.705-4.435-4.434-27.395-4.207-34.33.23-6.935 2.387-23.53 2.387-23.53 5.002 2.273 12.959 16.71 12.959 16.71s-6.592 19.437-9.092 23.302c-2.503 3.865-.798 5.116-.798 5.116l-.68 1.477 5.455 3.41.91-1.022c1.022.227 1.818-.682 1.818-.682 3.296-4.888 16.484-23.53 16.711-30.352.227-6.82-4.32-11.252-13.3-27.166M423.58 356.893c-1.635-2.126-7.527-21.111-7.527-21.111 2.616 6.22 10.801 22.584 10.801 22.584s-1.637.654-3.273-1.473zm-14.7-.192c-.561-2.846-1.273-21.813-1.273-21.813l3.963 26.5s-2.134-1.84-2.69-4.687zm-9.685 5.268s-1.802-3.603-1.635-5.24c.162-1.638.98-6.382.98-10.308v-11.785c1.637 1.146.655 27.333.655 27.333zm-8.509-12.44c-.562 1.462-3.437 6.39-5.185 9.336-.82 1.61-1.364 2.283-1.364 2.283s.565-.936 1.364-2.283c.622-1.216 1.393-2.946 2.238-5.405.304-.883.684-1.972 1.121-3.183 2.377-6.644 6.241-16.95 6.241-16.95s-3.598 14.075-4.415 16.203zm55.39 31.232c-5.131-10.574-9.58-21.191-14.811-31.183-1.076-2.054-2.257-3.85-3.43-5.767-1.269-2.076-1.659-4.297-2.654-6.55-.396-.899-1.103-1.78-1.403-2.495-.37-.883-.458-2.018-.778-2.807-.51-1.269-1.83-2.606-2.529-3.943l.165.398-28.356-.428.675-2.27.14-1.729-.032.333c-.297 2.907-1.602 5.9-2.96 8.421-1.355 2.51-2.78 4.978-4.054 7.325-2.87 5.305-5.18 10.675-7.485 15.438-5.225 10.796-10.63 20.548-14.187 31.649 3.385 2.19 7.662 1.778 11.224 3.433 1.96.908 3.32 2.057 4.988 2.495 1.834.474 3.075-.08 4.525-.158 2.22-.124 4.66.815 7.173 1.087 2.62.296 5.335-.141 8.104.317.233.65.223 1.543.625 2.028 1.756-.062 3.585.493 5.302.312.725-.08 1.3-.612 2.028-.782 2.193-.518 4.343-.249 6.858-.626.551-.079 1.06-.446 1.562-.465 2.19-.086 4.557.75 6.703.465 1.841-.24 3.977-1.605 5.456-1.872 2.644-.47 4.526-.553 6.86-1.087 3.657-.842 5.18-1.502 8.887-2.965 1.56-.613 4.002-1.343 4.21-2.337.208-1.02-1.96-4.485-2.806-6.237M404.761 288.93c4.18.078 8.858-.34 10.285 2.491-1.194 5.51-4.345 9.06-6.853 13.253-1.4-.657-2.3-2.944-3.278-4.988-1.511-3.156-4.011-8.734-.154-10.756zm15.403 32.243l.031-.284c.297-2.306 1.88-4.224 2.493-6.389.144-.506.025-1.153.154-1.716.576-2.42 1.766-4.195.936-7.175-2.334-.727-2.543-2.872-3.272-5.144-.84-2.634-2.454-5.217-3.117-7.64 2.241 1.178 3.69 3.63 5.611 5.459 1.045.995 2.659 2.4 4.056 2.806 1.242.362 3.675-.403 3.894 1.556-.913.91-2.042 1.596-3.116 2.341-.173 1.332-1.291 3.488-.626 5.611.386-1.943.115-2.924.783-4.205 1.105-2.143 5.21-2.104 3.43-5.928-1.052-.936-2.368-.04-3.744-.31-1.878-.375-3.33-3.431-4.835-4.99-.804-.838-1.675-1.7-2.492-2.495-3.38-3.27-7.992-6.857-14.967-5.925-2.085.278-3.281 1.687-4.367 2.966-1.225 1.436-2.492 3.289-3.898 4.363-2.306 1.763-5.151 1.109-8.577 1.404-.645 1.147-1.34 1.88-1.245 3.115.168 2.17 2.716 3.472 2.185 5.146-.294.907-1.165 1.343-2.028 1.248-1.766-.192-1.777-3.217-3.59-3.274.05 1.425 1.634 3.558 2.81 4.055 3.101 1.306 4.544-2.747 3.12-5.458-.488-.926-1.635-1.349-1.563-2.338.18-2.44 4.316-1.02 6.708-1.404.902-.147 1.06-.81 1.867-.47-.566 2.177-1.602 4.355-3.27 5.924-.914.859-2.783 1.478-3.124 2.652-.455 1.603-.113 4.094 0 5.458.138 1.553.654 3.008 1.094 4.368.454 1.388 1.49 2.644 1.718 3.896.21 1.161.114 2.949-.019 4.468l.18-1.63 26.78-.06"/></g></svg><svg width="141.35" height="89.83" viewBox="-1 -1 132.65 84.34" id="shirt-dress-orange" y="266.64" xmlns="http://www.w3.org/2000/svg"><g transform="translate(-209.005 -410.215)"><path d="M320.86 462.893c-1.23-1.6-5.661-15.879-5.661-15.879 1.967 4.68 8.123 16.987 8.123 16.987s-1.23.491-2.462-1.108zm-11.056-.145c-.423-2.14-.958-16.406-.958-16.406l2.98 19.932s-1.605-1.384-2.022-3.526zm-7.285 3.963s-1.355-2.71-1.23-3.941c.122-1.232.737-4.8.737-7.753v-8.864c1.232.861.493 20.558.493 20.558zm-6.4-9.356c-.422 1.099-2.585 4.806-3.9 7.02-.616 1.212-1.026 1.718-1.026 1.718s.425-.704 1.027-1.717c.467-.914 1.047-2.215 1.682-4.065.23-.664.515-1.483.844-2.394 1.787-4.997 4.694-12.748 4.694-12.748s-2.706 10.585-3.32 12.186zm41.66 23.49c-3.859-7.953-7.204-15.939-11.14-23.454-.809-1.544-1.697-2.895-2.58-4.337-.953-1.562-1.247-3.232-1.996-4.927-.297-.676-.829-1.34-1.054-1.876-.279-.665-.345-1.518-.585-2.111-.385-.955-1.377-1.961-1.903-2.967l.124.3-21.327-.322.508-1.708.106-1.3c-.01.08-.017.178-.025.25-.224 2.187-1.205 4.438-2.226 6.334-1.02 1.888-2.09 3.745-3.05 5.51-2.157 3.99-3.896 8.029-5.63 11.61-3.93 8.121-7.995 15.456-10.67 23.805 2.546 1.647 5.764 1.338 8.442 2.582 1.474.683 2.497 1.548 3.752 1.877 1.379.357 2.312-.06 3.403-.119 1.67-.093 3.505.613 5.395.818 1.972.222 4.013-.106 6.095.238.176.488.168 1.16.47 1.526 1.321-.048 2.697.37 3.989.234.545-.06.977-.46 1.525-.588 1.649-.39 3.266-.187 5.158-.47.414-.06.797-.336 1.174-.35 1.647-.065 3.428.564 5.042.35 1.385-.182 2.991-1.208 4.104-1.41 1.989-.352 3.404-.415 5.16-.817 2.75-.633 3.895-1.13 6.684-2.23 1.173-.46 3.01-1.01 3.166-1.757.156-.767-1.474-3.373-2.11-4.691M306.706 411.776c3.143.059 6.661-.256 7.735 1.874-.898 4.144-3.268 6.813-5.154 9.967-1.053-.493-1.73-2.214-2.466-3.75-1.136-2.375-3.017-6.57-.115-8.091zm11.585 24.25l.023-.213c.223-1.734 1.413-3.177 1.875-4.805.108-.38.019-.868.115-1.29.434-1.821 1.329-3.156.705-5.397-1.756-.547-1.913-2.16-2.461-3.87-.632-1.98-1.846-3.923-2.345-5.745 1.686.885 2.775 2.73 4.22 4.105.787.749 2 1.805 3.051 2.11.934.273 2.764-.303 2.93 1.171-.688.684-1.537 1.2-2.344 1.76-.13 1.003-.972 2.624-.471 4.221.29-1.462.086-2.2.588-3.163.831-1.611 3.918-1.582 2.58-4.458-.791-.704-1.78-.03-2.816-.233-1.413-.283-2.505-2.581-3.637-3.753-.604-.63-1.26-1.28-1.874-1.877-2.542-2.46-6.01-5.157-11.257-4.456-1.568.209-2.468 1.268-3.284 2.23-.922 1.08-1.875 2.474-2.932 3.282-1.735 1.326-3.875.834-6.451 1.056-.485.862-1.009 1.414-.937 2.343.127 1.631 2.043 2.611 1.644 3.87-.221.683-.877 1.01-1.526.939-1.328-.145-1.336-2.42-2.7-2.463.038 1.072 1.23 2.677 2.114 3.05 2.332.983 3.417-2.066 2.346-4.105-.367-.696-1.23-1.014-1.175-1.759.135-1.834 3.246-.766 5.045-1.055.678-.11.798-.61 1.404-.354-.426 1.637-1.204 3.276-2.46 4.456-.687.646-2.092 1.111-2.349 1.994-.342 1.206-.085 3.08 0 4.106.104 1.168.492 2.262.823 3.285.342 1.044 1.12 1.988 1.292 2.93.158.874.086 2.218-.014 3.36l.135-1.225 20.143-.046" fill="#14191e"/><path d="M304.628 492.488c-.647-.088-.836-.255-.967-.853-.157-.713-.22-.743-1.595-.757-2.936-.03-5.22-.23-7.17-.628-1.454-.297-2.577-.362-4.074-.237l-2.068.172L286.51 489c-1.635-.862-3.009-1.355-5.046-1.812-1.54-.345-3.292-.843-3.892-1.107-1.287-.565-1.338-.153.637-5.164 2.034-5.159 12.127-26.149 15.969-33.208 1.398-2.57 2.664-5.042 2.814-5.493l.272-.82h7.264c3.996 0 8.824.074 10.73.165l3.464.166.771 1.122c.425.617.918 1.676 1.097 2.353.179.677.554 1.603.835 2.058.28.455.844 1.745 1.253 2.866.41 1.122 1.564 3.426 2.567 5.12 1.857 3.139 3.868 7.197 7.59 15.317a637.3 637.3 0 0 0 4.45 9.447c1.302 2.695 2.367 5.107 2.367 5.36 0 .546-.666.911-4.108 2.256-3.02 1.18-5.533 1.85-8.52 2.274-1.18.167-3.055.639-4.166 1.05-1.876.692-2.18.733-4.255.576-2.217-.169-6.436.147-8.877.664-1.47.311-3.944.456-5.097.298zm-1.892-36.015c-.06-6.82-.167-9.534-.39-9.9-.25-.412-.312.296-.327 3.787-.01 2.361-.125 5.487-.255 6.945-.592 6.622-.592 6.334.011 7.93.456 1.202.61 1.407.804 1.061.142-.255.206-4.21.157-9.823zm7.756.041c-.77-5.19-1.454-9.607-1.517-9.816-.414-1.35.454 15.099.879 16.678.282 1.05 1.804 3.282 1.946 2.856.051-.154-.537-4.527-1.308-9.718zm-18.617 8.746c.158-.347.246-.631.196-.631-.05 0-.278.284-.506.63-.227.348-.315.632-.196.632.12 0 .348-.284.506-.631zm2.44-4.277c1.853-3.283 1.968-3.586 3.549-9.4 2.43-8.936 2.242-8.664-1.949 2.818-1.52 4.167-2.985 8.073-3.253 8.681-.269.608-.489 1.148-.489 1.2 0 .387.47-.337 2.142-3.299zm28.703 2.193c-1.026-2.025-6.818-14.132-7.207-15.064-.226-.543-.466-.93-.534-.863-.189.189 3.856 12.21 4.793 14.248.889 1.932 1.608 2.626 2.722 2.626h.706l-.48-.947zM298.234 434.892c0-.52-.326-1.636-.725-2.479a15.967 15.967 0 0 1-1.547-6.862c0-1.983.024-2.066.766-2.635 2.027-1.552 2.549-2.12 3.262-3.548.89-1.781 1.01-2.634.328-2.32-.243.111-1.579.266-2.968.342-1.388.077-2.667.232-2.84.345-.442.285-.394 1.31.08 1.703 1.173.974 1.482 3.244.596 4.372-.93 1.181-2.435.775-3.497-.943-.588-.951-.64-1.17-.276-1.17.137 0 .54.46.894 1.022.355.563.812 1.086 1.014 1.164.65.25 1.639-.16 1.93-.8.245-.537.16-.819-.64-2.114-1.01-1.638-1.109-2.22-.554-3.293.444-.857.974-1.022 3.303-1.026 2.489-.005 3.574-.611 5.851-3.268 2.505-2.922 2.959-3.178 5.627-3.167 4.519.019 7.176 1.74 13.424 8.698l1.425 1.587 1.12-.168c.615-.092 1.299-.099 1.519-.014.464.178.783 1.218.574 1.875-.161.51-2.907 2.655-2.907 2.272 0-.136.2-.409.442-.606 2.375-1.928 2.337-1.872 1.687-2.523-.228-.227-.825-.397-1.402-.397-1.498 0-2.336-.553-5.502-3.635-1.584-1.542-2.926-2.67-2.981-2.508-.056.163.403 1.47 1.02 2.904.618 1.435 1.323 3.233 1.568 3.997.282.878.772 1.698 1.332 2.23.749.712.883 1.006.869 1.911-.009.589-.197 1.68-.418 2.425-.222.745-.403 1.625-.403 1.957 0 .33-.38 1.423-.843 2.427-.464 1.004-.92 2.133-1.015 2.509l-.172.683h-19.94v-.947zm13.582-15.032c1.862-3.067 2.934-5.836 2.543-6.568-.46-.859-2.297-1.453-4.997-1.618-2.072-.126-2.626-.081-3.137.254-.831.544-1.269 1.956-1.07 3.45.26 1.957 2.399 6.8 3.482 7.883l.54.539.526-.664c.29-.365 1.24-1.84 2.113-3.276zM233.308 481.89c-2.134-.249-4.628-.863-5.653-1.393-.62-.32-.711-.496-.627-1.212.086-.743.02-.852-.586-.974-.476-.095-.888-.486-1.361-1.294-1.013-1.728-.87-3.315 1.428-15.904.731-4.005.728-7.562-.014-14.036-.307-2.688-.635-5.263-.729-5.722l-.17-.835-.928.738c-1.602 1.273-3.963 4.344-6.03 7.843l-1.122 1.9 1.816 4.993c2.128 5.853 2.94 7.839 3.835 9.38.477.82.666 1.52.695 2.572l.04 1.445-1.456.884c-1.116.678-1.56.827-1.907.641a5.552 5.552 0 0 0-.84-.36c-.486-.145-5.143-7.109-7.465-11.16-1.872-3.268-2.949-5.713-3.195-7.256-.18-1.12.374-3.538 1.173-5.125.502-.997 5.718-9.87 8.17-13.897 1.558-2.56 3.62-5.121 4.753-5.907.835-.579 9.359-3.589 12.562-4.436.59-.156 1.014-.378.943-.494-.072-.116.017-.333.197-.482.258-.214.396-.008.644.96.174.678.776 1.888 1.34 2.688 1.451 2.063 1.773 3.725 1.322 6.843-.77 5.322-1.884 18.723-1.884 22.652v1.586l1.98 2.285 1.981 2.286 1.1-1.31a96.519 96.519 0 0 0 1.933-2.384l.834-1.076-.284-6.443c-.31-7.047-.799-12.63-1.504-17.192-.587-3.793-.36-5.121 1.247-7.306.61-.828 1.323-1.983 1.586-2.566.474-1.054.901-1.385.901-.698 0 .237.754.585 2.193 1.013 1.207.359 4.11 1.293 6.454 2.075l4.261 1.423 1.88 1.897c1.213 1.225 2.439 2.827 3.457 4.52 5.105 8.488 7.233 12.116 8.154 13.9.985 1.91 1.035 2.113 1.04 4.263.005 2.189-.03 2.333-1.198 4.749-2.244 4.645-8.689 14.673-9.43 14.673-.23 0-.55.132-.712.293-.223.223-.632.082-1.725-.596-1.414-.878-1.433-.905-1.51-2.184-.064-1.09.076-1.598.891-3.226.98-1.955 3.051-7.218 4.564-11.591l.827-2.391-1.322-2.188c-1.86-3.08-3.985-5.878-5.427-7.147-1.092-.961-1.253-1.032-1.416-.627-.288.714-1.233 9.646-1.375 12.99-.115 2.732-.032 3.547.906 8.897 1.366 7.785 1.875 11.763 1.657 12.928-.193 1.029-1.56 2.612-2.255 2.612-.334 0-.382.163-.251.858.144.766.084.898-.564 1.233-1.054.545-3.387 1.092-5.966 1.398-2.608.31-15.174.306-17.858-.007z" fill="#d4953f"/></g></svg><svg width="281.17" height="147.19" viewBox="-1 -1 263.72 138.11" id="shirtanddress" xmlns="http://www.w3.org/2000/svg"><g transform="translate(-258.377 -260.59)" fill="#14191e"><path d="M503.642 295.27c-11.1-19.672-15.456-17.424-19.67-19.25-4.213-1.828-19.673-6.324-19.673-6.324s.827-.835-1.002-2.027c-1.43 3.733-3.84 7.91-6.628 10.39l-1.25 6.64c3.427 19.105 3.79 34.865 4.43 53.383-2.093 2.634-5.188 6.679-7.424 9.269-2.5-2.548-5.444-6.447-8.066-9.268 1.05-18.576 1.87-34.479 4.73-53.384-.458-2.18-.918-4.362-1.375-6.542-3.232-3.149-4.857-7.095-5.418-10.634l-.287.129c-1.872 1.199-1.027 2.044-1.027 2.044s-15.462 4.496-19.673 6.323c-4.217 1.827-8.57-.42-19.673 19.252-11.101 19.672-16.722 25.152-16.44 33.582.28 8.433 16.581 31.478 20.658 37.52 0 0 .982 1.124 2.247.844l1.124 1.264 6.742-4.217-.84-1.826s2.108-1.546-.986-6.324c-3.092-4.777-11.241-28.805-11.241-28.805s9.839-17.847 16.02-20.657c0 0 2.669 20.515 2.951 29.087.283 8.573-7.307 36.957-5.2 42.438 2.111 5.479 5.059 4.496 5.059 4.496l-.563 3.233s3.095 3.933 22.203 4.496h18.539c19.11-.563 22.202-4.496 22.202-4.496l-.564-3.233s2.952.983 5.06-4.496c2.11-5.481-5.48-33.865-5.2-42.438.284-8.572 2.952-29.087 2.952-29.087 6.182 2.81 16.018 20.657 16.018 20.657s-8.148 24.028-11.238 28.805c-3.095 4.778-.987 6.324-.987 6.324l-.84 1.826 6.743 4.217 1.125-1.264c1.262.28 2.247-.844 2.247-.844 4.074-6.042 20.377-29.087 20.658-37.52.28-8.43-5.34-13.91-16.443-33.582M331.564 347.49c-2.023-2.628-9.306-26.097-9.306-26.097 3.234 7.69 13.352 27.919 13.352 27.919s-2.024.807-4.046-1.821zm-18.172-.237c-.695-3.517-1.576-26.965-1.576-26.965l4.9 32.759s-2.638-2.274-3.324-5.794zm-11.973 6.513s-2.228-4.454-2.022-6.478c.2-2.025 1.211-7.89 1.211-12.742v-14.569c2.024 1.416.81 33.789.81 33.789zm-10.52-15.378c-.694 1.806-4.248 7.899-6.409 11.54-1.013 1.99-1.687 2.823-1.687 2.823s.7-1.158 1.687-2.823c.769-1.502 1.722-3.641 2.766-6.681.377-1.091.846-2.438 1.387-3.935 2.938-8.213 7.715-20.953 7.715-20.953s-4.448 17.4-5.458 20.03zm68.472 38.608c-6.342-13.072-11.841-26.197-18.309-38.548-1.33-2.539-2.79-4.759-4.24-7.129-1.568-2.566-2.05-5.312-3.28-8.097-.49-1.111-1.364-2.201-1.734-3.084-.458-1.092-.567-2.495-.962-3.47-.632-1.569-2.262-3.222-3.127-4.875l.204.493-35.052-.529.833-2.808.174-2.136c-.014.13-.027.293-.04.411-.368 3.594-1.98 7.294-3.659 10.41-1.675 3.103-3.436 6.154-5.01 9.055-3.548 6.558-6.406 13.197-9.254 19.084-6.46 13.346-13.142 25.401-17.538 39.124 4.184 2.707 9.472 2.199 13.875 4.244 2.422 1.122 4.104 2.543 6.166 3.085 2.267.586 3.8-.099 5.594-.195 2.743-.154 5.76 1.007 8.867 1.343 3.24.365 6.595-.175 10.018.392.288.802.275 1.907.772 2.507 2.17-.077 4.432.609 6.555.385.896-.097 1.606-.756 2.507-.966 2.71-.64 5.368-.308 8.478-.774.68-.097 1.31-.551 1.93-.575 2.706-.106 5.633.928 8.286.575 2.276-.297 4.916-1.985 6.744-2.315 3.27-.58 5.596-.682 8.482-1.344 4.52-1.04 6.401-1.856 10.985-3.665 1.929-.757 4.948-1.66 5.204-2.888.257-1.26-2.423-5.544-3.469-7.71M308.3 263.476c5.166.097 10.949-.42 12.712 3.08-1.475 6.811-5.37 11.198-8.47 16.382-1.731-.811-2.844-3.639-4.053-6.165-1.868-3.902-4.958-10.797-.19-13.297zm19.04 39.858l.038-.35c.367-2.85 2.323-5.222 3.082-7.898.177-.627.031-1.427.19-2.122.713-2.992 2.183-5.186 1.158-8.87-2.886-.898-3.145-3.55-4.045-6.358-1.039-3.257-3.034-6.449-3.854-9.444 2.771 1.455 4.561 4.486 6.937 6.747 1.292 1.23 3.286 2.967 5.013 3.47 1.536.447 4.543-.5 4.815 1.923-1.13 1.124-2.525 1.972-3.852 2.894-.214 1.646-1.597 4.311-.774 6.936.476-2.403.141-3.615.967-5.199 1.366-2.649 6.44-2.6 4.24-7.327-1.3-1.158-2.926-.049-4.628-.383-2.322-.465-4.117-4.242-5.977-6.169a127.134 127.134 0 0 0-3.08-3.085c-4.179-4.042-9.88-8.476-18.503-7.323-2.577.343-4.055 2.085-5.398 3.666-1.514 1.775-3.08 4.065-4.818 5.394-2.851 2.178-6.368 1.37-10.603 1.735-.797 1.417-1.658 2.325-1.539 3.851.208 2.681 3.357 4.291 2.701 6.361-.364 1.121-1.44 1.66-2.507 1.543-2.183-.238-2.197-3.978-4.438-4.048.061 1.761 2.02 4.399 3.475 5.013 3.833 1.615 5.616-3.395 3.855-6.747-.603-1.145-2.02-1.667-1.931-2.89.222-3.016 5.335-1.26 8.292-1.736 1.115-.181 1.311-1.001 2.308-.581-.7 2.691-1.98 5.384-4.044 7.324-1.129 1.061-3.439 1.826-3.86 3.277-.562 1.983-.14 5.061 0 6.748.17 1.92.809 3.718 1.353 5.4.56 1.715 1.84 3.267 2.123 4.816.26 1.435.141 3.645-.024 5.522l.222-2.013 33.106-.077"/></g></svg><svg width="200.33" height="119.45" viewBox="-1 -1 187.94 112.11" id="shirtdressblack" y="147.19" xmlns="http://www.w3.org/2000/svg"><g transform="translate(-262.958 -286.595)" fill="#14191e"><path d="M358.783 314.65c-8.98-15.914-12.503-14.096-15.913-15.573-3.408-1.479-15.914-5.116-15.914-5.116s.67-.675-.81-1.639c-1.157 3.02-3.107 6.399-5.362 8.404l-1.011 5.372c2.772 15.455 3.067 28.204 3.584 43.184-1.693 2.13-4.197 5.403-6.006 7.498-2.022-2.061-4.404-5.215-6.525-7.497.85-15.027 1.513-27.892 3.826-43.185l-1.112-5.292c-2.614-2.547-3.929-5.74-4.383-8.602l-.232.104c-1.514.97-.83 1.653-.83 1.653s-12.509 3.637-15.915 5.116c-3.411 1.477-6.933-.341-15.914 15.573-8.98 15.914-13.528 20.347-13.3 27.166.227 6.822 13.414 25.464 16.711 30.352 0 0 .795.909 1.818.682l.91 1.023 5.454-3.41-.68-1.478s1.705-1.251-.797-5.116c-2.502-3.865-9.094-23.301-9.094-23.301s7.959-14.438 12.96-16.711c0 0 2.158 16.595 2.387 23.53.228 6.935-5.912 29.895-4.207 34.33 1.708 4.432 4.092 3.637 4.092 3.637l-.455 2.615s2.504 3.182 17.961 3.637h14.997c15.459-.455 17.96-3.637 17.96-3.637l-.456-2.615s2.388.795 4.094-3.637c1.705-4.435-4.434-27.395-4.207-34.33.23-6.935 2.387-23.53 2.387-23.53 5.002 2.273 12.959 16.71 12.959 16.71s-6.592 19.437-9.092 23.302c-2.503 3.865-.798 5.116-.798 5.116l-.68 1.477 5.455 3.41.91-1.022c1.022.227 1.818-.682 1.818-.682 3.296-4.888 16.484-23.53 16.711-30.352.227-6.82-4.32-11.252-13.3-27.166M423.58 356.893c-1.635-2.126-7.527-21.111-7.527-21.111 2.616 6.22 10.801 22.584 10.801 22.584s-1.637.654-3.273-1.473zm-14.7-.192c-.561-2.846-1.273-21.813-1.273-21.813l3.963 26.5s-2.134-1.84-2.69-4.687zm-9.685 5.268s-1.802-3.603-1.635-5.24c.162-1.638.98-6.382.98-10.308v-11.785c1.637 1.146.655 27.333.655 27.333zm-8.509-12.44c-.562 1.462-3.437 6.39-5.185 9.336-.82 1.61-1.364 2.283-1.364 2.283s.565-.936 1.364-2.283c.622-1.216 1.393-2.946 2.238-5.405.304-.883.684-1.972 1.121-3.183 2.377-6.644 6.241-16.95 6.241-16.95s-3.598 14.075-4.415 16.203zm55.39 31.232c-5.131-10.574-9.58-21.191-14.811-31.183-1.076-2.054-2.257-3.85-3.43-5.767-1.269-2.076-1.659-4.297-2.654-6.55-.396-.899-1.103-1.78-1.403-2.495-.37-.883-.458-2.018-.778-2.807-.51-1.269-1.83-2.606-2.529-3.943l.165.398-28.356-.428.675-2.27.14-1.729-.032.333c-.297 2.907-1.602 5.9-2.96 8.421-1.355 2.51-2.78 4.978-4.054 7.325-2.87 5.305-5.18 10.675-7.485 15.438-5.225 10.796-10.63 20.548-14.187 31.649 3.385 2.19 7.662 1.778 11.224 3.433 1.96.908 3.32 2.057 4.988 2.495 1.834.474 3.075-.08 4.525-.158 2.22-.124 4.66.815 7.173 1.087 2.62.296 5.335-.141 8.104.317.233.65.223 1.543.625 2.028 1.756-.062 3.585.493 5.302.312.725-.08 1.3-.612 2.028-.782 2.193-.518 4.343-.249 6.858-.626.551-.079 1.06-.446 1.562-.465 2.19-.086 4.557.75 6.703.465 1.841-.24 3.977-1.605 5.456-1.872 2.644-.47 4.526-.553 6.86-1.087 3.657-.842 5.18-1.502 8.887-2.965 1.56-.613 4.002-1.343 4.21-2.337.208-1.02-1.96-4.485-2.806-6.237M404.761 288.93c4.18.078 8.858-.34 10.285 2.491-1.194 5.51-4.345 9.06-6.853 13.253-1.4-.657-2.3-2.944-3.278-4.988-1.511-3.156-4.011-8.734-.154-10.756zm15.403 32.243l.031-.284c.297-2.306 1.88-4.224 2.493-6.389.144-.506.025-1.153.154-1.716.576-2.42 1.766-4.195.936-7.175-2.334-.727-2.543-2.872-3.272-5.144-.84-2.634-2.454-5.217-3.117-7.64 2.241 1.178 3.69 3.63 5.611 5.459 1.045.995 2.659 2.4 4.056 2.806 1.242.362 3.675-.403 3.894 1.556-.913.91-2.042 1.596-3.116 2.341-.173 1.332-1.291 3.488-.626 5.611.386-1.943.115-2.924.783-4.205 1.105-2.143 5.21-2.104 3.43-5.928-1.052-.936-2.368-.04-3.744-.31-1.878-.375-3.33-3.431-4.835-4.99-.804-.838-1.675-1.7-2.492-2.495-3.38-3.27-7.992-6.857-14.967-5.925-2.085.278-3.281 1.687-4.367 2.966-1.225 1.436-2.492 3.289-3.898 4.363-2.306 1.763-5.151 1.109-8.577 1.404-.645 1.147-1.34 1.88-1.245 3.115.168 2.17 2.716 3.472 2.185 5.146-.294.907-1.165 1.343-2.028 1.248-1.766-.192-1.777-3.217-3.59-3.274.05 1.425 1.634 3.558 2.81 4.055 3.101 1.306 4.544-2.747 3.12-5.458-.488-.926-1.635-1.349-1.563-2.338.18-2.44 4.316-1.02 6.708-1.404.902-.147 1.06-.81 1.867-.47-.566 2.177-1.602 4.355-3.27 5.924-.914.859-2.783 1.478-3.124 2.652-.455 1.603-.113 4.094 0 5.458.138 1.553.654 3.008 1.094 4.368.454 1.388 1.49 2.644 1.718 3.896.21 1.161.114 2.949-.019 4.468l.18-1.63 26.78-.06"/></g></svg><svg id="star" data-name="Layer 1" width="66" height="66" viewBox="-1 -1 66 66" x="209.77" y="356.46999999999997" xmlns="http://www.w3.org/2000/svg"><defs><style>.avcls-1{fill:#d4953f}</style></defs><title>star</title><path class="avcls-1" d="M32 0l-8 24H0l20 16-8 24 20-16 20 16-8-24 20-16H40z"/></svg><svg viewBox="-1 -1 65.86 65.86" width="65.86" height="65.86" id="transport-orange" x="341.77" y="356.46999999999997" xmlns="http://www.w3.org/2000/svg"><path d="M31.932 0C14.298 0 0 14.298 0 31.932c0 17.635 14.298 31.932 31.932 31.932 17.635 0 31.932-14.297 31.932-31.932C63.864 14.298 49.567 0 31.932 0zm0 7.983c10.392 0 19.17 6.694 22.484 15.966H9.448C12.763 14.677 21.54 7.983 31.932 7.983zm0 27.94a3.99 3.99 0 0 1-3.991-3.99 3.99 3.99 0 0 1 3.991-3.992 3.99 3.99 0 0 1 3.992 3.991 3.99 3.99 0 0 1-3.992 3.992zm-23.949-3.99c10.907 0 19.74 10.509 19.926 23.543C16.62 53.542 7.983 43.76 7.983 31.932zm27.973 23.543c.185-13.034 9.019-23.544 19.925-23.544 0 11.827-8.637 21.61-19.925 23.544z" fill="#030104"/><path d="M29.644 63.648C17 62.845 5.78 54.135 1.761 42.004.747 38.942.307 36.519.177 33.279c-.367-9.108 2.897-17.45 9.339-23.874C16.064 2.877 24.949-.43 34.21.213c13.564.943 25.093 10.528 28.518 23.71 3.772 14.516-3.071 29.62-16.492 36.4-3.75 1.895-7.852 3.06-11.51 3.267-.949.054-1.985.12-2.301.148-.316.028-1.568-.012-2.78-.09zm-2.087-12.596c-1.789-10.53-9.176-18.321-18.142-19.134l-1.44-.13v1.248c0 .686.131 2.014.291 2.95 1.233 7.233 5.669 13.36 12.366 17.082 1.473.819 3.417 1.558 5.454 2.074l1.737.44.057-1.144c.032-.629-.114-2.152-.323-3.386zm12.25 3.489c7.076-2.467 12.56-8.037 14.957-15.19.637-1.9 1.15-4.766 1.15-6.434l.001-1.13-1.439.131c-9.077.823-16.52 8.746-18.211 19.386-.224 1.41-.383 3.551-.308 4.154.022.181 2.161-.329 3.85-.917zm-5.991-19.035c2.553-1.309 2.928-4.862.706-6.693-2.635-2.173-6.613-.323-6.6 3.068.014 3.124 3.132 5.042 5.894 3.625zm20.067-13.11C48.405 9.572 32.923 4.147 20.66 10.76c-4.877 2.63-8.986 7.215-10.943 12.213l-.394 1.007h45.234l-.675-1.582z" fill="#d4953f"/></svg><svg id="twitter" data-name="Layer 1" width="53.78" height="44.06" viewBox="-1 -1 53.78 44.06" x="481.5" y="176.97" xmlns="http://www.w3.org/2000/svg"><defs><style>.axcls-1{fill:#fff}</style></defs><title>twitter</title><path class="axcls-1" d="M51.78 5a22.23 22.23 0 0 1-5.32 5.52v1.38a30.15 30.15 0 0 1-1.25 8.53 30.81 30.81 0 0 1-3.76 8.13 32.1 32.1 0 0 1-6.06 6.92 27 27 0 0 1-8.48 4.8 31 31 0 0 1-10.62 1.8A29.47 29.47 0 0 1 0 37.29a22.71 22.71 0 0 0 2.56.13 20.78 20.78 0 0 0 13.17-4.53 10.63 10.63 0 0 1-9.92-7.36 13.45 13.45 0 0 0 2 .16 11 11 0 0 0 2.79-.36 10.44 10.44 0 0 1-6.09-3.67 10.25 10.25 0 0 1-2.41-6.75v-.13a10.52 10.52 0 0 0 4.8 1.34 10.6 10.6 0 0 1-3.45-3.78 10.34 10.34 0 0 1-1.28-5.07 10.4 10.4 0 0 1 1.45-5.33 30.08 30.08 0 0 0 9.71 7.83A29.57 29.57 0 0 0 25.53 13a11.79 11.79 0 0 1-.26-2.43 10.23 10.23 0 0 1 3-7.48 10.64 10.64 0 0 1 15 0l.21.22A20.81 20.81 0 0 0 50.33.8a10.3 10.3 0 0 1-4.67 5.85A21.14 21.14 0 0 0 51.78 5z"/></svg><svg width="163.69" height="87.22" viewBox="-1 -1 153.58 81.89" id="wedding-date" x="281.17" y="119.45" xmlns="http://www.w3.org/2000/svg"><g transform="translate(4.068 21.1)" font-weight="400" font-family="Parisienne" letter-spacing="0" word-spacing="0" fill="#ececec"><g style="line-height:125%" font-size="45.943"><path d="M36.862 3.038q-.606.27-1.436.516-.83.247-1.75.449-.92.18-1.884.291-.965.112-1.84.112-1.682 0-3.207-.314-1.503-.336-2.647-1.054-1.122-.74-1.795-1.884-.65-1.144-.65-2.782 0-1.862.807-3.634.807-1.772 2.198-3.32 1.391-1.548 3.253-2.827 1.885-1.301 3.993-2.22 2.131-.943 4.397-1.459 2.288-.516 4.487-.516 2.22 0 4.15.471 1.952.449 3.387 1.503 1.458 1.032 2.288 2.692.853 1.66.853 4.038 0 2.064-.785 4.195-.785 2.131-2.154 4.218-1.368 2.086-3.23 4.082-1.84 1.997-3.993 3.814-2.154 1.795-4.51 3.343-2.332 1.525-4.665 2.692 1.906.83 3.79 1.458 1.885.628 3.814.628 1.369 0 2.715-.36l.314 1.123q-1.548.426-3.073.426-1.234 0-2.423-.225-1.167-.224-2.288-.583-1.122-.359-2.221-.807-1.077-.472-2.131-.943-2.378 1.077-4.577 1.638-2.176.583-4.015.583-.875 0-1.638-.157-.74-.157-1.323-.493-.561-.337-.898-.853-.314-.538-.314-1.256 0-.449.224-.965.247-.538.808-.987.56-.448 1.48-.74.92-.314 2.289-.314.964 0 1.929.18.965.156 1.907.426.942.269 1.862.628.92.359 1.84.74 2.175-1.122 4.419-2.647 2.265-1.525 4.374-3.32 2.131-1.795 3.993-3.791 1.885-2.02 3.275-4.106 1.391-2.086 2.199-4.195.807-2.13.807-4.15 0-1.951-.695-3.253-.695-1.3-1.884-2.086-1.19-.785-2.782-1.121-1.57-.337-3.343-.337-1.974 0-3.948.538-1.974.539-3.791 1.459t-3.387 2.153Q27.867-9.03 26.7-7.618 25.556-6.204 24.883-4.7q-.65 1.503-.65 2.938 0 1.369.515 2.31.538.943 1.39 1.526.876.584 1.93.853 1.077.247 2.154.247 1.234 0 2.176-.09.964-.112 1.705-.27.74-.156 1.323-.358l1.1-.382.336.965zM21.944 17.216q1.368 0 3.096-.494 1.727-.493 3.701-1.413-1.548-.65-3.028-1.1-1.48-.47-2.984-.47-.987 0-1.66.18-.673.179-1.1.47-.425.27-.605.606-.18.336-.18.628 0 .65.674 1.122.673.47 2.086.47zM77.915-13.047q-.427-.112-1.19-.291-.762-.18-2.108-.18-1.75 0-3.836.786-2.064.785-4.173 2.22-2.108 1.436-4.083 3.455-1.974 1.997-3.5 4.442Q57.5-.192 56.582 2.612q-.92 2.781-.92 5.765 0 2.086.56 3.702.584 1.615 1.593 2.714 1.032 1.1 2.446 1.66 1.435.56 3.14.56t3.388-.56q1.705-.56 3.32-1.548 1.637-1.01 3.14-2.378 1.503-1.368 2.827-2.96 1.324-1.616 2.4-3.388 1.1-1.795 1.862-3.59Q81.122.772 81.55-1q.426-1.795.426-3.432 0-1.728-.426-2.917-.427-1.21-1.167-1.974-.718-.762-1.66-1.099-.92-.336-1.93-.336-1.749 0-3.476 1.032-1.705 1.01-3.253 3.028l-.965-.74q1.728-2.221 3.657-3.365 1.952-1.144 3.993-1.144 1.368 0 2.535.516 1.189.493 2.041 1.48.853.965 1.324 2.378.493 1.413.493 3.253 0 1.817-.47 3.769-.45 1.929-1.28 3.858-.83 1.93-2.018 3.791-1.167 1.862-2.58 3.522-1.413 1.66-3.051 3.074-1.615 1.39-3.365 2.423-1.75 1.009-3.59 1.592-1.816.561-3.633.561-2.4 0-4.285-.852-1.862-.853-3.163-2.289-1.279-1.458-1.952-3.342-.673-1.907-.673-4.016 0-2.871.785-5.653.785-2.781 2.199-5.272 1.435-2.49 3.41-4.598 1.974-2.109 4.352-3.634 2.377-1.548 5.07-2.4 2.714-.876 5.608-.876.964 0 2.019.225 1.076.202 1.794.493l-.403.897zM103.645-13.405L88.01 18l-2.58-1.167q1.773-3.342 3.231-6.124 1.48-2.782 2.714-5.115 1.234-2.355 2.266-4.33 1.054-1.973 1.997-3.7.942-1.728 1.794-3.253.875-1.526 1.75-2.984-1.525 1.413-3.096 2.67-1.548 1.256-3.006 2.333-1.458 1.054-2.759 1.906-1.279.853-2.243 1.458-.942.584-1.503.92-.561.314-.584.314l-.56-1.032q.022-.022.875-.493.852-.494 2.22-1.391 1.391-.897 3.186-2.154 1.795-1.256 3.701-2.804 1.907-1.548 3.77-3.342 1.883-1.795 3.476-3.747l.987.629zM126.64.1q2.332-1.078 3.97-2.446 1.66-1.368 2.692-2.961 1.054-1.615 1.525-3.387.494-1.795.494-3.702 0-1.817-.583-3.208-.561-1.413-1.616-2.355-1.032-.965-2.49-1.459-1.435-.493-3.185-.493-3.298 0-5.653 1.503-2.333 1.48-3.814 4.195-1.48 2.692-2.131 6.483-.65 3.769-.56 8.345 2.624-1.144 5.047-2.333 2.422-1.189 4.419-2.602 2.019-1.436 3.5-3.186 1.502-1.75 2.265-4.015l1.032.27q-.83 2.803-2.423 4.957-1.592 2.131-3.724 3.858-2.13 1.705-4.733 3.119-2.58 1.413-5.429 2.781-.202 4.487-1.189 8.21-.987 3.702-2.58 6.35-1.57 2.669-3.656 4.127-2.086 1.48-4.464 1.48-1.369 0-2.49-.47-1.1-.45-1.862-1.28-.786-.807-1.212-1.95-.426-1.123-.426-2.49 0-2.895 1.324-5.25 1.3-2.356 3.566-4.33 2.289-1.974 5.317-3.612 3.051-1.637 6.506-3.118-.068-5.563.785-9.736.875-4.172 2.602-6.932 1.727-2.781 4.262-4.172 2.535-1.391 5.788-1.391 2.064 0 3.903.65 1.84.651 3.208 1.818 1.391 1.166 2.176 2.804.808 1.637.808 3.59 0 2.332-.875 4.396t-2.355 3.769q-1.48 1.705-3.41 3.006-1.93 1.3-4.038 2.064l-.292-.898zm-23.264 22.343q2.176 0 4.016-1.391 1.862-1.391 3.252-3.836 1.391-2.468 2.244-5.833.875-3.365 1.121-7.313-3.41 1.615-5.81 3.14-2.378 1.504-3.993 2.894-1.593 1.391-2.535 2.625-.92 1.234-1.39 2.31-.45 1.078-.561 1.952-.135.875-.135 1.526 0 .628.202 1.301.18.695.605 1.279.45.583 1.167.964.74.382 1.817.382z" style="-inkscape-font-specification:Parisienne"/></g><g style="line-height:125%" font-size="40"><path d="M23.276 32.227q.039-.059.156-.645.137-.586.137-1.426 0-1.172-.41-2.129-.391-.976-1.114-1.66-.722-.703-1.718-1.074-.996-.39-2.168-.39-1.602 0-3.34.585-1.719.567-3.457 1.602-1.719 1.035-3.399 2.48-1.68 1.446-3.203 3.184-1.504 1.738-2.793 3.73-1.27 1.973-2.207 4.082-.918 2.09-1.445 4.258t-.527 4.297q0 1.934.37 3.496.391 1.543 1.173 2.637.78 1.113 1.992 1.7 1.21.585 2.89.585 2.012 0 3.907-.84 1.914-.82 3.574-2.207 1.66-1.367 3.027-3.125 1.387-1.777 2.383-3.652.996-1.895 1.543-3.75.547-1.856.547-3.399 0-1.425-.45-2.578-.43-1.172-1.25-1.972-.82-.82-1.992-1.25-1.171-.45-2.636-.45-1.582 0-3.282.508-1.68.508-3.32 1.582-1.64 1.075-3.125 2.754-1.484 1.68-2.637 4.024l-.918-.45q1.23-2.5 2.832-4.277 1.622-1.797 3.399-2.95 1.797-1.151 3.652-1.679 1.856-.547 3.555-.547 1.758 0 3.223.586 1.484.586 2.539 1.7 1.074 1.093 1.66 2.714.605 1.602.605 3.653 0 1.718-.586 3.632-.566 1.915-1.601 3.79-1.035 1.875-2.5 3.593-1.465 1.7-3.262 2.989-1.777 1.308-3.828 2.07-2.05.781-4.277.781-2.032 0-3.711-.683-1.66-.684-2.852-2.012-1.191-1.328-1.855-3.301-.645-1.992-.645-4.59 0-3.008.879-5.976.898-2.989 2.422-5.704 1.543-2.714 3.594-5.058 2.07-2.344 4.433-4.063 2.363-1.718 4.903-2.695 2.558-.976 5.058-.976 1.953 0 3.34.546 1.406.547 2.285 1.446.899.898 1.309 2.07.41 1.172.41 2.422 0 .566-.078 1.152t-.235 1.172l-.976-.312zM61.186 28.418q-.02-.039-.273-.43-.254-.39-.86-.84-.605-.449-1.62-.8-1.017-.371-2.54-.371-2.422 0-4.785.957-2.344.937-4.473 2.578-2.129 1.64-3.945 3.847-1.797 2.188-3.125 4.688-1.328 2.48-2.07 5.137-.743 2.636-.743 5.175 0 1.778.547 3.282.567 1.504 1.602 2.578 1.055 1.094 2.558 1.699 1.504.625 3.418.625 1.68 0 3.34-.488 1.68-.489 3.262-1.367 1.582-.88 3.027-2.09 1.465-1.23 2.735-2.657 1.27-1.445 2.304-3.046 1.036-1.622 1.778-3.301.742-1.68 1.133-3.38.41-1.698.41-3.3 0-1.68-.45-2.969-.449-1.289-1.25-2.148-.8-.879-1.914-1.309-1.093-.449-2.402-.449-1.27 0-2.539.469-1.27.45-2.441 1.289-1.153.82-2.168 1.953-.996 1.133-1.739 2.48-.742 1.329-1.172 2.852-.41 1.504-.41 3.066 0 1.192.293 2.208.293.996.782 1.777.488.781 1.113 1.308.644.508 1.328.704l-.176.82q-.976-.137-1.992-.645-.996-.507-1.816-1.386-.801-.899-1.329-2.188-.507-1.308-.507-3.008 0-1.601.468-3.164.47-1.582 1.309-2.988.86-1.426 2.031-2.617 1.172-1.211 2.578-2.07 1.426-.88 3.028-1.368 1.62-.508 3.32-.508 1.621 0 2.93.567 1.308.547 2.226 1.582.918 1.016 1.406 2.48.508 1.465.508 3.282 0 1.718-.43 3.535-.41 1.797-1.19 3.574-.763 1.758-1.856 3.457-1.094 1.68-2.422 3.184-1.328 1.504-2.871 2.754-1.524 1.27-3.203 2.187-1.68.918-3.457 1.426-1.778.508-3.575.508-2.09 0-3.945-.703-1.855-.684-3.242-2.032-1.367-1.347-2.168-3.3-.8-1.973-.8-4.512 0-2.832.722-5.567.742-2.734 2.07-5.175 1.348-2.461 3.223-4.532 1.875-2.07 4.16-3.574t4.922-2.344q2.637-.859 5.488-.859 1.328 0 2.344.215 1.015.215 1.758.547.761.312 1.27.703.507.37.82.722.312.333.449.567.136.234.156.273l-.918.43zM66.987 46.152q1.015-1.406 2.148-2.695 1.153-1.309 2.324-2.305 1.172-1.015 2.364-1.62 1.191-.606 2.324-.606.703 0 1.152.215.45.215.703.547.274.332.371.761.118.41.118.82 0 .587-.235 1.27-.215.684-.683 1.387-.45.683-1.153 1.328-.703.625-1.68 1.133.216.508.216 1.23 0 .45-.118.918-.117.45-.254.899-.136.449-.253.918-.118.449-.118.918 0 .234.02.449.039.215.117.39.098.176.273.293.196.098.528.098.39 0 .898-.312.508-.332 1.074-.86.567-.527 1.153-1.21.605-.704 1.172-1.466.566-.761 1.093-1.504.528-.761.957-1.425l.723.547q-.996 1.484-1.953 2.832-.937 1.347-1.895 2.363-.937 1.016-1.914 1.621-.976.605-2.011.605-.41 0-.86-.117-.43-.117-.8-.39-.352-.254-.586-.684-.235-.43-.235-1.055 0-.742.371-1.738.332-.937.489-1.562.156-.645.175-1.075-.41.098-.879.176-.449.078-.859.078-.215 0-.469-.039-.254-.058-.468-.176-.215-.117-.371-.293-.137-.195-.137-.488t.176-.547q.195-.273.507-.468.332-.215.782-.332.449-.118.996-.118 1.015 0 1.738.547.703-.547 1.152-1.191.47-.645.723-1.25.254-.606.352-1.074.097-.489.097-.723 0-.645-.234-.879-.235-.254-.567-.254-.625 0-1.406.41-.762.41-1.601 1.114-.82.703-1.7 1.62-.859.919-1.699 1.934-.82 1.016-1.601 2.051-.762 1.035-1.407 1.953-.586.977-1.054 1.817-.45.84-.762 1.445-.313.605-.488.918-.176.312-.196.215l-1.933-.508q2.304-5.254 4.668-10.508 2.363-5.254 4.98-10.625.39-.781.88-1.7.507-.937 1.073-1.855.586-.937 1.23-1.816.665-.879 1.348-1.543.704-.684 1.426-1.074.723-.41 1.446-.41.761 0 1.23.43.488.429.488 1.366 0 1.29-.703 3.145-.683 1.836-2.05 3.906-1.368 2.07-3.419 4.2-2.03 2.109-4.746 3.925l-2.558 5.703zm3.418-7.578q2.363-1.836 4.062-3.77 1.719-1.952 2.813-3.75 1.113-1.796 1.62-3.32.528-1.543.528-2.578 0-.293-.156-.468-.156-.176-.488-.176-.723 0-1.485.722-.761.704-1.738 2.344-.957 1.64-2.207 4.336-1.25 2.695-2.95 6.66zm2.5 7.617q-.098-.214-.332-.37-.215-.176-.489-.176-.566 0-.996.234-.43.234-.43.45 0 .155.176.214.196.04.352.04.508 0 .937-.118.43-.117.782-.274z" style="-inkscape-font-specification:Parisienne"/><path d="M85.483 36.895q.195-.332.683-1.153.508-.82 1.172-1.816.684-.996 1.465-1.992.8-1.016 1.563-1.72l.879.528q-.84 1.387-1.72 2.95-.878 1.542-1.737 3.203h6.367l-.39 1.015H87.26q-.879 1.758-1.66 3.496-.762 1.739-1.348 3.32-.586 1.583-.918 2.97-.332 1.367-.332 2.382 0 1.27.586 1.836.586.547 1.446.547.761 0 1.562-.45.8-.468 1.563-1.171.78-.703 1.464-1.543.704-.84 1.23-1.582.548-.742.9-1.29.35-.566.43-.702l.722.547q-.684 1.132-1.543 2.402-.86 1.27-1.914 2.363-1.035 1.074-2.266 1.797-1.23.703-2.656.703-.88 0-1.543-.312-.645-.313-1.094-.86-.45-.566-.664-1.328-.234-.762-.234-1.66 0-.586.195-1.66.176-1.074.625-2.54.45-1.484 1.191-3.32.762-1.835 1.914-3.945h-3.242l.39-1.015h3.419z" style="-inkscape-font-specification:Parisienne"/><path d="M103.237 47.695q.078.02.156.02h.176q.547 0 .996-.098.45-.117.82-.351.39-.235.742-.606.352-.39.684-.937l.703.547q-.937 1.328-1.933 1.855-.997.527-2.11.527-.41 0-.723-.078-.84 1.407-1.796 2.403-.957.976-1.954 1.601-.996.625-1.972.899-.977.293-1.817.293-.859 0-1.601-.313-.723-.293-1.25-.86-.527-.566-.82-1.347-.293-.781-.293-1.758 0-.976.312-1.992.313-1.016.84-2.012.547-.996 1.27-1.914.722-.937 1.562-1.738.84-.8 1.738-1.445.899-.645 1.797-1.055l.625.82q-1.035.742-2.11 1.875-1.054 1.133-1.933 2.48-.86 1.348-1.426 2.813-.547 1.446-.547 2.813 0 1.23.547 1.914.547.664 1.66.664.86 0 1.7-.352.84-.351 1.64-.957.801-.605 1.543-1.425.743-.84 1.407-1.778-.567-.332-.997-.879-.43-.566-.722-1.27-.293-.722-.45-1.542-.136-.82-.136-1.68t.215-1.621q.215-.762.586-1.328.39-.586.898-.918.508-.332 1.113-.332.547 0 .977.293.43.273.723.781.293.488.449 1.172.156.684.156 1.465 0 .586-.098 1.289-.097.703-.293 1.426-.175.703-.449 1.406-.254.683-.605 1.23zm-2.656-4.863q0 .566.097 1.23.098.665.313 1.29t.547 1.171q.332.528.82.84.351-.683.586-1.386.254-.723.41-1.387.176-.664.234-1.23.078-.587.078-1.016 0-.586-.097-1.074-.098-.489-.274-.84-.156-.371-.41-.567-.234-.215-.527-.215-.39 0-.723.274-.332.254-.566.703-.235.43-.371 1.016-.118.566-.118 1.191z" style="-inkscape-font-specification:Parisienne"/><path d="M117.963 44.14q-.742-.175-1.289-.488-.527-.332-.86-.742-.331-.41-.487-.86-.157-.468-.157-.917 0-.977.547-1.504.547-.547 1.367-.547.547 0 .938.293.39.273.644.742t.372 1.094q.117.605.117 1.27 0 .449-.04.898-.038.43-.136.879-.469 2.11-1.387 3.828-.898 1.7-2.05 2.93-1.133 1.21-2.422 1.875-1.29.644-2.52.644-.84 0-1.602-.234-.742-.235-1.328-.781-.566-.547-.898-1.426-.332-.899-.332-2.207 0-1.621.625-3.867.644-2.247 2.168-5.274 2.187-4.238 4.394-7.598.938-1.425 1.973-2.792 1.035-1.368 2.07-2.442 1.055-1.074 2.07-1.719 1.036-.664 1.954-.664.117 0 .41.04.312.038.625.214.312.156.547.508.254.332.254.938 0 .722-.39 1.835-.372 1.094-1.134 2.442-.742 1.328-1.855 2.851-1.094 1.504-2.54 3.028-1.425 1.523-3.183 2.988-1.738 1.465-3.789 2.734-.684 1.485-1.152 2.696-.45 1.191-.723 2.168-.273.957-.39 1.699-.118.742-.118 1.289 0 .762.196 1.27.214.488.566.78.352.274.8.391.45.118.938.118.918 0 1.778-.47.878-.468 1.66-1.21.781-.762 1.426-1.7.664-.937 1.152-1.855.488-.937.8-1.758.313-.84.391-1.386zm-6.504-3.808q1.797-1.23 3.301-2.598 1.524-1.367 2.754-2.734 1.23-1.387 2.168-2.695.938-1.328 1.563-2.48.625-1.153.937-2.052.332-.917.332-1.484 0-.508-.371-.508-.703 0-1.7.762-.976.762-2.284 2.48-1.29 1.72-2.97 4.493-1.66 2.773-3.73 6.816zm6.641 2.793q.02-.176.02-.352.019-.175.019-.332 0-1.054-.273-1.699-.274-.644-.782-.644-.117 0-.273.039-.137.02-.293.136-.137.098-.234.293-.098.196-.098.508 0 .801.547 1.328.566.508 1.367.723zM122.377 48.555q-.039.234-.058.468-.02.235-.02.47 0 .702.196 1.347.214.625.605 1.113.41.469.996.742.606.274 1.367.274 2.559 0 4.942-1.738 2.383-1.739 4.746-5.508l.664.586q-1.29 2.148-2.617 3.632-1.328 1.465-2.657 2.383-1.308.918-2.578 1.328-1.27.41-2.422.41-.84 0-1.777-.234-.937-.234-1.738-.781-.781-.547-1.29-1.465-.527-.918-.527-2.285 0-1.465.508-2.813.489-1.367 1.29-2.539.8-1.172 1.835-2.129 1.035-.976 2.09-1.66 1.074-.683 2.09-1.054 1.016-.391 1.797-.391.508 0 1.035.156.527.156.937.489.43.332.684.878.274.547.274 1.309 0 1.035-.489 1.953-.469.899-1.27 1.68-.8.762-1.855 1.387-1.054.605-2.207 1.035-1.152.43-2.324.683-1.172.254-2.227.274zm.157-.84q1.308-.137 2.46-.547 1.153-.41 2.11-.996.957-.606 1.7-1.309.76-.703 1.269-1.425.508-.723.781-1.387t.273-1.192q0-.527-.293-.84-.273-.312-.664-.312-.859 0-1.933.625-1.074.606-2.149 1.7-1.074 1.074-2.03 2.538-.938 1.465-1.524 3.145z" style="-inkscape-font-specification:Parisienne"/><path d="M147.514 46.27q-.293.43-.703 1.171-.39.723-.918 1.582-.527.84-1.172 1.72-.625.878-1.387 1.581-.742.703-1.62 1.153-.88.449-1.876.449-.547 0-1.035-.176-.488-.156-.86-.508-.37-.351-.585-.86-.215-.526-.215-1.23 0-.957.371-1.992.39-1.054.899-2.031.507-.977 1.015-1.777.508-.82.742-1.309.235-.488.235-.84 0-.254-.176-.449-.156-.195-.41-.371-.235-.195-.508-.39-.254-.216-.43-.509-.488.782-.996 1.582-.449.684-.976 1.543-.528.84-1.016 1.66l-.703-.546 4.18-6.543.566.293q-.04.117-.137.37-.078.255-.078.548 0 .215.059.43.078.195.293.37.781.704 1.23 1.094.45.371.645.606.215.215.254.37.058.137.058.372 0 .234-.078.566-.078.332-.273.801-.176.469-.508 1.113-.313.625-.8 1.465-.294.508-.587 1.035-.273.508-.508 1.035-.214.528-.351 1.055-.137.528-.137 1.016 0 .37.098.605.117.215.293.332.176.117.37.157.216.039.411.039.645 0 1.27-.371.644-.391 1.25-.997.625-.605 1.19-1.367.587-.781 1.114-1.582.528-.8.977-1.523.449-.742.8-1.29l.723.548z" style="-inkscape-font-specification:Parisienne"/></g></g></svg><svg id="wifi" data-name="Layer 1" width="62" height="66" viewBox="-1 -1 62 66" x="280.25" y="266.64" xmlns="http://www.w3.org/2000/svg"><defs><style>.azcls-1{fill:#d4953e}</style></defs><title>wifi</title><path class="azcls-1" d="M29.88 0A55.39 55.39 0 0 0 0 8.72l4.22 6.48a47.32 47.32 0 0 1 25.66-7.28 47.31 47.31 0 0 1 25.9 7.28L60 8.72A55.53 55.53 0 0 0 29.88 0zm0 24a31.08 31.08 0 0 0-17 5l4.22 6.72A23.09 23.09 0 0 1 29.8 32a24.17 24.17 0 0 1 13 3.76L47 29a32.37 32.37 0 0 0-17.2-5h.07zm0 24a8 8 0 1 0 8 8 8 8 0 0 0-8-8z"/></svg><svg id="youtube" data-name="Layer 1" width="36.75" height="44" viewBox="-1 -1 36.75 44" x="504.73" y="221.03" xmlns="http://www.w3.org/2000/svg"><defs><style>.bacls-1{fill:#fff}</style></defs><title>youtube</title><path class="bacls-1" d="M22.13 29.15v5q0 1.57-.91 1.57a1.5 1.5 0 0 1-1.06-.52v-7.11a1.5 1.5 0 0 1 1.06-.54q.91 0 .91 1.6zm7.92 0v1.08h-2.1v-1.06q0-1.59 1.06-1.59t1 1.59zM7.42 24h2.5v-2.14h-7.3v2.2h2.46V37.4h2.34V24zm6.75 13.4h2.09V25.82h-2.09v8.86a1.86 1.86 0 0 1-1.31 1 .48.48 0 0 1-.49-.47 6.52 6.52 0 0 1 0-.82v-8.57h-2.14V35a5.79 5.79 0 0 0 .19 1.71 1.26 1.26 0 0 0 1.36.87 3.43 3.43 0 0 0 2.39-1.43v1.25zm10.05-3.47v-4.6A8.33 8.33 0 0 0 24 27a1.63 1.63 0 0 0-1.67-1.31A2.82 2.82 0 0 0 20.16 27v-5.1h-2.08v15.5h2.09v-1.13a2.91 2.91 0 0 0 2.18 1.31A1.62 1.62 0 0 0 24 36.27a8.61 8.61 0 0 0 .22-2.35zm7.92-.24v-.3H30a11.6 11.6 0 0 1 0 1.43.9.9 0 0 1-.94.85q-1.08 0-1.08-1.61V32h4.19v-2.41a4.65 4.65 0 0 0-.66-2.72 3.2 3.2 0 0 0-5 0 4.52 4.52 0 0 0-.66 2.72v4.05a4.4 4.4 0 0 0 .66 2.72 3 3 0 0 0 2.49 1.2 2.9 2.9 0 0 0 3-2.51 10.31 10.31 0 0 0 .09-1.36zM17.89 12.3V7.38q0-1.61-1-1.61t-1 1.61v4.92q0 1.64 1 1.64t1-1.64zm16.85 17.6a40.6 40.6 0 0 1-.61 8.2 4.45 4.45 0 0 1-1.36 2.32 4.1 4.1 0 0 1-2.39 1.08 125.31 125.31 0 0 1-13 .49 125.31 125.31 0 0 1-13-.49A4.15 4.15 0 0 1 2 40.42 4.28 4.28 0 0 1 .63 38.1 39.76 39.76 0 0 1 0 29.9a40.6 40.6 0 0 1 .61-8.2A4.45 4.45 0 0 1 2 19.37a4.25 4.25 0 0 1 2.41-1.1q4.29-.47 13-.47t13 .47a4.4 4.4 0 0 1 3.75 3.42 39.76 39.76 0 0 1 .58 8.21zM11.35 0h2.39l-2.83 9.35v6.35H8.57V9.35a39.68 39.68 0 0 0-1.43-5Q6.27 2 5.61 0H8.1l1.67 6.16zM20 7.8v4.1a4.59 4.59 0 0 1-.66 2.76 2.88 2.88 0 0 1-2.49 1.19 2.9 2.9 0 0 1-2.46-1.19 4.68 4.68 0 0 1-.66-2.76V7.8a4.59 4.59 0 0 1 .66-2.74 2.9 2.9 0 0 1 2.46-1.19 2.88 2.88 0 0 1 2.49 1.19A4.59 4.59 0 0 1 20 7.8zM27.87 4v11.7h-2.13v-1.27a3.37 3.37 0 0 1-2.41 1.45A1.31 1.31 0 0 1 22 15a6 6 0 0 1-.19-1.76V4h2.13v8.6a6.14 6.14 0 0 0 0 .82.49.49 0 0 0 .47.52 1.87 1.87 0 0 0 1.31-1V4h2.16z"/></svg></svg>