<?xml version="1.0" encoding="UTF-8" standalone="no"?><svg width="328" height="281" viewBox="0 0 328 281" xmlns="http://www.w3.org/2000/svg" xmlns:xlink="http://www.w3.org/1999/xlink"><svg width="163.69" height="87.22" viewBox="-1 -1 153.58 81.89" id="clear-view-escapes" xmlns="http://www.w3.org/2000/svg"><g transform="translate(4.068 21.1)" font-weight="400" font-family="Parisienne" letter-spacing="0" word-spacing="0" fill="#ececec"><g style="line-height:125%" font-size="45.943"><path d="M36.862 3.038q-.606.27-1.436.516-.83.247-1.75.449-.92.18-1.884.291-.965.112-1.84.112-1.682 0-3.207-.314-1.503-.336-2.647-1.054-1.122-.74-1.795-1.884-.65-1.144-.65-2.782 0-1.862.807-3.634.807-1.772 2.198-3.32 1.391-1.548 3.253-2.827 1.885-1.301 3.993-2.22 2.131-.943 4.397-1.459 2.288-.516 4.487-.516 2.22 0 4.15.471 1.952.449 3.387 1.503 1.458 1.032 2.288 2.692.853 1.66.853 4.038 0 2.064-.785 4.195-.785 2.131-2.154 4.218-1.368 2.086-3.23 4.082-1.84 1.997-3.993 3.814-2.154 1.795-4.51 3.343-2.332 1.525-4.665 2.692 1.906.83 3.79 1.458 1.885.628 3.814.628 1.369 0 2.715-.36l.314 1.123q-1.548.426-3.073.426-1.234 0-2.423-.225-1.167-.224-2.288-.583-1.122-.359-2.221-.807-1.077-.472-2.131-.943-2.378 1.077-4.577 1.638-2.176.583-4.015.583-.875 0-1.638-.157-.74-.157-1.323-.493-.561-.337-.898-.853-.314-.538-.314-1.256 0-.449.224-.965.247-.538.808-.987.56-.448 1.48-.74.92-.314 2.289-.314.964 0 1.929.18.965.156 1.907.426.942.269 1.862.628.92.359 1.84.74 2.175-1.122 4.419-2.647 2.265-1.525 4.374-3.32 2.131-1.795 3.993-3.791 1.885-2.02 3.275-4.106 1.391-2.086 2.199-4.195.807-2.13.807-4.15 0-1.951-.695-3.253-.695-1.3-1.884-2.086-1.19-.785-2.782-1.121-1.57-.337-3.343-.337-1.974 0-3.948.538-1.974.539-3.791 1.459t-3.387 2.153Q27.867-9.03 26.7-7.618 25.556-6.204 24.883-4.7q-.65 1.503-.65 2.938 0 1.369.515 2.31.538.943 1.39 1.526.876.584 1.93.853 1.077.247 2.154.247 1.234 0 2.176-.09.964-.112 1.705-.27.74-.156 1.323-.358l1.1-.382.336.965zM21.944 17.216q1.368 0 3.096-.494 1.727-.493 3.701-1.413-1.548-.65-3.028-1.1-1.48-.47-2.984-.47-.987 0-1.66.18-.673.179-1.1.47-.425.27-.605.606-.18.336-.18.628 0 .65.674 1.122.673.47 2.086.47zM77.915-13.047q-.427-.112-1.19-.291-.762-.18-2.108-.18-1.75 0-3.836.786-2.064.785-4.173 2.22-2.108 1.436-4.083 3.455-1.974 1.997-3.5 4.442Q57.5-.192 56.582 2.612q-.92 2.781-.92 5.765 0 2.086.56 3.702.584 1.615 1.593 2.714 1.032 1.1 2.446 1.66 1.435.56 3.14.56t3.388-.56q1.705-.56 3.32-1.548 1.637-1.01 3.14-2.378 1.503-1.368 2.827-2.96 1.324-1.616 2.4-3.388 1.1-1.795 1.862-3.59Q81.122.772 81.55-1q.426-1.795.426-3.432 0-1.728-.426-2.917-.427-1.21-1.167-1.974-.718-.762-1.66-1.099-.92-.336-1.93-.336-1.749 0-3.476 1.032-1.705 1.01-3.253 3.028l-.965-.74q1.728-2.221 3.657-3.365 1.952-1.144 3.993-1.144 1.368 0 2.535.516 1.189.493 2.041 1.48.853.965 1.324 2.378.493 1.413.493 3.253 0 1.817-.47 3.769-.45 1.929-1.28 3.858-.83 1.93-2.018 3.791-1.167 1.862-2.58 3.522-1.413 1.66-3.051 3.074-1.615 1.39-3.365 2.423-1.75 1.009-3.59 1.592-1.816.561-3.633.561-2.4 0-4.285-.852-1.862-.853-3.163-2.289-1.279-1.458-1.952-3.342-.673-1.907-.673-4.016 0-2.871.785-5.653.785-2.781 2.199-5.272 1.435-2.49 3.41-4.598 1.974-2.109 4.352-3.634 2.377-1.548 5.07-2.4 2.714-.876 5.608-.876.964 0 2.019.225 1.076.202 1.794.493l-.403.897zM103.645-13.405L88.01 18l-2.58-1.167q1.773-3.342 3.231-6.124 1.48-2.782 2.714-5.115 1.234-2.355 2.266-4.33 1.054-1.973 1.997-3.7.942-1.728 1.794-3.253.875-1.526 1.75-2.984-1.525 1.413-3.096 2.67-1.548 1.256-3.006 2.333-1.458 1.054-2.759 1.906-1.279.853-2.243 1.458-.942.584-1.503.92-.561.314-.584.314l-.56-1.032q.022-.022.875-.493.852-.494 2.22-1.391 1.391-.897 3.186-2.154 1.795-1.256 3.701-2.804 1.907-1.548 3.77-3.342 1.883-1.795 3.476-3.747l.987.629zM126.64.1q2.332-1.078 3.97-2.446 1.66-1.368 2.692-2.961 1.054-1.615 1.525-3.387.494-1.795.494-3.702 0-1.817-.583-3.208-.561-1.413-1.616-2.355-1.032-.965-2.49-1.459-1.435-.493-3.185-.493-3.298 0-5.653 1.503-2.333 1.48-3.814 4.195-1.48 2.692-2.131 6.483-.65 3.769-.56 8.345 2.624-1.144 5.047-2.333 2.422-1.189 4.419-2.602 2.019-1.436 3.5-3.186 1.502-1.75 2.265-4.015l1.032.27q-.83 2.803-2.423 4.957-1.592 2.131-3.724 3.858-2.13 1.705-4.733 3.119-2.58 1.413-5.429 2.781-.202 4.487-1.189 8.21-.987 3.702-2.58 6.35-1.57 2.669-3.656 4.127-2.086 1.48-4.464 1.48-1.369 0-2.49-.47-1.1-.45-1.862-1.28-.786-.807-1.212-1.95-.426-1.123-.426-2.49 0-2.895 1.324-5.25 1.3-2.356 3.566-4.33 2.289-1.974 5.317-3.612 3.051-1.637 6.506-3.118-.068-5.563.785-9.736.875-4.172 2.602-6.932 1.727-2.781 4.262-4.172 2.535-1.391 5.788-1.391 2.064 0 3.903.65 1.84.651 3.208 1.818 1.391 1.166 2.176 2.804.808 1.637.808 3.59 0 2.332-.875 4.396t-2.355 3.769q-1.48 1.705-3.41 3.006-1.93 1.3-4.038 2.064l-.292-.898zm-23.264 22.343q2.176 0 4.016-1.391 1.862-1.391 3.252-3.836 1.391-2.468 2.244-5.833.875-3.365 1.121-7.313-3.41 1.615-5.81 3.14-2.378 1.504-3.993 2.894-1.593 1.391-2.535 2.625-.92 1.234-1.39 2.31-.45 1.078-.561 1.952-.135.875-.135 1.526 0 .628.202 1.301.18.695.605 1.279.45.583 1.167.964.74.382 1.817.382z" style="-inkscape-font-specification:Parisienne"/></g><g style="line-height:125%" font-size="40"><path d="M23.276 32.227q.039-.059.156-.645.137-.586.137-1.426 0-1.172-.41-2.129-.391-.976-1.114-1.66-.722-.703-1.718-1.074-.996-.39-2.168-.39-1.602 0-3.34.585-1.719.567-3.457 1.602-1.719 1.035-3.399 2.48-1.68 1.446-3.203 3.184-1.504 1.738-2.793 3.73-1.27 1.973-2.207 4.082-.918 2.09-1.445 4.258t-.527 4.297q0 1.934.37 3.496.391 1.543 1.173 2.637.78 1.113 1.992 1.7 1.21.585 2.89.585 2.012 0 3.907-.84 1.914-.82 3.574-2.207 1.66-1.367 3.027-3.125 1.387-1.777 2.383-3.652.996-1.895 1.543-3.75.547-1.856.547-3.399 0-1.425-.45-2.578-.43-1.172-1.25-1.972-.82-.82-1.992-1.25-1.171-.45-2.636-.45-1.582 0-3.282.508-1.68.508-3.32 1.582-1.64 1.075-3.125 2.754-1.484 1.68-2.637 4.024l-.918-.45q1.23-2.5 2.832-4.277 1.622-1.797 3.399-2.95 1.797-1.151 3.652-1.679 1.856-.547 3.555-.547 1.758 0 3.223.586 1.484.586 2.539 1.7 1.074 1.093 1.66 2.714.605 1.602.605 3.653 0 1.718-.586 3.632-.566 1.915-1.601 3.79-1.035 1.875-2.5 3.593-1.465 1.7-3.262 2.989-1.777 1.308-3.828 2.07-2.05.781-4.277.781-2.032 0-3.711-.683-1.66-.684-2.852-2.012-1.191-1.328-1.855-3.301-.645-1.992-.645-4.59 0-3.008.879-5.976.898-2.989 2.422-5.704 1.543-2.714 3.594-5.058 2.07-2.344 4.433-4.063 2.363-1.718 4.903-2.695 2.558-.976 5.058-.976 1.953 0 3.34.546 1.406.547 2.285 1.446.899.898 1.309 2.07.41 1.172.41 2.422 0 .566-.078 1.152t-.235 1.172l-.976-.312zM61.186 28.418q-.02-.039-.273-.43-.254-.39-.86-.84-.605-.449-1.62-.8-1.017-.371-2.54-.371-2.422 0-4.785.957-2.344.937-4.473 2.578-2.129 1.64-3.945 3.847-1.797 2.188-3.125 4.688-1.328 2.48-2.07 5.137-.743 2.636-.743 5.175 0 1.778.547 3.282.567 1.504 1.602 2.578 1.055 1.094 2.558 1.699 1.504.625 3.418.625 1.68 0 3.34-.488 1.68-.489 3.262-1.367 1.582-.88 3.027-2.09 1.465-1.23 2.735-2.657 1.27-1.445 2.304-3.046 1.036-1.622 1.778-3.301.742-1.68 1.133-3.38.41-1.698.41-3.3 0-1.68-.45-2.969-.449-1.289-1.25-2.148-.8-.879-1.914-1.309-1.093-.449-2.402-.449-1.27 0-2.539.469-1.27.45-2.441 1.289-1.153.82-2.168 1.953-.996 1.133-1.739 2.48-.742 1.329-1.172 2.852-.41 1.504-.41 3.066 0 1.192.293 2.208.293.996.782 1.777.488.781 1.113 1.308.644.508 1.328.704l-.176.82q-.976-.137-1.992-.645-.996-.507-1.816-1.386-.801-.899-1.329-2.188-.507-1.308-.507-3.008 0-1.601.468-3.164.47-1.582 1.309-2.988.86-1.426 2.031-2.617 1.172-1.211 2.578-2.07 1.426-.88 3.028-1.368 1.62-.508 3.32-.508 1.621 0 2.93.567 1.308.547 2.226 1.582.918 1.016 1.406 2.48.508 1.465.508 3.282 0 1.718-.43 3.535-.41 1.797-1.19 3.574-.763 1.758-1.856 3.457-1.094 1.68-2.422 3.184-1.328 1.504-2.871 2.754-1.524 1.27-3.203 2.187-1.68.918-3.457 1.426-1.778.508-3.575.508-2.09 0-3.945-.703-1.855-.684-3.242-2.032-1.367-1.347-2.168-3.3-.8-1.973-.8-4.512 0-2.832.722-5.567.742-2.734 2.07-5.175 1.348-2.461 3.223-4.532 1.875-2.07 4.16-3.574t4.922-2.344q2.637-.859 5.488-.859 1.328 0 2.344.215 1.015.215 1.758.547.761.312 1.27.703.507.37.82.722.312.333.449.567.136.234.156.273l-.918.43zM66.987 46.152q1.015-1.406 2.148-2.695 1.153-1.309 2.324-2.305 1.172-1.015 2.364-1.62 1.191-.606 2.324-.606.703 0 1.152.215.45.215.703.547.274.332.371.761.118.41.118.82 0 .587-.235 1.27-.215.684-.683 1.387-.45.683-1.153 1.328-.703.625-1.68 1.133.216.508.216 1.23 0 .45-.118.918-.117.45-.254.899-.136.449-.253.918-.118.449-.118.918 0 .234.02.449.039.215.117.39.098.176.273.293.196.098.528.098.39 0 .898-.312.508-.332 1.074-.86.567-.527 1.153-1.21.605-.704 1.172-1.466.566-.761 1.093-1.504.528-.761.957-1.425l.723.547q-.996 1.484-1.953 2.832-.937 1.347-1.895 2.363-.937 1.016-1.914 1.621-.976.605-2.011.605-.41 0-.86-.117-.43-.117-.8-.39-.352-.254-.586-.684-.235-.43-.235-1.055 0-.742.371-1.738.332-.937.489-1.562.156-.645.175-1.075-.41.098-.879.176-.449.078-.859.078-.215 0-.469-.039-.254-.058-.468-.176-.215-.117-.371-.293-.137-.195-.137-.488t.176-.547q.195-.273.507-.468.332-.215.782-.332.449-.118.996-.118 1.015 0 1.738.547.703-.547 1.152-1.191.47-.645.723-1.25.254-.606.352-1.074.097-.489.097-.723 0-.645-.234-.879-.235-.254-.567-.254-.625 0-1.406.41-.762.41-1.601 1.114-.82.703-1.7 1.62-.859.919-1.699 1.934-.82 1.016-1.601 2.051-.762 1.035-1.407 1.953-.586.977-1.054 1.817-.45.84-.762 1.445-.313.605-.488.918-.176.312-.196.215l-1.933-.508q2.304-5.254 4.668-10.508 2.363-5.254 4.98-10.625.39-.781.88-1.7.507-.937 1.073-1.855.586-.937 1.23-1.816.665-.879 1.348-1.543.704-.684 1.426-1.074.723-.41 1.446-.41.761 0 1.23.43.488.429.488 1.366 0 1.29-.703 3.145-.683 1.836-2.05 3.906-1.368 2.07-3.419 4.2-2.03 2.109-4.746 3.925l-2.558 5.703zm3.418-7.578q2.363-1.836 4.062-3.77 1.719-1.952 2.813-3.75 1.113-1.796 1.62-3.32.528-1.543.528-2.578 0-.293-.156-.468-.156-.176-.488-.176-.723 0-1.485.722-.761.704-1.738 2.344-.957 1.64-2.207 4.336-1.25 2.695-2.95 6.66zm2.5 7.617q-.098-.214-.332-.37-.215-.176-.489-.176-.566 0-.996.234-.43.234-.43.45 0 .155.176.214.196.04.352.04.508 0 .937-.118.43-.117.782-.274z" style="-inkscape-font-specification:Parisienne"/><path d="M85.483 36.895q.195-.332.683-1.153.508-.82 1.172-1.816.684-.996 1.465-1.992.8-1.016 1.563-1.72l.879.528q-.84 1.387-1.72 2.95-.878 1.542-1.737 3.203h6.367l-.39 1.015H87.26q-.879 1.758-1.66 3.496-.762 1.739-1.348 3.32-.586 1.583-.918 2.97-.332 1.367-.332 2.382 0 1.27.586 1.836.586.547 1.446.547.761 0 1.562-.45.8-.468 1.563-1.171.78-.703 1.464-1.543.704-.84 1.23-1.582.548-.742.9-1.29.35-.566.43-.702l.722.547q-.684 1.132-1.543 2.402-.86 1.27-1.914 2.363-1.035 1.074-2.266 1.797-1.23.703-2.656.703-.88 0-1.543-.312-.645-.313-1.094-.86-.45-.566-.664-1.328-.234-.762-.234-1.66 0-.586.195-1.66.176-1.074.625-2.54.45-1.484 1.191-3.32.762-1.835 1.914-3.945h-3.242l.39-1.015h3.419z" style="-inkscape-font-specification:Parisienne"/><path d="M103.237 47.695q.078.02.156.02h.176q.547 0 .996-.098.45-.117.82-.351.39-.235.742-.606.352-.39.684-.937l.703.547q-.937 1.328-1.933 1.855-.997.527-2.11.527-.41 0-.723-.078-.84 1.407-1.796 2.403-.957.976-1.954 1.601-.996.625-1.972.899-.977.293-1.817.293-.859 0-1.601-.313-.723-.293-1.25-.86-.527-.566-.82-1.347-.293-.781-.293-1.758 0-.976.312-1.992.313-1.016.84-2.012.547-.996 1.27-1.914.722-.937 1.562-1.738.84-.8 1.738-1.445.899-.645 1.797-1.055l.625.82q-1.035.742-2.11 1.875-1.054 1.133-1.933 2.48-.86 1.348-1.426 2.813-.547 1.446-.547 2.813 0 1.23.547 1.914.547.664 1.66.664.86 0 1.7-.352.84-.351 1.64-.957.801-.605 1.543-1.425.743-.84 1.407-1.778-.567-.332-.997-.879-.43-.566-.722-1.27-.293-.722-.45-1.542-.136-.82-.136-1.68t.215-1.621q.215-.762.586-1.328.39-.586.898-.918.508-.332 1.113-.332.547 0 .977.293.43.273.723.781.293.488.449 1.172.156.684.156 1.465 0 .586-.098 1.289-.097.703-.293 1.426-.175.703-.449 1.406-.254.683-.605 1.23zm-2.656-4.863q0 .566.097 1.23.098.665.313 1.29t.547 1.171q.332.528.82.84.351-.683.586-1.386.254-.723.41-1.387.176-.664.234-1.23.078-.587.078-1.016 0-.586-.097-1.074-.098-.489-.274-.84-.156-.371-.41-.567-.234-.215-.527-.215-.39 0-.723.274-.332.254-.566.703-.235.43-.371 1.016-.118.566-.118 1.191z" style="-inkscape-font-specification:Parisienne"/><path d="M117.963 44.14q-.742-.175-1.289-.488-.527-.332-.86-.742-.331-.41-.487-.86-.157-.468-.157-.917 0-.977.547-1.504.547-.547 1.367-.547.547 0 .938.293.39.273.644.742t.372 1.094q.117.605.117 1.27 0 .449-.04.898-.038.43-.136.879-.469 2.11-1.387 3.828-.898 1.7-2.05 2.93-1.133 1.21-2.422 1.875-1.29.644-2.52.644-.84 0-1.602-.234-.742-.235-1.328-.781-.566-.547-.898-1.426-.332-.899-.332-2.207 0-1.621.625-3.867.644-2.247 2.168-5.274 2.187-4.238 4.394-7.598.938-1.425 1.973-2.792 1.035-1.368 2.07-2.442 1.055-1.074 2.07-1.719 1.036-.664 1.954-.664.117 0 .41.04.312.038.625.214.312.156.547.508.254.332.254.938 0 .722-.39 1.835-.372 1.094-1.134 2.442-.742 1.328-1.855 2.851-1.094 1.504-2.54 3.028-1.425 1.523-3.183 2.988-1.738 1.465-3.789 2.734-.684 1.485-1.152 2.696-.45 1.191-.723 2.168-.273.957-.39 1.699-.118.742-.118 1.289 0 .762.196 1.27.214.488.566.78.352.274.8.391.45.118.938.118.918 0 1.778-.47.878-.468 1.66-1.21.781-.762 1.426-1.7.664-.937 1.152-1.855.488-.937.8-1.758.313-.84.391-1.386zm-6.504-3.808q1.797-1.23 3.301-2.598 1.524-1.367 2.754-2.734 1.23-1.387 2.168-2.695.938-1.328 1.563-2.48.625-1.153.937-2.052.332-.917.332-1.484 0-.508-.371-.508-.703 0-1.7.762-.976.762-2.284 2.48-1.29 1.72-2.97 4.493-1.66 2.773-3.73 6.816zm6.641 2.793q.02-.176.02-.352.019-.175.019-.332 0-1.054-.273-1.699-.274-.644-.782-.644-.117 0-.273.039-.137.02-.293.136-.137.098-.234.293-.098.196-.098.508 0 .801.547 1.328.566.508 1.367.723zM122.377 48.555q-.039.234-.058.468-.02.235-.02.47 0 .702.196 1.347.214.625.605 1.113.41.469.996.742.606.274 1.367.274 2.559 0 4.942-1.738 2.383-1.739 4.746-5.508l.664.586q-1.29 2.148-2.617 3.632-1.328 1.465-2.657 2.383-1.308.918-2.578 1.328-1.27.41-2.422.41-.84 0-1.777-.234-.937-.234-1.738-.781-.781-.547-1.29-1.465-.527-.918-.527-2.285 0-1.465.508-2.813.489-1.367 1.29-2.539.8-1.172 1.835-2.129 1.035-.976 2.09-1.66 1.074-.683 2.09-1.054 1.016-.391 1.797-.391.508 0 1.035.156.527.156.937.489.43.332.684.878.274.547.274 1.309 0 1.035-.489 1.953-.469.899-1.27 1.68-.8.762-1.855 1.387-1.054.605-2.207 1.035-1.152.43-2.324.683-1.172.254-2.227.274zm.157-.84q1.308-.137 2.46-.547 1.153-.41 2.11-.996.957-.606 1.7-1.309.76-.703 1.269-1.425.508-.723.781-1.387t.273-1.192q0-.527-.293-.84-.273-.312-.664-.312-.859 0-1.933.625-1.074.606-2.149 1.7-1.074 1.074-2.03 2.538-.938 1.465-1.524 3.145z" style="-inkscape-font-specification:Parisienne"/><path d="M147.514 46.27q-.293.43-.703 1.171-.39.723-.918 1.582-.527.84-1.172 1.72-.625.878-1.387 1.581-.742.703-1.62 1.153-.88.449-1.876.449-.547 0-1.035-.176-.488-.156-.86-.508-.37-.351-.585-.86-.215-.526-.215-1.23 0-.957.371-1.992.39-1.054.899-2.031.507-.977 1.015-1.777.508-.82.742-1.309.235-.488.235-.84 0-.254-.176-.449-.156-.195-.41-.371-.235-.195-.508-.39-.254-.216-.43-.509-.488.782-.996 1.582-.449.684-.976 1.543-.528.84-1.016 1.66l-.703-.546 4.18-6.543.566.293q-.04.117-.137.37-.078.255-.078.548 0 .215.059.43.078.195.293.37.781.704 1.23 1.094.45.371.645.606.215.215.254.37.058.137.058.372 0 .234-.078.566-.078.332-.273.801-.176.469-.508 1.113-.313.625-.8 1.465-.294.508-.587 1.035-.273.508-.508 1.035-.214.528-.351 1.055-.137.528-.137 1.016 0 .37.098.605.117.215.293.332.176.117.37.157.216.039.411.039.645 0 1.27-.371.644-.391 1.25-.997.625-.605 1.19-1.367.587-.781 1.114-1.582.528-.8.977-1.523.449-.742.8-1.29l.723.548z" style="-inkscape-font-specification:Parisienne"/></g></g></svg><svg id="clear-view-escapes_(copy)" data-name="Layer 1" width="144.4" height="61.53" viewBox="-1 -1 144.4 61.53" y="87.22" xmlns="http://www.w3.org/2000/svg"><defs><style>.bcls-1{fill:#fff}</style></defs><title>clear-view-escapes</title><path class="bcls-1" d="M19.5 27.52v4.75H5.93v5.51h12.45v4.39H5.93v6.3h13.85v4.75H.28v-25.7H19.5zM27.36 48.59a3 3 0 0 0 .88 1 3.78 3.78 0 0 0 1.24.56 5.84 5.84 0 0 0 1.46.18 5.46 5.46 0 0 0 1.13-.13 3.86 3.86 0 0 0 1.08-.4 2.47 2.47 0 0 0 .85-.75 1.89 1.89 0 0 0 .32-1.13 1.91 1.91 0 0 0-1.53-1.73 30.59 30.59 0 0 0-4.3-1.19q-1.12-.25-2.18-.59a7.38 7.38 0 0 1-1.89-.9 4.35 4.35 0 0 1-1.33-1.4 4 4 0 0 1-.5-2.07 5.6 5.6 0 0 1 .7-3 5.16 5.16 0 0 1 1.85-1.82 8.13 8.13 0 0 1 2.59-.94 15.92 15.92 0 0 1 3-.27 14.79 14.79 0 0 1 2.93.29 7.77 7.77 0 0 1 2.54 1 5.83 5.83 0 0 1 1.8 1.88 6.11 6.11 0 0 1 .89 2.82H34a2.24 2.24 0 0 0-1.12-2 5.1 5.1 0 0 0-2.37-.52 8.77 8.77 0 0 0-.94.05 3.15 3.15 0 0 0-.92.23 1.91 1.91 0 0 0-.7.52 1.38 1.38 0 0 0-.29.92 1.4 1.4 0 0 0 .5 1.12 3.88 3.88 0 0 0 1.31.7 16.38 16.38 0 0 0 1.85.49l2.18.49a21.57 21.57 0 0 1 2.18.61 7.2 7.2 0 0 1 1.89 1 4.63 4.63 0 0 1 1.33 1.48 4.34 4.34 0 0 1 .5 2.18 5.65 5.65 0 0 1-2.66 5.07A7.9 7.9 0 0 1 34 53.37a15.9 15.9 0 0 1-3.11.31 15.36 15.36 0 0 1-3.17-.32A8.35 8.35 0 0 1 25 52.27a6.17 6.17 0 0 1-2-2 6.25 6.25 0 0 1-.85-3.11H27a2.8 2.8 0 0 0 .36 1.43zM51.27 38a3.59 3.59 0 0 0-2.05.56A4.45 4.45 0 0 0 47.87 40a6.23 6.23 0 0 0-.74 1.94 10.54 10.54 0 0 0-.21 2.06 10.11 10.11 0 0 0 .21 2 6.32 6.32 0 0 0 .7 1.89 4 4 0 0 0 1.31 1.39 3.61 3.61 0 0 0 2 .54 3.75 3.75 0 0 0 2.83-1 4.86 4.86 0 0 0 1.24-2.75h4.93a8.43 8.43 0 0 1-2.88 5.65 9.29 9.29 0 0 1-6.08 1.94 10.16 10.16 0 0 1-3.83-.7 8.49 8.49 0 0 1-3-2 8.92 8.92 0 0 1-1.91-3 10.42 10.42 0 0 1-.68-3.83 12.4 12.4 0 0 1 .63-4 9 9 0 0 1 1.9-3.13 8.49 8.49 0 0 1 3-2.1 10.15 10.15 0 0 1 4-.76 11.63 11.63 0 0 1 3.19.43 8.49 8.49 0 0 1 2.73 1.31 6.79 6.79 0 0 1 2.83 5.31h-5A3.43 3.43 0 0 0 51.27 38zM62.82 40.33a5.93 5.93 0 0 1 .9-3 6.13 6.13 0 0 1 2-1.91 8.83 8.83 0 0 1 2.75-1 15.71 15.71 0 0 1 3.08-.31 20.85 20.85 0 0 1 2.84.2 8.72 8.72 0 0 1 2.63.77A5.18 5.18 0 0 1 79 36.67a4.47 4.47 0 0 1 .76 2.72v9.68a19.49 19.49 0 0 0 .14 2.41 4.34 4.34 0 0 0 .5 1.73h-5.19a6.77 6.77 0 0 1-.21-.88 7.44 7.44 0 0 1-.13-.92A6.64 6.64 0 0 1 72 53.17a11.55 11.55 0 0 1-3.38.5 9.1 9.1 0 0 1-2.48-.32 5.68 5.68 0 0 1-2-1 4.69 4.69 0 0 1-1.35-1.73 5.84 5.84 0 0 1-.49-2.48 5.42 5.42 0 0 1 .56-2.61 4.66 4.66 0 0 1 1.44-1.64 6.44 6.44 0 0 1 2-.92 21.75 21.75 0 0 1 2.29-.49q1.15-.18 2.27-.29a13.74 13.74 0 0 0 2-.32 3.43 3.43 0 0 0 1.37-.63 1.38 1.38 0 0 0 .4-1.24 2.72 2.72 0 0 0-.27-1.31 2 2 0 0 0-.72-.69 2.86 2.86 0 0 0-1-.36 8.61 8.61 0 0 0-1.28-.09 3.88 3.88 0 0 0-2.37.65 2.89 2.89 0 0 0-1 2.16h-5.17zm11.8 3.78a2.28 2.28 0 0 1-.81.45 8.28 8.28 0 0 1-1 .27c-.41.07-.81.17-1.2.17s-.82.11-1.22.18a9.24 9.24 0 0 0-1.13.29 3.34 3.34 0 0 0-1 .49 2.3 2.3 0 0 0-.67.77 2.49 2.49 0 0 0-.25 1.19 2.4 2.4 0 0 0 .25 1.15 1.93 1.93 0 0 0 .68.74 2.9 2.9 0 0 0 1 .38 6.48 6.48 0 0 0 1.19.11 4.51 4.51 0 0 0 2.34-.5 3.36 3.36 0 0 0 1.22-1.21 3.87 3.87 0 0 0 .49-1.42 10.06 10.06 0 0 0 .12-1.17v-1.89zM88.56 34.6V37h.07A5.62 5.62 0 0 1 91 34.78a7.29 7.29 0 0 1 3.17-.68 8.07 8.07 0 0 1 3.78.83 7.82 7.82 0 0 1 2.63 2.2 9.31 9.31 0 0 1 1.55 3.19 14.19 14.19 0 0 1 .5 3.8 12.82 12.82 0 0 1-.5 3.6 9.18 9.18 0 0 1-1.53 3.06 7.58 7.58 0 0 1-2.6 2.11 7.69 7.69 0 0 1-3.58.79 7.23 7.23 0 0 1-3.18-.7 6 6 0 0 1-2.39-2.07h-.04v8.82H83.7V34.6h4.86zm6.64 14.76A4.09 4.09 0 0 0 96.56 48a5.43 5.43 0 0 0 .74-1.89 11.19 11.19 0 0 0 .22-2.2 10.32 10.32 0 0 0-.23-2.2 5.86 5.86 0 0 0-.77-1.92 4.33 4.33 0 0 0-1.39-1.37 3.87 3.87 0 0 0-2.08-.42 3.94 3.94 0 0 0-2.11.52 4.22 4.22 0 0 0-1.37 1.35 5.6 5.6 0 0 0-.74 1.91 11.3 11.3 0 0 0-.2 2.22 10.31 10.31 0 0 0 .23 2.2 5.69 5.69 0 0 0 .76 1.8 4.36 4.36 0 0 0 5.58 1.36zM111.15 48.75a5.24 5.24 0 0 0 6 .34 3.21 3.21 0 0 0 1.37-1.64H123a8.54 8.54 0 0 1-3.31 4.79 9.75 9.75 0 0 1-5.4 1.44 10.6 10.6 0 0 1-4-.7 8.22 8.22 0 0 1-3-2 9 9 0 0 1-1.89-3.09 11.34 11.34 0 0 1-.67-4 10.84 10.84 0 0 1 .68-3.89 9 9 0 0 1 4.95-5.18 9.63 9.63 0 0 1 3.87-.76 8.84 8.84 0 0 1 4.14.92 8.26 8.26 0 0 1 2.9 2.46A10.14 10.14 0 0 1 123 41a13.14 13.14 0 0 1 .36 4.14H109.9a5.16 5.16 0 0 0 1.25 3.61zm5.78-9.75a3.59 3.59 0 0 0-2.79-1 4.45 4.45 0 0 0-2 .41 3.89 3.89 0 0 0-1.3 1 3.77 3.77 0 0 0-.68 1.3 5.83 5.83 0 0 0-.23 1.22h8.31a5.91 5.91 0 0 0-1.31-2.93zM130.64 48.59a3 3 0 0 0 .88 1 3.78 3.78 0 0 0 1.24.56 5.83 5.83 0 0 0 1.46.18 5.46 5.46 0 0 0 1.13-.13 3.86 3.86 0 0 0 1.08-.4 2.47 2.47 0 0 0 .81-.72 1.89 1.89 0 0 0 .32-1.13 1.91 1.91 0 0 0-1.56-1.76 30.55 30.55 0 0 0-4.22-1.19q-1.11-.25-2.18-.59a7.39 7.39 0 0 1-1.89-.9 4.36 4.36 0 0 1-1.33-1.4 4 4 0 0 1-.5-2.07 5.6 5.6 0 0 1 .7-3 5.18 5.18 0 0 1 1.85-1.82 8.13 8.13 0 0 1 2.59-.94 15.91 15.91 0 0 1 3-.27 14.79 14.79 0 0 1 2.93.29 7.77 7.77 0 0 1 2.54 1 5.84 5.84 0 0 1 1.85 1.82 6.11 6.11 0 0 1 .88 2.86h-4.86a2.24 2.24 0 0 0-1.12-2 5.1 5.1 0 0 0-2.37-.52 8.77 8.77 0 0 0-.94.05 3.15 3.15 0 0 0-.92.23 1.9 1.9 0 0 0-.7.52 1.38 1.38 0 0 0-.29.92 1.4 1.4 0 0 0 .5 1.12 3.87 3.87 0 0 0 1.31.7 16.33 16.33 0 0 0 1.85.49l2.1.51a21.57 21.57 0 0 1 2.18.61 7.18 7.18 0 0 1 1.89 1 4.63 4.63 0 0 1 1.33 1.48 4.33 4.33 0 0 1 .5 2.18 5.65 5.65 0 0 1-2.68 5.04 7.89 7.89 0 0 1-2.72 1.06 15.9 15.9 0 0 1-3.11.31 15.35 15.35 0 0 1-3.17-.32 8.35 8.35 0 0 1-2.75-1.08 6.18 6.18 0 0 1-2-2 6.25 6.25 0 0 1-.85-3.11h4.86a2.8 2.8 0 0 0 .38 1.42zM23.64 6.29a6.36 6.36 0 0 0-.55-1.43 4 4 0 0 0-.9-1.12A4 4 0 0 0 20.9 3a5.11 5.11 0 0 0-1.71-.26 5 5 0 0 0-2.46.58A4.84 4.84 0 0 0 15 4.85a6.93 6.93 0 0 0-1 2.19 10.16 10.16 0 0 0 0 5 6.92 6.92 0 0 0 1 2.19 4.83 4.83 0 0 0 1.69 1.54 5 5 0 0 0 2.46.57A4.44 4.44 0 0 0 21 16a4.12 4.12 0 0 0 1.38-1 4.71 4.71 0 0 0 .9-1.49 7.13 7.13 0 0 0 .43-1.83h3.05a8.48 8.48 0 0 1-.69 2.93 7.17 7.17 0 0 1-1.59 2.29 7 7 0 0 1-2.35 1.49 8.14 8.14 0 0 1-3 .53 8.43 8.43 0 0 1-3.59-.74 7.88 7.88 0 0 1-2.69-2 9 9 0 0 1-1.69-3 11 11 0 0 1-.59-3.63 11 11 0 0 1 .59-3.6 9 9 0 0 1 1.69-3 8 8 0 0 1 2.69-2 8.29 8.29 0 0 1 3.65-.76A9.46 9.46 0 0 1 22 .6a7.31 7.31 0 0 1 2.34 1.2A6.23 6.23 0 0 1 26 3.72a6.66 6.66 0 0 1 .78 2.58h-3.14zM29.31.62h2.85v17.85h-2.85V.62zM37.49 12.74a5 5 0 0 0 .21 1.45 3.57 3.57 0 0 0 .64 1.23 3.06 3.06 0 0 0 1.08.84 3.54 3.54 0 0 0 1.55.31A3.42 3.42 0 0 0 43 16a3.17 3.17 0 0 0 1.14-1.61h2.7a5.36 5.36 0 0 1-2.1 3.26 5.71 5.71 0 0 1-1.74.85 7 7 0 0 1-2 .29 6.85 6.85 0 0 1-2.7-.5 5.58 5.58 0 0 1-2-1.4 5.93 5.93 0 0 1-1.3-2.12 8.74 8.74 0 0 1-.36-2.77 7.79 7.79 0 0 1 .44-2.61 6.68 6.68 0 0 1 1.25-2.18 5.86 5.86 0 0 1 4.56-2 5.8 5.8 0 0 1 2.74.64 6 6 0 0 1 2 1.69 6.84 6.84 0 0 1 1.17 2.39 7.42 7.42 0 0 1 .2 2.81h-9.5zm6.65-1.88a4.61 4.61 0 0 0-.29-1.3 3.47 3.47 0 0 0-.65-1.09 3.23 3.23 0 0 0-1-.75 3 3 0 0 0-1.31-.29 3.42 3.42 0 0 0-1.36.26 3.11 3.11 0 0 0-1.05.73 3.59 3.59 0 0 0-.7 1.09 3.78 3.78 0 0 0-.29 1.35h6.65zM60 15.59a1.51 1.51 0 0 0 .14.75.58.58 0 0 0 .54.23H61a1.85 1.85 0 0 0 .4 0v2l-.4.04-.49.11-.5.08h-.43a2.75 2.75 0 0 1-1.45-.35 1.74 1.74 0 0 1-.75-1.23 5 5 0 0 1-2.09 1.2 8.22 8.22 0 0 1-2.39.38 5.86 5.86 0 0 1-1.68-.24 4.38 4.38 0 0 1-1.41-.7 3.35 3.35 0 0 1-1-1.18 3.62 3.62 0 0 1-.35-1.68 3.84 3.84 0 0 1 .44-2 3.24 3.24 0 0 1 1.15-1.18 5.21 5.21 0 0 1 1.6-.61q.89-.19 1.79-.29a14.67 14.67 0 0 1 1.48-.21 6.86 6.86 0 0 0 1.24-.21 1.9 1.9 0 0 0 .84-.37 1.27 1.27 0 0 0 .31-.94 1.46 1.46 0 0 0-.26-.9 1.77 1.77 0 0 0-.65-.54 2.82 2.82 0 0 0-.86-.25 6.94 6.94 0 0 0-.9-.06 3.58 3.58 0 0 0-2 .5 2 2 0 0 0-.87 1.55h-2.83a4.29 4.29 0 0 1 .6-2.08 4.14 4.14 0 0 1 1.34-1.33 5.48 5.48 0 0 1 1.84-.7 10.94 10.94 0 0 1 2.1-.2 8.85 8.85 0 0 1 1.88.2 5.34 5.34 0 0 1 1.65.62 3.61 3.61 0 0 1 1.19 1.16A3.19 3.19 0 0 1 60 8.94v6.65zM57.14 12a3.45 3.45 0 0 1-1.6.51q-1 .09-1.9.26a6.12 6.12 0 0 0-.87.21 2.63 2.63 0 0 0-.75.38 1.65 1.65 0 0 0-.51.63 2.14 2.14 0 0 0-.19.94 1.19 1.19 0 0 0 .27.8 2 2 0 0 0 .66.51 3.08 3.08 0 0 0 .85.26 5.3 5.3 0 0 0 .84.07 4.6 4.6 0 0 0 1-.12A3.4 3.4 0 0 0 56 16a2.73 2.73 0 0 0 .81-.76 1.93 1.93 0 0 0 .33-1.14V12zM63.06 5.54h2.68V8h.05a2.88 2.88 0 0 1 .49-1 4.73 4.73 0 0 1 .88-.91 4.4 4.4 0 0 1 1.14-.66 3.41 3.41 0 0 1 1.28-.25 6.21 6.21 0 0 1 .69 0h.39V8L70 7.93a5.06 5.06 0 0 0-.61 0 3.28 3.28 0 0 0-1.36.29 3.13 3.13 0 0 0-1.09.78 4.16 4.16 0 0 0-.75 1.39 6 6 0 0 0-.27 1.9v6.15h-2.86V5.54zM77.19.62h3.25l4.48 14.13H85L89.54.62h3.17l-6.1 17.85h-3.47zM94.42.62h2.85v2.7h-2.85V.62zm0 4.93h2.85v12.92h-2.85V5.54zM102.59 12.74a5 5 0 0 0 .21 1.45 3.57 3.57 0 0 0 .64 1.23 3.06 3.06 0 0 0 1.08.84 3.54 3.54 0 0 0 1.55.31 3.42 3.42 0 0 0 2-.54 3.18 3.18 0 0 0 1.14-1.61h2.7a5.36 5.36 0 0 1-2.1 3.26 5.71 5.71 0 0 1-1.74.85 7 7 0 0 1-2 .29 6.85 6.85 0 0 1-2.7-.5 5.58 5.58 0 0 1-2-1.4 5.93 5.93 0 0 1-1.22-2.15 8.73 8.73 0 0 1-.41-2.77 7.77 7.77 0 0 1 .44-2.61 6.69 6.69 0 0 1 1.25-2.18 5.86 5.86 0 0 1 4.56-2 5.79 5.79 0 0 1 2.74.64 6 6 0 0 1 2 1.69 6.85 6.85 0 0 1 1.16 2.41 7.42 7.42 0 0 1 .19 2.81h-9.5zm6.65-1.88a4.6 4.6 0 0 0-.29-1.3 3.48 3.48 0 0 0-.65-1.09 3.22 3.22 0 0 0-1-.75 3 3 0 0 0-1.3-.28 3.43 3.43 0 0 0-1.36.26 3.12 3.12 0 0 0-1 .73 3.6 3.6 0 0 0-.7 1.09 3.8 3.8 0 0 0-.29 1.35h6.65zM113.1 5.54h3l2.53 9.65 2.42-9.65H124l2.33 9.65L129 5.54h2.9l-4 12.93h-2.93l-2.4-9.6-2.37 9.6h-3z" transform="translate(-.28 -.19)"/></svg><svg id="comment" data-name="Layer 1" width="66" height="66" viewBox="-1 -1 66 66" x="186" y="148.75" xmlns="http://www.w3.org/2000/svg"><defs><style>.ccls-1{fill:#2f5572}</style></defs><title>comment</title><path class="ccls-1" d="M.72.08A.67.67 0 0 0 0 .8v46.48a.72.72 0 0 0 .72.72H48l16 16V.72a.67.67 0 0 0-.72-.72H.8z"/></svg><svg id="facebook" data-name="Layer 1" width="23.23" height="44.01" viewBox="-1 -1 23.23 44.01" x="66" y="214.75" xmlns="http://www.w3.org/2000/svg"><defs><style>.dcls-1{fill:#fff}</style></defs><title>facebook</title><path class="dcls-1" d="M21.23.31V7H17.4a3.55 3.55 0 0 0-2.85.91 4.26 4.26 0 0 0-.74 2.72v4.77H21l-1 7.47h-6.19V42H6.27V22.85H0v-7.47h6.27V9.85q0-4.69 2.55-7.28A9 9 0 0 1 15.63 0a39.57 39.57 0 0 1 5.6.31z"/></svg><svg id="fire" data-name="Layer 1" width="58" height="66" viewBox="-1 -1 58 66" x="62" y="148.75" xmlns="http://www.w3.org/2000/svg"><defs><style>.ecls-1{fill:#d4953d}</style></defs><title>Untitled-2</title><path class="ecls-1" d="M16 0C24 16 0 24 0 40s16 24 16 24C8.16 48.16 32 40 32 24S16 0 16 0zm24 24c8 16-16 24-16 40h24c3.2 0 8-4 8-16 0-16-16-24-16-24z"/></svg><svg id="globe" data-name="Layer 1" width="66" height="66" viewBox="-1 -1 66 66" x="120" y="148.75" xmlns="http://www.w3.org/2000/svg"><defs><style>.fcls-1{fill:#d4953f}</style></defs><title>globe</title><path class="fcls-1" d="M32 0a32 32 0 1 0 32 32A32 32 0 0 0 32 0zm0 8a23.75 23.75 0 0 1 7.52 1.52c-1.68 1.6-3.6 3-3.28 4.48s5.52 1 5.52 4c0 2.16-3.36 2.8-1 5.28 2.8 2.8-5.12 7.84-5.28 11.52-.24 6.64 6.72 7.76 12.24 7.76 3.36 0 4.24 1.6 4 3.52a24.07 24.07 0 0 1-19.76 10 22.94 22.94 0 0 1-8.48-1.76c1.76-3.52-2.24-10.48-6-12.72-1.84-1.84-5.76-1.12-8-2a23.49 23.49 0 0 1-1.52-6.72 1.42 1.42 0 0 1 1.28-.72c1.52 0 3.6 3 4.72 2.72 1.4-.32-5.96-10.48-2.52-12.48 1.6-1 4.8 3.12 3.76-1.28-1-4.08 2.88-2.24 5.28-3.28 2.08-.88 3.6-3.28 1-4.72a8.55 8.55 0 0 1-1.76-1.52A23.75 23.75 0 0 1 32 8.08V8zm18.48 8.72A26.46 26.46 0 0 1 54 22.48v.24a11.78 11.78 0 0 1-1.76 1.76C50 26.72 49.68 22.8 48.72 22c-1-1-4.8.16-5.28-1-.56-1.48 4-3.4 7.04-4.28z"/></svg><svg id="instagram" data-name="Layer 1" width="44.01" height="44.01" viewBox="-1 -1 44.01 44.01" x="264.18" y="87.22" xmlns="http://www.w3.org/2000/svg"><defs><style>.gcls-1{fill:#fff}</style></defs><title>instagram</title><path class="gcls-1" d="M37.25 35.49V17.77h-3.69a11.77 11.77 0 0 1 .57 3.58 12.12 12.12 0 0 1-1.75 6.36 12.76 12.76 0 0 1-4.76 4.59 13.13 13.13 0 0 1-6.56 1.7 12.78 12.78 0 0 1-9.19-3.71 12 12 0 0 1-3.83-9 11.77 11.77 0 0 1 .49-3.56H4.68v17.76a1.63 1.63 0 0 0 1.6 1.67h29.3a1.63 1.63 0 0 0 1.17-.47 1.59 1.59 0 0 0 .5-1.2zm-7.77-14.57A7.75 7.75 0 0 0 27 15.14a8.28 8.28 0 0 0-6-2.4 8.25 8.25 0 0 0-5.91 2.39 7.75 7.75 0 0 0-2.47 5.78 7.75 7.75 0 0 0 2.47 5.79A8.25 8.25 0 0 0 21 29.1a8.28 8.28 0 0 0 6-2.4 7.75 7.75 0 0 0 2.48-5.78zm7.76-9.84V6.56a1.84 1.84 0 0 0-.54-1.31 1.8 1.8 0 0 0-1.31-.56h-4.78a1.8 1.8 0 0 0-1.31.56 1.84 1.84 0 0 0-.54 1.31v4.52A1.87 1.87 0 0 0 30.6 13h4.8a1.87 1.87 0 0 0 1.85-1.89zM42 5.39v31.23A5.41 5.41 0 0 1 36.62 42H5.39a5.19 5.19 0 0 1-3.8-1.59A5.19 5.19 0 0 1 0 36.62V5.39a5.19 5.19 0 0 1 1.59-3.8A5.19 5.19 0 0 1 5.39 0h31.23a5.19 5.19 0 0 1 3.8 1.59A5.19 5.19 0 0 1 42 5.39z"/></svg><svg id="mail" data-name="Layer 1" width="66" height="50" viewBox="-1 -1 66 50" x="144.4" y="87.22" xmlns="http://www.w3.org/2000/svg"><defs><style>.hcls-1{fill:#2f5572}</style></defs><title>mail</title><path class="hcls-1" d="M0 0v8l32 16L64 8V0H0zm0 16v32h64V16L32 32z"/></svg><svg id="rain" data-name="Layer 1" width="66" height="66" viewBox="-1 -1 66 66" x="252" y="148.75" xmlns="http://www.w3.org/2000/svg"><defs><style>.icls-1{fill:#d4953f}</style></defs><title>rain</title><path class="icls-1" d="M36 0a20.42 20.42 0 0 0-20 16A16 16 0 0 0 0 32a15.4 15.4 0 0 0 4.27 10.72A11.88 11.88 0 0 1 12 40a10.51 10.51 0 0 1 4.47 1A12 12 0 0 1 28 32a12.06 12.06 0 0 1 11.51 9A11.84 11.84 0 0 1 44 40a11.94 11.94 0 0 1 11 7.52A12.07 12.07 0 0 0 64 36c0-5.2-3.36-10.32-8-12v-4A20 20 0 0 0 36 0zm-9.27 40A4 4 0 0 0 24 44v16a4 4 0 1 0 8 0V44a4 4 0 0 0-4.71-4h-.56zm-16 8A4 4 0 0 0 8 52v8a4 4 0 1 0 8 0v-8a4 4 0 0 0-4.71-4h-.54zm32 0A4 4 0 0 0 40 52v8a4 4 0 1 0 8 0v-8a4 4 0 0 0-4.71-4h-.58z" transform="translate(-.04)"/></svg><svg id="star" data-name="Layer 1" width="66" height="66" viewBox="-1 -1 66 66" y="214.75" xmlns="http://www.w3.org/2000/svg"><defs><style>.jcls-1{fill:#d4953f}</style></defs><title>star</title><path class="jcls-1" d="M32 0l-8 24H0l20 16-8 24 20-16 20 16-8-24 20-16H40z"/></svg><svg id="twitter" data-name="Layer 1" width="53.78" height="44.06" viewBox="-1 -1 53.78 44.06" x="210.4" y="87.22" xmlns="http://www.w3.org/2000/svg"><defs><style>.kcls-1{fill:#fff}</style></defs><title>twitter</title><path class="kcls-1" d="M51.78 5a22.23 22.23 0 0 1-5.32 5.52v1.38a30.15 30.15 0 0 1-1.25 8.53 30.81 30.81 0 0 1-3.76 8.13 32.1 32.1 0 0 1-6.06 6.92 27 27 0 0 1-8.48 4.8 31 31 0 0 1-10.62 1.8A29.47 29.47 0 0 1 0 37.29a22.71 22.71 0 0 0 2.56.13 20.78 20.78 0 0 0 13.17-4.53 10.63 10.63 0 0 1-9.92-7.36 13.45 13.45 0 0 0 2 .16 11 11 0 0 0 2.79-.36 10.44 10.44 0 0 1-6.09-3.67 10.25 10.25 0 0 1-2.41-6.75v-.13a10.52 10.52 0 0 0 4.8 1.34 10.6 10.6 0 0 1-3.45-3.78 10.34 10.34 0 0 1-1.28-5.07 10.4 10.4 0 0 1 1.45-5.33 30.08 30.08 0 0 0 9.71 7.83A29.57 29.57 0 0 0 25.53 13a11.79 11.79 0 0 1-.26-2.43 10.23 10.23 0 0 1 3-7.48 10.64 10.64 0 0 1 15 0l.21.22A20.81 20.81 0 0 0 50.33.8a10.3 10.3 0 0 1-4.67 5.85A21.14 21.14 0 0 0 51.78 5z"/></svg><svg width="163.69" height="87.22" viewBox="-1 -1 153.58 81.89" id="wedding-date" x="163.69" xmlns="http://www.w3.org/2000/svg"><g transform="translate(4.068 21.1)" font-weight="400" font-family="Parisienne" letter-spacing="0" word-spacing="0" fill="#ececec"><g style="line-height:125%" font-size="45.943"><path d="M36.862 3.038q-.606.27-1.436.516-.83.247-1.75.449-.92.18-1.884.291-.965.112-1.84.112-1.682 0-3.207-.314-1.503-.336-2.647-1.054-1.122-.74-1.795-1.884-.65-1.144-.65-2.782 0-1.862.807-3.634.807-1.772 2.198-3.32 1.391-1.548 3.253-2.827 1.885-1.301 3.993-2.22 2.131-.943 4.397-1.459 2.288-.516 4.487-.516 2.22 0 4.15.471 1.952.449 3.387 1.503 1.458 1.032 2.288 2.692.853 1.66.853 4.038 0 2.064-.785 4.195-.785 2.131-2.154 4.218-1.368 2.086-3.23 4.082-1.84 1.997-3.993 3.814-2.154 1.795-4.51 3.343-2.332 1.525-4.665 2.692 1.906.83 3.79 1.458 1.885.628 3.814.628 1.369 0 2.715-.36l.314 1.123q-1.548.426-3.073.426-1.234 0-2.423-.225-1.167-.224-2.288-.583-1.122-.359-2.221-.807-1.077-.472-2.131-.943-2.378 1.077-4.577 1.638-2.176.583-4.015.583-.875 0-1.638-.157-.74-.157-1.323-.493-.561-.337-.898-.853-.314-.538-.314-1.256 0-.449.224-.965.247-.538.808-.987.56-.448 1.48-.74.92-.314 2.289-.314.964 0 1.929.18.965.156 1.907.426.942.269 1.862.628.92.359 1.84.74 2.175-1.122 4.419-2.647 2.265-1.525 4.374-3.32 2.131-1.795 3.993-3.791 1.885-2.02 3.275-4.106 1.391-2.086 2.199-4.195.807-2.13.807-4.15 0-1.951-.695-3.253-.695-1.3-1.884-2.086-1.19-.785-2.782-1.121-1.57-.337-3.343-.337-1.974 0-3.948.538-1.974.539-3.791 1.459t-3.387 2.153Q27.867-9.03 26.7-7.618 25.556-6.204 24.883-4.7q-.65 1.503-.65 2.938 0 1.369.515 2.31.538.943 1.39 1.526.876.584 1.93.853 1.077.247 2.154.247 1.234 0 2.176-.09.964-.112 1.705-.27.74-.156 1.323-.358l1.1-.382.336.965zM21.944 17.216q1.368 0 3.096-.494 1.727-.493 3.701-1.413-1.548-.65-3.028-1.1-1.48-.47-2.984-.47-.987 0-1.66.18-.673.179-1.1.47-.425.27-.605.606-.18.336-.18.628 0 .65.674 1.122.673.47 2.086.47zM77.915-13.047q-.427-.112-1.19-.291-.762-.18-2.108-.18-1.75 0-3.836.786-2.064.785-4.173 2.22-2.108 1.436-4.083 3.455-1.974 1.997-3.5 4.442Q57.5-.192 56.582 2.612q-.92 2.781-.92 5.765 0 2.086.56 3.702.584 1.615 1.593 2.714 1.032 1.1 2.446 1.66 1.435.56 3.14.56t3.388-.56q1.705-.56 3.32-1.548 1.637-1.01 3.14-2.378 1.503-1.368 2.827-2.96 1.324-1.616 2.4-3.388 1.1-1.795 1.862-3.59Q81.122.772 81.55-1q.426-1.795.426-3.432 0-1.728-.426-2.917-.427-1.21-1.167-1.974-.718-.762-1.66-1.099-.92-.336-1.93-.336-1.749 0-3.476 1.032-1.705 1.01-3.253 3.028l-.965-.74q1.728-2.221 3.657-3.365 1.952-1.144 3.993-1.144 1.368 0 2.535.516 1.189.493 2.041 1.48.853.965 1.324 2.378.493 1.413.493 3.253 0 1.817-.47 3.769-.45 1.929-1.28 3.858-.83 1.93-2.018 3.791-1.167 1.862-2.58 3.522-1.413 1.66-3.051 3.074-1.615 1.39-3.365 2.423-1.75 1.009-3.59 1.592-1.816.561-3.633.561-2.4 0-4.285-.852-1.862-.853-3.163-2.289-1.279-1.458-1.952-3.342-.673-1.907-.673-4.016 0-2.871.785-5.653.785-2.781 2.199-5.272 1.435-2.49 3.41-4.598 1.974-2.109 4.352-3.634 2.377-1.548 5.07-2.4 2.714-.876 5.608-.876.964 0 2.019.225 1.076.202 1.794.493l-.403.897zM103.645-13.405L88.01 18l-2.58-1.167q1.773-3.342 3.231-6.124 1.48-2.782 2.714-5.115 1.234-2.355 2.266-4.33 1.054-1.973 1.997-3.7.942-1.728 1.794-3.253.875-1.526 1.75-2.984-1.525 1.413-3.096 2.67-1.548 1.256-3.006 2.333-1.458 1.054-2.759 1.906-1.279.853-2.243 1.458-.942.584-1.503.92-.561.314-.584.314l-.56-1.032q.022-.022.875-.493.852-.494 2.22-1.391 1.391-.897 3.186-2.154 1.795-1.256 3.701-2.804 1.907-1.548 3.77-3.342 1.883-1.795 3.476-3.747l.987.629zM126.64.1q2.332-1.078 3.97-2.446 1.66-1.368 2.692-2.961 1.054-1.615 1.525-3.387.494-1.795.494-3.702 0-1.817-.583-3.208-.561-1.413-1.616-2.355-1.032-.965-2.49-1.459-1.435-.493-3.185-.493-3.298 0-5.653 1.503-2.333 1.48-3.814 4.195-1.48 2.692-2.131 6.483-.65 3.769-.56 8.345 2.624-1.144 5.047-2.333 2.422-1.189 4.419-2.602 2.019-1.436 3.5-3.186 1.502-1.75 2.265-4.015l1.032.27q-.83 2.803-2.423 4.957-1.592 2.131-3.724 3.858-2.13 1.705-4.733 3.119-2.58 1.413-5.429 2.781-.202 4.487-1.189 8.21-.987 3.702-2.58 6.35-1.57 2.669-3.656 4.127-2.086 1.48-4.464 1.48-1.369 0-2.49-.47-1.1-.45-1.862-1.28-.786-.807-1.212-1.95-.426-1.123-.426-2.49 0-2.895 1.324-5.25 1.3-2.356 3.566-4.33 2.289-1.974 5.317-3.612 3.051-1.637 6.506-3.118-.068-5.563.785-9.736.875-4.172 2.602-6.932 1.727-2.781 4.262-4.172 2.535-1.391 5.788-1.391 2.064 0 3.903.65 1.84.651 3.208 1.818 1.391 1.166 2.176 2.804.808 1.637.808 3.59 0 2.332-.875 4.396t-2.355 3.769q-1.48 1.705-3.41 3.006-1.93 1.3-4.038 2.064l-.292-.898zm-23.264 22.343q2.176 0 4.016-1.391 1.862-1.391 3.252-3.836 1.391-2.468 2.244-5.833.875-3.365 1.121-7.313-3.41 1.615-5.81 3.14-2.378 1.504-3.993 2.894-1.593 1.391-2.535 2.625-.92 1.234-1.39 2.31-.45 1.078-.561 1.952-.135.875-.135 1.526 0 .628.202 1.301.18.695.605 1.279.45.583 1.167.964.74.382 1.817.382z" style="-inkscape-font-specification:Parisienne"/></g><g style="line-height:125%" font-size="40"><path d="M23.276 32.227q.039-.059.156-.645.137-.586.137-1.426 0-1.172-.41-2.129-.391-.976-1.114-1.66-.722-.703-1.718-1.074-.996-.39-2.168-.39-1.602 0-3.34.585-1.719.567-3.457 1.602-1.719 1.035-3.399 2.48-1.68 1.446-3.203 3.184-1.504 1.738-2.793 3.73-1.27 1.973-2.207 4.082-.918 2.09-1.445 4.258t-.527 4.297q0 1.934.37 3.496.391 1.543 1.173 2.637.78 1.113 1.992 1.7 1.21.585 2.89.585 2.012 0 3.907-.84 1.914-.82 3.574-2.207 1.66-1.367 3.027-3.125 1.387-1.777 2.383-3.652.996-1.895 1.543-3.75.547-1.856.547-3.399 0-1.425-.45-2.578-.43-1.172-1.25-1.972-.82-.82-1.992-1.25-1.171-.45-2.636-.45-1.582 0-3.282.508-1.68.508-3.32 1.582-1.64 1.075-3.125 2.754-1.484 1.68-2.637 4.024l-.918-.45q1.23-2.5 2.832-4.277 1.622-1.797 3.399-2.95 1.797-1.151 3.652-1.679 1.856-.547 3.555-.547 1.758 0 3.223.586 1.484.586 2.539 1.7 1.074 1.093 1.66 2.714.605 1.602.605 3.653 0 1.718-.586 3.632-.566 1.915-1.601 3.79-1.035 1.875-2.5 3.593-1.465 1.7-3.262 2.989-1.777 1.308-3.828 2.07-2.05.781-4.277.781-2.032 0-3.711-.683-1.66-.684-2.852-2.012-1.191-1.328-1.855-3.301-.645-1.992-.645-4.59 0-3.008.879-5.976.898-2.989 2.422-5.704 1.543-2.714 3.594-5.058 2.07-2.344 4.433-4.063 2.363-1.718 4.903-2.695 2.558-.976 5.058-.976 1.953 0 3.34.546 1.406.547 2.285 1.446.899.898 1.309 2.07.41 1.172.41 2.422 0 .566-.078 1.152t-.235 1.172l-.976-.312zM61.186 28.418q-.02-.039-.273-.43-.254-.39-.86-.84-.605-.449-1.62-.8-1.017-.371-2.54-.371-2.422 0-4.785.957-2.344.937-4.473 2.578-2.129 1.64-3.945 3.847-1.797 2.188-3.125 4.688-1.328 2.48-2.07 5.137-.743 2.636-.743 5.175 0 1.778.547 3.282.567 1.504 1.602 2.578 1.055 1.094 2.558 1.699 1.504.625 3.418.625 1.68 0 3.34-.488 1.68-.489 3.262-1.367 1.582-.88 3.027-2.09 1.465-1.23 2.735-2.657 1.27-1.445 2.304-3.046 1.036-1.622 1.778-3.301.742-1.68 1.133-3.38.41-1.698.41-3.3 0-1.68-.45-2.969-.449-1.289-1.25-2.148-.8-.879-1.914-1.309-1.093-.449-2.402-.449-1.27 0-2.539.469-1.27.45-2.441 1.289-1.153.82-2.168 1.953-.996 1.133-1.739 2.48-.742 1.329-1.172 2.852-.41 1.504-.41 3.066 0 1.192.293 2.208.293.996.782 1.777.488.781 1.113 1.308.644.508 1.328.704l-.176.82q-.976-.137-1.992-.645-.996-.507-1.816-1.386-.801-.899-1.329-2.188-.507-1.308-.507-3.008 0-1.601.468-3.164.47-1.582 1.309-2.988.86-1.426 2.031-2.617 1.172-1.211 2.578-2.07 1.426-.88 3.028-1.368 1.62-.508 3.32-.508 1.621 0 2.93.567 1.308.547 2.226 1.582.918 1.016 1.406 2.48.508 1.465.508 3.282 0 1.718-.43 3.535-.41 1.797-1.19 3.574-.763 1.758-1.856 3.457-1.094 1.68-2.422 3.184-1.328 1.504-2.871 2.754-1.524 1.27-3.203 2.187-1.68.918-3.457 1.426-1.778.508-3.575.508-2.09 0-3.945-.703-1.855-.684-3.242-2.032-1.367-1.347-2.168-3.3-.8-1.973-.8-4.512 0-2.832.722-5.567.742-2.734 2.07-5.175 1.348-2.461 3.223-4.532 1.875-2.07 4.16-3.574t4.922-2.344q2.637-.859 5.488-.859 1.328 0 2.344.215 1.015.215 1.758.547.761.312 1.27.703.507.37.82.722.312.333.449.567.136.234.156.273l-.918.43zM66.987 46.152q1.015-1.406 2.148-2.695 1.153-1.309 2.324-2.305 1.172-1.015 2.364-1.62 1.191-.606 2.324-.606.703 0 1.152.215.45.215.703.547.274.332.371.761.118.41.118.82 0 .587-.235 1.27-.215.684-.683 1.387-.45.683-1.153 1.328-.703.625-1.68 1.133.216.508.216 1.23 0 .45-.118.918-.117.45-.254.899-.136.449-.253.918-.118.449-.118.918 0 .234.02.449.039.215.117.39.098.176.273.293.196.098.528.098.39 0 .898-.312.508-.332 1.074-.86.567-.527 1.153-1.21.605-.704 1.172-1.466.566-.761 1.093-1.504.528-.761.957-1.425l.723.547q-.996 1.484-1.953 2.832-.937 1.347-1.895 2.363-.937 1.016-1.914 1.621-.976.605-2.011.605-.41 0-.86-.117-.43-.117-.8-.39-.352-.254-.586-.684-.235-.43-.235-1.055 0-.742.371-1.738.332-.937.489-1.562.156-.645.175-1.075-.41.098-.879.176-.449.078-.859.078-.215 0-.469-.039-.254-.058-.468-.176-.215-.117-.371-.293-.137-.195-.137-.488t.176-.547q.195-.273.507-.468.332-.215.782-.332.449-.118.996-.118 1.015 0 1.738.547.703-.547 1.152-1.191.47-.645.723-1.25.254-.606.352-1.074.097-.489.097-.723 0-.645-.234-.879-.235-.254-.567-.254-.625 0-1.406.41-.762.41-1.601 1.114-.82.703-1.7 1.62-.859.919-1.699 1.934-.82 1.016-1.601 2.051-.762 1.035-1.407 1.953-.586.977-1.054 1.817-.45.84-.762 1.445-.313.605-.488.918-.176.312-.196.215l-1.933-.508q2.304-5.254 4.668-10.508 2.363-5.254 4.98-10.625.39-.781.88-1.7.507-.937 1.073-1.855.586-.937 1.23-1.816.665-.879 1.348-1.543.704-.684 1.426-1.074.723-.41 1.446-.41.761 0 1.23.43.488.429.488 1.366 0 1.29-.703 3.145-.683 1.836-2.05 3.906-1.368 2.07-3.419 4.2-2.03 2.109-4.746 3.925l-2.558 5.703zm3.418-7.578q2.363-1.836 4.062-3.77 1.719-1.952 2.813-3.75 1.113-1.796 1.62-3.32.528-1.543.528-2.578 0-.293-.156-.468-.156-.176-.488-.176-.723 0-1.485.722-.761.704-1.738 2.344-.957 1.64-2.207 4.336-1.25 2.695-2.95 6.66zm2.5 7.617q-.098-.214-.332-.37-.215-.176-.489-.176-.566 0-.996.234-.43.234-.43.45 0 .155.176.214.196.04.352.04.508 0 .937-.118.43-.117.782-.274z" style="-inkscape-font-specification:Parisienne"/><path d="M85.483 36.895q.195-.332.683-1.153.508-.82 1.172-1.816.684-.996 1.465-1.992.8-1.016 1.563-1.72l.879.528q-.84 1.387-1.72 2.95-.878 1.542-1.737 3.203h6.367l-.39 1.015H87.26q-.879 1.758-1.66 3.496-.762 1.739-1.348 3.32-.586 1.583-.918 2.97-.332 1.367-.332 2.382 0 1.27.586 1.836.586.547 1.446.547.761 0 1.562-.45.8-.468 1.563-1.171.78-.703 1.464-1.543.704-.84 1.23-1.582.548-.742.9-1.29.35-.566.43-.702l.722.547q-.684 1.132-1.543 2.402-.86 1.27-1.914 2.363-1.035 1.074-2.266 1.797-1.23.703-2.656.703-.88 0-1.543-.312-.645-.313-1.094-.86-.45-.566-.664-1.328-.234-.762-.234-1.66 0-.586.195-1.66.176-1.074.625-2.54.45-1.484 1.191-3.32.762-1.835 1.914-3.945h-3.242l.39-1.015h3.419z" style="-inkscape-font-specification:Parisienne"/><path d="M103.237 47.695q.078.02.156.02h.176q.547 0 .996-.098.45-.117.82-.351.39-.235.742-.606.352-.39.684-.937l.703.547q-.937 1.328-1.933 1.855-.997.527-2.11.527-.41 0-.723-.078-.84 1.407-1.796 2.403-.957.976-1.954 1.601-.996.625-1.972.899-.977.293-1.817.293-.859 0-1.601-.313-.723-.293-1.25-.86-.527-.566-.82-1.347-.293-.781-.293-1.758 0-.976.312-1.992.313-1.016.84-2.012.547-.996 1.27-1.914.722-.937 1.562-1.738.84-.8 1.738-1.445.899-.645 1.797-1.055l.625.82q-1.035.742-2.11 1.875-1.054 1.133-1.933 2.48-.86 1.348-1.426 2.813-.547 1.446-.547 2.813 0 1.23.547 1.914.547.664 1.66.664.86 0 1.7-.352.84-.351 1.64-.957.801-.605 1.543-1.425.743-.84 1.407-1.778-.567-.332-.997-.879-.43-.566-.722-1.27-.293-.722-.45-1.542-.136-.82-.136-1.68t.215-1.621q.215-.762.586-1.328.39-.586.898-.918.508-.332 1.113-.332.547 0 .977.293.43.273.723.781.293.488.449 1.172.156.684.156 1.465 0 .586-.098 1.289-.097.703-.293 1.426-.175.703-.449 1.406-.254.683-.605 1.23zm-2.656-4.863q0 .566.097 1.23.098.665.313 1.29t.547 1.171q.332.528.82.84.351-.683.586-1.386.254-.723.41-1.387.176-.664.234-1.23.078-.587.078-1.016 0-.586-.097-1.074-.098-.489-.274-.84-.156-.371-.41-.567-.234-.215-.527-.215-.39 0-.723.274-.332.254-.566.703-.235.43-.371 1.016-.118.566-.118 1.191z" style="-inkscape-font-specification:Parisienne"/><path d="M117.963 44.14q-.742-.175-1.289-.488-.527-.332-.86-.742-.331-.41-.487-.86-.157-.468-.157-.917 0-.977.547-1.504.547-.547 1.367-.547.547 0 .938.293.39.273.644.742t.372 1.094q.117.605.117 1.27 0 .449-.04.898-.038.43-.136.879-.469 2.11-1.387 3.828-.898 1.7-2.05 2.93-1.133 1.21-2.422 1.875-1.29.644-2.52.644-.84 0-1.602-.234-.742-.235-1.328-.781-.566-.547-.898-1.426-.332-.899-.332-2.207 0-1.621.625-3.867.644-2.247 2.168-5.274 2.187-4.238 4.394-7.598.938-1.425 1.973-2.792 1.035-1.368 2.07-2.442 1.055-1.074 2.07-1.719 1.036-.664 1.954-.664.117 0 .41.04.312.038.625.214.312.156.547.508.254.332.254.938 0 .722-.39 1.835-.372 1.094-1.134 2.442-.742 1.328-1.855 2.851-1.094 1.504-2.54 3.028-1.425 1.523-3.183 2.988-1.738 1.465-3.789 2.734-.684 1.485-1.152 2.696-.45 1.191-.723 2.168-.273.957-.39 1.699-.118.742-.118 1.289 0 .762.196 1.27.214.488.566.78.352.274.8.391.45.118.938.118.918 0 1.778-.47.878-.468 1.66-1.21.781-.762 1.426-1.7.664-.937 1.152-1.855.488-.937.8-1.758.313-.84.391-1.386zm-6.504-3.808q1.797-1.23 3.301-2.598 1.524-1.367 2.754-2.734 1.23-1.387 2.168-2.695.938-1.328 1.563-2.48.625-1.153.937-2.052.332-.917.332-1.484 0-.508-.371-.508-.703 0-1.7.762-.976.762-2.284 2.48-1.29 1.72-2.97 4.493-1.66 2.773-3.73 6.816zm6.641 2.793q.02-.176.02-.352.019-.175.019-.332 0-1.054-.273-1.699-.274-.644-.782-.644-.117 0-.273.039-.137.02-.293.136-.137.098-.234.293-.098.196-.098.508 0 .801.547 1.328.566.508 1.367.723zM122.377 48.555q-.039.234-.058.468-.02.235-.02.47 0 .702.196 1.347.214.625.605 1.113.41.469.996.742.606.274 1.367.274 2.559 0 4.942-1.738 2.383-1.739 4.746-5.508l.664.586q-1.29 2.148-2.617 3.632-1.328 1.465-2.657 2.383-1.308.918-2.578 1.328-1.27.41-2.422.41-.84 0-1.777-.234-.937-.234-1.738-.781-.781-.547-1.29-1.465-.527-.918-.527-2.285 0-1.465.508-2.813.489-1.367 1.29-2.539.8-1.172 1.835-2.129 1.035-.976 2.09-1.66 1.074-.683 2.09-1.054 1.016-.391 1.797-.391.508 0 1.035.156.527.156.937.489.43.332.684.878.274.547.274 1.309 0 1.035-.489 1.953-.469.899-1.27 1.68-.8.762-1.855 1.387-1.054.605-2.207 1.035-1.152.43-2.324.683-1.172.254-2.227.274zm.157-.84q1.308-.137 2.46-.547 1.153-.41 2.11-.996.957-.606 1.7-1.309.76-.703 1.269-1.425.508-.723.781-1.387t.273-1.192q0-.527-.293-.84-.273-.312-.664-.312-.859 0-1.933.625-1.074.606-2.149 1.7-1.074 1.074-2.03 2.538-.938 1.465-1.524 3.145z" style="-inkscape-font-specification:Parisienne"/><path d="M147.514 46.27q-.293.43-.703 1.171-.39.723-.918 1.582-.527.84-1.172 1.72-.625.878-1.387 1.581-.742.703-1.62 1.153-.88.449-1.876.449-.547 0-1.035-.176-.488-.156-.86-.508-.37-.351-.585-.86-.215-.526-.215-1.23 0-.957.371-1.992.39-1.054.899-2.031.507-.977 1.015-1.777.508-.82.742-1.309.235-.488.235-.84 0-.254-.176-.449-.156-.195-.41-.371-.235-.195-.508-.39-.254-.216-.43-.509-.488.782-.996 1.582-.449.684-.976 1.543-.528.84-1.016 1.66l-.703-.546 4.18-6.543.566.293q-.04.117-.137.37-.078.255-.078.548 0 .215.059.43.078.195.293.37.781.704 1.23 1.094.45.371.645.606.215.215.254.37.058.137.058.372 0 .234-.078.566-.078.332-.273.801-.176.469-.508 1.113-.313.625-.8 1.465-.294.508-.587 1.035-.273.508-.508 1.035-.214.528-.351 1.055-.137.528-.137 1.016 0 .37.098.605.117.215.293.332.176.117.37.157.216.039.411.039.645 0 1.27-.371.644-.391 1.25-.997.625-.605 1.19-1.367.587-.781 1.114-1.582.528-.8.977-1.523.449-.742.8-1.29l.723.548z" style="-inkscape-font-specification:Parisienne"/></g></g></svg><svg id="wifi" data-name="Layer 1" width="62" height="66" viewBox="-1 -1 62 66" y="148.75" xmlns="http://www.w3.org/2000/svg"><defs><style>.mcls-1{fill:#d4953e}</style></defs><title>wifi</title><path class="mcls-1" d="M29.88 0A55.39 55.39 0 0 0 0 8.72l4.22 6.48a47.32 47.32 0 0 1 25.66-7.28 47.31 47.31 0 0 1 25.9 7.28L60 8.72A55.53 55.53 0 0 0 29.88 0zm0 24a31.08 31.08 0 0 0-17 5l4.22 6.72A23.09 23.09 0 0 1 29.8 32a24.17 24.17 0 0 1 13 3.76L47 29a32.37 32.37 0 0 0-17.2-5h.07zm0 24a8 8 0 1 0 8 8 8 8 0 0 0-8-8z"/></svg><svg id="youtube" data-name="Layer 1" width="36.75" height="44" viewBox="-1 -1 36.75 44" x="89.23" y="214.75" xmlns="http://www.w3.org/2000/svg"><defs><style>.ncls-1{fill:#fff}</style></defs><title>youtube</title><path class="ncls-1" d="M22.13 29.15v5q0 1.57-.91 1.57a1.5 1.5 0 0 1-1.06-.52v-7.11a1.5 1.5 0 0 1 1.06-.54q.91 0 .91 1.6zm7.92 0v1.08h-2.1v-1.06q0-1.59 1.06-1.59t1 1.59zM7.42 24h2.5v-2.14h-7.3v2.2h2.46V37.4h2.34V24zm6.75 13.4h2.09V25.82h-2.09v8.86a1.86 1.86 0 0 1-1.31 1 .48.48 0 0 1-.49-.47 6.52 6.52 0 0 1 0-.82v-8.57h-2.14V35a5.79 5.79 0 0 0 .19 1.71 1.26 1.26 0 0 0 1.36.87 3.43 3.43 0 0 0 2.39-1.43v1.25zm10.05-3.47v-4.6A8.33 8.33 0 0 0 24 27a1.63 1.63 0 0 0-1.67-1.31A2.82 2.82 0 0 0 20.16 27v-5.1h-2.08v15.5h2.09v-1.13a2.91 2.91 0 0 0 2.18 1.31A1.62 1.62 0 0 0 24 36.27a8.61 8.61 0 0 0 .22-2.35zm7.92-.24v-.3H30a11.6 11.6 0 0 1 0 1.43.9.9 0 0 1-.94.85q-1.08 0-1.08-1.61V32h4.19v-2.41a4.65 4.65 0 0 0-.66-2.72 3.2 3.2 0 0 0-5 0 4.52 4.52 0 0 0-.66 2.72v4.05a4.4 4.4 0 0 0 .66 2.72 3 3 0 0 0 2.49 1.2 2.9 2.9 0 0 0 3-2.51 10.31 10.31 0 0 0 .09-1.36zM17.89 12.3V7.38q0-1.61-1-1.61t-1 1.61v4.92q0 1.64 1 1.64t1-1.64zm16.85 17.6a40.6 40.6 0 0 1-.61 8.2 4.45 4.45 0 0 1-1.36 2.32 4.1 4.1 0 0 1-2.39 1.08 125.31 125.31 0 0 1-13 .49 125.31 125.31 0 0 1-13-.49A4.15 4.15 0 0 1 2 40.42 4.28 4.28 0 0 1 .63 38.1 39.76 39.76 0 0 1 0 29.9a40.6 40.6 0 0 1 .61-8.2A4.45 4.45 0 0 1 2 19.37a4.25 4.25 0 0 1 2.41-1.1q4.29-.47 13-.47t13 .47a4.4 4.4 0 0 1 3.75 3.42 39.76 39.76 0 0 1 .58 8.21zM11.35 0h2.39l-2.83 9.35v6.35H8.57V9.35a39.68 39.68 0 0 0-1.43-5Q6.27 2 5.61 0H8.1l1.67 6.16zM20 7.8v4.1a4.59 4.59 0 0 1-.66 2.76 2.88 2.88 0 0 1-2.49 1.19 2.9 2.9 0 0 1-2.46-1.19 4.68 4.68 0 0 1-.66-2.76V7.8a4.59 4.59 0 0 1 .66-2.74 2.9 2.9 0 0 1 2.46-1.19 2.88 2.88 0 0 1 2.49 1.19A4.59 4.59 0 0 1 20 7.8zM27.87 4v11.7h-2.13v-1.27a3.37 3.37 0 0 1-2.41 1.45A1.31 1.31 0 0 1 22 15a6 6 0 0 1-.19-1.76V4h2.13v8.6a6.14 6.14 0 0 0 0 .82.49.49 0 0 0 .47.52 1.87 1.87 0 0 0 1.31-1V4h2.16z"/></svg></svg>