<?xml version="1.0" encoding="UTF-8" standalone="no"?>
<!-- Generator: Adobe Illustrator 19.0.0, SVG Export Plug-In . SVG Version: 6.00 Build 0)  -->

<svg
   xmlns:dc="http://purl.org/dc/elements/1.1/"
   xmlns:cc="http://creativecommons.org/ns#"
   xmlns:rdf="http://www.w3.org/1999/02/22-rdf-syntax-ns#"
   xmlns:svg="http://www.w3.org/2000/svg"
   xmlns="http://www.w3.org/2000/svg"
   xmlns:sodipodi="http://sodipodi.sourceforge.net/DTD/sodipodi-0.dtd"
   xmlns:inkscape="http://www.inkscape.org/namespaces/inkscape"
   version="1.1"
   id="Layer_1"
   x="0px"
   y="0px"
   viewBox="0 0 63.640057 95.459625"
   xml:space="preserve"
   inkscape:version="0.91 r13725"
   sodipodi:docname="baby-orange.svg"
   width="63.640057"
   height="95.459625"><metadata
     id="metadata55"><rdf:RDF><cc:Work
         rdf:about=""><dc:format>image/svg+xml</dc:format><dc:type
           rdf:resource="http://purl.org/dc/dcmitype/StillImage" /><dc:title></dc:title></cc:Work></rdf:RDF></metadata><defs
     id="defs53" /><sodipodi:namedview
     pagecolor="#ffffff"
     bordercolor="#666666"
     borderopacity="1"
     objecttolerance="10"
     gridtolerance="10"
     guidetolerance="10"
     inkscape:pageopacity="0"
     inkscape:pageshadow="2"
     inkscape:window-width="1920"
     inkscape:window-height="1029"
     id="namedview51"
     showgrid="false"
     fit-margin-top="0"
     fit-margin-left="0"
     fit-margin-right="0"
     fit-margin-bottom="0"
     inkscape:zoom="0.4609375"
     inkscape:cx="175.00595"
     inkscape:cy="-160.54038"
     inkscape:window-x="0"
     inkscape:window-y="0"
     inkscape:window-maximized="1"
     inkscape:current-layer="Layer_1" /><g
     id="g3"
     transform="matrix(0.18644458,0,0,0.18644458,-15.909881,0)"><g
       id="g5"><g
         id="g7"><path
           d="m 417.351,227.979 c -3.613,-1.979 -8.083,-1.677 -11.425,0.771 -27.278,19.938 -49.084,34.885 -63.016,43.219 -24.166,14.458 -60.468,32.385 -86.681,44.885 -3.3,1.583 -5.577,4.74 -5.995,8.375 -0.439,3.625 1.023,7.229 3.864,9.531 47.288,38.271 101.219,74.802 129.144,93.167 1.775,1.156 3.822,1.76 5.89,1.76 0.919,0 1.859,-0.115 2.757,-0.365 2.966,-0.781 5.431,-2.792 6.809,-5.521 7.645,-15.198 12.783,-31.135 15.268,-47.354 l 1.984,-13.188 6.976,-125.313 c 0.232,-4.123 -1.941,-7.998 -5.575,-9.967 z"
           id="path9"
           inkscape:connector-curvature="0" /><path
           d="M 370.543,445.156 C 340.487,425.416 264.708,374.26 210.486,325.771 165.997,286 129.298,244.292 106.343,216.302 c -2.924,-3.583 -7.874,-4.854 -12.135,-3.198 -4.324,1.677 -7.06,5.927 -6.809,10.542 l 7.874,140.646 1.88,12.156 C 109.247,454.99 175.876,512 255.56,512 c 44.051,0 86.66,-18.458 116.905,-50.646 2.151,-2.292 3.175,-5.417 2.799,-8.542 -0.355,-3.124 -2.089,-5.927 -4.721,-7.656 z"
           id="path11"
           inkscape:connector-curvature="0" /><path
           d="M 255.56,0 C 167.96,0 94.856,65.438 85.498,152.219 c -0.418,3.927 -0.251,6.406 3.029,8.625 0.752,0.823 2.569,3.146 5.368,6.677 15.999,20.25 64.708,81.875 124.257,136.344 2.005,1.844 4.595,2.802 7.227,2.802 1.546,0 3.091,-0.333 4.533,-1 20.595,-9.615 71.789,-33.927 101.991,-52 25.566,-15.281 71.371,-49.344 89.877,-63.281 2.527,-1.885 4.073,-4.781 4.24,-7.917 l 0.648,-11.802 C 426.667,76.563 349.907,0 255.56,0 Z M 357.552,169.354 C 348.236,219.167 305.418,256 255.56,256 c -49.858,0 -92.676,-36.833 -101.991,-86.646 -9.587,-5.406 -15.644,-15.5 -15.644,-26.875 0,-12.958 8.146,-24.323 19.822,-28.833 11.783,-33.77 39.572,-58.753 72.653,-67.422 -1.794,3.333 -3.378,6.805 -4.77,10.557 -3.425,9.219 -2.757,19.281 1.838,28.344 4.992,9.792 13.932,17.135 24.563,20.146 3.008,0.854 6.078,1.281 9.107,1.281 5.556,0 11.07,-1.417 16.041,-4.188 7.728,-4.292 13.326,-11.333 15.749,-19.833 4.282,-15.146 -4.553,-30.969 -19.717,-35.26 -5.786,-1.656 -11.613,1.677 -13.221,7.344 -1.608,5.667 1.692,11.573 7.373,13.177 3.843,1.083 6.057,5.094 4.971,8.917 -0.856,3.01 -2.82,5.5 -5.556,7.021 -2.736,1.531 -5.911,1.896 -8.898,1.021 -4.825,-1.375 -9.065,-4.844 -11.321,-9.281 -1.337,-2.615 -2.569,-6.698 -0.877,-11.281 2.841,-7.641 6.235,-14.176 15.933,-21.025 41.258,2.546 77.765,30.37 91.761,70.483 11.676,4.51 19.822,15.875 19.822,28.833 -0.002,11.374 -6.059,21.468 -15.646,26.874 z"
           id="path13"
           inkscape:connector-curvature="0" /><circle
           cx="212.77901"
           cy="149.33299"
           r="10.688"
           id="circle15" /><circle
           cx="298.34698"
           cy="149.33299"
           r="10.688"
           id="circle17" /><path
           d="m 234.172,198.249 c 0,8.331 9.575,15.085 21.388,15.085 11.813,0 21.388,-6.754 21.388,-15.085 0.001,-8.332 -42.776,-8.332 -42.776,0 z"
           id="path19"
           inkscape:connector-curvature="0" /></g></g></g><g
     id="g21"
     transform="translate(-85.333031,0)" /><g
     id="g23"
     transform="translate(-85.333031,0)" /><g
     id="g25"
     transform="translate(-85.333031,0)" /><g
     id="g27"
     transform="translate(-85.333031,0)" /><g
     id="g29"
     transform="translate(-85.333031,0)" /><g
     id="g31"
     transform="translate(-85.333031,0)" /><g
     id="g33"
     transform="translate(-85.333031,0)" /><g
     id="g35"
     transform="translate(-85.333031,0)" /><g
     id="g37"
     transform="translate(-85.333031,0)" /><g
     id="g39"
     transform="translate(-85.333031,0)" /><g
     id="g41"
     transform="translate(-85.333031,0)" /><g
     id="g43"
     transform="translate(-85.333031,0)" /><g
     id="g45"
     transform="translate(-85.333031,0)" /><g
     id="g47"
     transform="translate(-85.333031,0)" /><g
     id="g49"
     transform="translate(-85.333031,0)" /><path
     style="fill:#d4953f;fill-opacity:1"
     d="M 28.600709,94.977699 C 14.930479,93.732186 3.792897,82.594649 2.183957,68.561043 1.871468,65.835428 0.75640198,45.693762 0.75567898,42.761776 c -5.03e-4,-2.051502 0.11124,-2.382219 0.90952802,-2.691829 1.226621,-0.475739 1.59418,-0.172242 5.915266,4.884291 10.299296,12.052225 22.209076,22.363355 39.488736,34.188165 6.84893,4.686866 7.48554,5.439984 5.99873,7.096593 -1.42454,1.587221 -5.3225,4.354173 -8.0757,5.732506 -5.17067,2.588606 -10.41615,3.550624 -16.39153,3.006197 z"
     id="path3435"
     inkscape:connector-curvature="0" /><path
     style="fill:#d4953f;fill-opacity:1"
     d="m 49.698389,75.553267 c -3.22582,-2.240264 -8.68643,-6.19385 -12.1347,-8.785746 -8.46839,-6.365261 -8.50261,-5.874789 0.73891,-10.588354 8.48854,-4.329512 10.53145,-5.538843 17.12312,-10.136292 2.81635,-1.964287 5.38785,-3.571432 5.71446,-3.571432 1.55018,0 1.63998,0.843501 1.13171,10.629101 -0.84996,16.363848 -1.3357,19.788659 -3.46917,24.4604 -1.39929,3.064084 -1.98847,2.934157 -9.10433,-2.007677 z"
     id="path3437"
     inkscape:connector-curvature="0" /><path
     style="fill:#d4953f;fill-opacity:1"
     d="M 20.027629,51.673589 C 10.567669,42.250291 0.35061398,30.000482 0.35061398,28.081695 c 0,-3.917613 3.42910202,-12.040117 6.85041202,-16.226558 9.128133,-11.16951001 25.178873,-14.7210001 38.200933,-8.4525805 3.91388,1.8840213 7.90019,4.9849598 10.5987,8.2447015 2.53511,3.062343 5.51619,8.794941 6.45863,12.419894 0.76769,2.952773 1.2385,9.543995 0.74403,10.416407 -0.45171,0.796978 -7.32615,5.910642 -13.78908,10.25725 -4.59005,3.08699 -22.14569,12.292273 -23.44294,12.292273 -0.30983,0 -2.98449,-2.411773 -5.94367,-5.359493 z m 17.49927,-4.710107 c 5.932,-1.846247 10.83452,-6.810778 12.82414,-12.986327 0.3942,-1.223581 1.11207,-2.537062 1.59524,-2.918842 1.3345,-1.054441 1.92499,-2.887687 1.69639,-5.266694 -0.17547,-1.826357 -0.41648,-2.299796 -1.79926,-3.534603 -0.87816,-0.784183 -2.2068,-2.57535 -2.95255,-3.980376 -2.65834,-5.008399 -7.71456,-8.8335176 -13.19122,-9.9793862 -2.31774,-0.4849319 -2.81098,-0.4827449 -3.57191,0.015837 -1.09589,0.718051 -2.65384,3.4276962 -2.65384,4.6156532 0,1.079702 2.08029,3.250855 3.11481,3.250855 2.27965,0 3.46081,-2.837382 1.5446,-3.710466 -1.69048,-0.770231 -1.79058,-2.8664578 -0.16159,-3.3834813 2.13742,-0.6783921 5.13246,2.9993233 4.62882,5.6839143 -0.58635,3.12556 -4.15086,5.441202 -7.13769,4.636933 -2.17646,-0.58606 -4.2208,-2.486787 -5.07204,-4.715718 -0.66832,-1.74996 -0.66982,-1.965001 -0.0263,-3.776971 0.37533,-1.0567487 0.68241,-2.0334476 0.68241,-2.1704413 0,-0.5496449 -1.24296,-0.1799524 -3.95258,1.1756167 -3.39182,1.6968576 -7.12497,5.4527346 -8.778025,8.8314566 -0.60213,1.230705 -1.542158,2.53078 -2.088951,2.889055 -1.463094,0.958655 -2.570279,3.022126 -2.572,4.793464 -0.0019,1.839089 1.014307,4.174032 2.059926,4.73363 0.408384,0.21856 0.948751,1.163282 1.200817,2.099381 1.682302,6.247597 6.603913,11.500217 12.759013,13.617151 3.18839,1.096583 8.47152,1.132404 11.85175,0.08035 z"
     id="path3439"
     inkscape:connector-curvature="0" /><path
     style="fill:#d4953f;fill-opacity:1"
     d="m 30.080629,39.257627 c -0.44495,-0.182111 -1.15963,-0.720935 -1.58818,-1.197388 -1.20672,-1.341579 -0.31511,-1.85839 3.20613,-1.85839 3.31394,0 4.18127,0.43171 3.48418,1.734232 -0.71736,1.34041 -3.3745,2.028654 -5.10213,1.321546 z"
     id="path3441"
     inkscape:connector-curvature="0" /><path
     style="fill:#d4953f;fill-opacity:1"
     d=""
     id="path3443"
     inkscape:connector-curvature="0" /><path
     style="fill:#d4953f;fill-opacity:1"
     d="m 22.448759,28.67235 c -0.68652,-0.980147 -0.48447,-1.825113 0.57158,-2.390291 1.01053,-0.540821 1.96422,-0.08794 2.25506,1.07088 0.48833,1.945647 -1.67931,2.957449 -2.82664,1.319411 z"
     id="path3445"
     inkscape:connector-curvature="0" /><path
     style="fill:#d4953f;fill-opacity:1"
     d="m 38.453569,29.042377 c -0.74558,-0.745573 -0.57841,-1.830524 0.38613,-2.506113 1.51318,-1.059876 3.23294,0.559641 2.34872,2.211823 -0.46683,0.872269 -1.99269,1.036462 -2.73485,0.29429 z"
     id="path3447"
     inkscape:connector-curvature="0" /></svg>