<?xml version="1.0" encoding="UTF-8" standalone="no"?>
<!-- Generator: Adobe Illustrator 16.0.0, SVG Export Plug-In . SVG Version: 6.00 Build 0)  -->

<svg
   xmlns:dc="http://purl.org/dc/elements/1.1/"
   xmlns:cc="http://creativecommons.org/ns#"
   xmlns:rdf="http://www.w3.org/1999/02/22-rdf-syntax-ns#"
   xmlns:svg="http://www.w3.org/2000/svg"
   xmlns="http://www.w3.org/2000/svg"
   xmlns:sodipodi="http://sodipodi.sourceforge.net/DTD/sodipodi-0.dtd"
   xmlns:inkscape="http://www.inkscape.org/namespaces/inkscape"
   version="1.1"
   id="Capa_1"
   x="0px"
   y="0px"
   width="63.741039"
   height="22.679895"
   viewBox="0 0 63.741037 22.679895"
   xml:space="preserve"
   inkscape:version="0.91 r13725"
   sodipodi:docname="car-orange.svg"><metadata
     id="metadata47"><rdf:RDF><cc:Work
         rdf:about=""><dc:format>image/svg+xml</dc:format><dc:type
           rdf:resource="http://purl.org/dc/dcmitype/StillImage" /><dc:title></dc:title></cc:Work></rdf:RDF></metadata><defs
     id="defs45" /><sodipodi:namedview
     pagecolor="#ffffff"
     bordercolor="#666666"
     borderopacity="1"
     objecttolerance="10"
     gridtolerance="10"
     guidetolerance="10"
     inkscape:pageopacity="0"
     inkscape:pageshadow="2"
     inkscape:window-width="1920"
     inkscape:window-height="1029"
     id="namedview43"
     showgrid="false"
     fit-margin-top="0"
     fit-margin-left="0"
     fit-margin-right="0"
     fit-margin-bottom="0"
     inkscape:zoom="6.7447612"
     inkscape:cx="122.85691"
     inkscape:cy="28.843922"
     inkscape:window-x="0"
     inkscape:window-y="0"
     inkscape:window-maximized="1"
     inkscape:current-layer="Capa_1" /><g
     id="g3"
     transform="matrix(0.64406628,0,0,0.64406628,3.7442127e-4,-20.530511)"><g
       id="g5"><path
         d="m 17.275,52.156 c -4.124,0 -7.468,3.343 -7.468,7.468 0,0.318 0.026,0.631 0.066,0.938 0.463,3.681 3.596,6.528 7.401,6.528 3.908,0 7.112,-3.004 7.437,-6.83 0.017,-0.209 0.031,-0.422 0.031,-0.637 10e-4,-4.124 -3.342,-7.467 -7.467,-7.467 z m -3.738,4.654 1.522,1.523 c -0.118,0.203 -0.211,0.422 -0.271,0.656 l -2.146,0 c 0.11,-0.812 0.421,-1.554 0.895,-2.179 z m -0.905,3.472 2.163,0 c 0.061,0.23 0.151,0.448 0.271,0.648 l -1.526,1.525 c -0.473,-0.62 -0.791,-1.362 -0.908,-2.173 z m 3.997,3.981 C 15.82,64.15 15.085,63.833 14.463,63.364 l 1.518,-1.519 c 0.2,0.117 0.419,0.203 0.648,0.263 l 0,2.155 z m 0,-7.123 c -0.235,0.062 -0.455,0.154 -0.66,0.275 l -1.521,-1.521 c 0.625,-0.475 1.367,-0.789 2.181,-0.902 l 0,2.148 z m 1.293,-2.15 c 0.814,0.113 1.557,0.429 2.181,0.903 l -1.52,1.521 c -0.204,-0.121 -0.426,-0.213 -0.66,-0.275 l -10e-4,-2.149 0,0 z m 0,9.271 0,-2.152 c 0.23,-0.061 0.447,-0.146 0.647,-0.264 l 1.519,1.519 c -0.622,0.469 -1.358,0.784 -2.166,0.897 z m 3.092,-1.799 -1.531,-1.533 c 0.12,-0.201 0.217,-0.416 0.278,-0.646 l 2.146,0 c -0.114,0.808 -0.419,1.556 -0.893,2.179 z m -1.25,-3.473 c -0.061,-0.234 -0.153,-0.453 -0.271,-0.656 l 1.524,-1.523 c 0.471,0.625 0.782,1.367 0.894,2.18 l -2.147,0 z"
         id="path7"
         inkscape:connector-curvature="0" /><path
         d="m 79.284,52.156 c -4.124,0 -7.468,3.343 -7.468,7.468 0,0.318 0.026,0.631 0.066,0.938 0.463,3.681 3.596,6.528 7.4,6.528 3.908,0 7.112,-3.004 7.438,-6.83 0.017,-0.209 0.031,-0.422 0.031,-0.637 0.002,-4.124 -3.342,-7.467 -7.467,-7.467 z m -3.738,4.654 1.521,1.523 c -0.118,0.203 -0.211,0.422 -0.271,0.656 l -2.146,0 c 0.111,-0.812 0.422,-1.554 0.896,-2.179 z m -0.904,3.472 2.163,0 c 0.061,0.23 0.151,0.448 0.271,0.648 l -1.525,1.525 c -0.475,-0.62 -0.794,-1.362 -0.909,-2.173 z m 3.996,3.981 c -0.809,-0.113 -1.544,-0.43 -2.166,-0.899 l 1.518,-1.519 c 0.2,0.117 0.419,0.203 0.648,0.263 l 0,2.155 z m 0,-7.123 c -0.235,0.062 -0.455,0.154 -0.66,0.275 l -1.521,-1.521 c 0.625,-0.475 1.366,-0.789 2.181,-0.902 l 0,2.148 z m 1.294,-2.15 c 0.814,0.113 1.557,0.429 2.181,0.903 l -1.521,1.521 c -0.204,-0.121 -0.426,-0.215 -0.66,-0.275 l 0,-2.149 z m 0,9.271 0,-2.152 c 0.23,-0.061 0.447,-0.146 0.647,-0.264 l 1.519,1.519 c -0.622,0.469 -1.359,0.784 -2.166,0.897 z m 3.091,-1.799 -1.531,-1.531 c 0.12,-0.202 0.218,-0.416 0.278,-0.647 l 2.146,0 c -0.114,0.807 -0.418,1.555 -0.893,2.178 z m -1.25,-3.473 c -0.061,-0.234 -0.152,-0.453 -0.271,-0.656 l 1.523,-1.523 c 0.472,0.625 0.782,1.367 0.895,2.18 l -2.147,0 z"
         id="path9"
         inkscape:connector-curvature="0" /><path
         d="m 97.216,48.29 0,-5.526 c 0,-0.889 -0.646,-1.642 -1.524,-1.779 -2.107,-0.33 -5.842,-0.953 -7.52,-1.47 -2.406,-0.742 -11.702,-4.678 -14.921,-5.417 -3.22,-0.739 -17.738,-4.685 -31.643,0.135 -2.353,0.815 -12.938,5.875 -19.162,8.506 -1.833,0.04 -19.976,3.822 -20.942,6.414 -0.966,2.593 -1.269,3.851 -1.447,4.509 -0.178,0.658 0,3.807 1.348,6 1.374,0.777 4.019,1.299 7.077,1.649 C 8.447,61.124 8.409,60.94 8.385,60.751 8.332,60.347 8.307,59.978 8.307,59.626 c 0,-4.945 4.022,-8.969 8.968,-8.969 4.946,0 8.968,4.023 8.968,8.969 0,0.254 -0.017,0.506 -0.036,0.754 -0.047,0.555 -0.147,1.094 -0.292,1.613 0.007,0 0.024,0 0.024,0 l 44.516,-0.896 c -0.02,-0.115 -0.046,-0.229 -0.061,-0.346 -0.053,-0.402 -0.078,-0.772 -0.078,-1.125 0,-4.945 4.022,-8.968 8.968,-8.968 4.946,0 8.969,4.022 8.969,8.968 0,0.019 -0.002,0.035 -0.003,0.053 l 0.19,-0.016 7.611,-1.433 c 0,0 2.915,-1.552 2.915,-5.822 0.001,-2.848 -1.75,-4.118 -1.75,-4.118 z M 53.057,43.051 36.432,43.56 c 0.306,-2.491 -1.169,-3.05 -1.169,-3.05 6.609,-5.999 19.929,-6.202 19.929,-6.202 l -2.135,8.743 z m 18.658,-0.761 -15.15,0.509 1.373,-8.49 c 7.83,-0.102 12.303,1.626 12.303,1.626 l 2.237,3.61 -0.763,2.745 z m 8.541,-0.052 -4.221,0 -4.22,-5.795 c 3.166,1.26 5.7,2.502 7.209,3.287 0.916,0.476 1.416,1.493 1.232,2.508 z"
         id="path11"
         inkscape:connector-curvature="0" /></g></g><g
     id="g13"
     transform="translate(5.8133966e-4,-31.876395)" /><g
     id="g15"
     transform="translate(5.8133966e-4,-31.876395)" /><g
     id="g17"
     transform="translate(5.8133966e-4,-31.876395)" /><g
     id="g19"
     transform="translate(5.8133966e-4,-31.876395)" /><g
     id="g21"
     transform="translate(5.8133966e-4,-31.876395)" /><g
     id="g23"
     transform="translate(5.8133966e-4,-31.876395)" /><g
     id="g25"
     transform="translate(5.8133966e-4,-31.876395)" /><g
     id="g27"
     transform="translate(5.8133966e-4,-31.876395)" /><g
     id="g29"
     transform="translate(5.8133966e-4,-31.876395)" /><g
     id="g31"
     transform="translate(5.8133966e-4,-31.876395)" /><g
     id="g33"
     transform="translate(5.8133966e-4,-31.876395)" /><g
     id="g35"
     transform="translate(5.8133966e-4,-31.876395)" /><g
     id="g37"
     transform="translate(5.8133966e-4,-31.876395)" /><g
     id="g39"
     transform="translate(5.8133966e-4,-31.876395)" /><g
     id="g41"
     transform="translate(5.8133966e-4,-31.876395)" /><path
     style="fill:#d4953f;fill-opacity:1"
     d="M 16.994314,17.070284 C 15.985272,10.341508 6.4782002,10.321079 5.2311237,17.045007 4.9140636,18.754517 4.7438274,18.823815 2.4359702,18.182833 0.36793562,17.60846 -0.32481055,15.117539 0.78443971,12.244394 1.4505283,10.519112 2.8231575,9.8647699 8.6730254,8.4838476 11.629736,7.7858849 16.0303,6.3603697 18.452056,5.3160359 29.455573,0.57098985 32.290163,-0.12890083 38.688612,0.3194146 c 4.729137,0.3313531 8.809463,1.2694521 13.521257,3.1086453 2.075791,0.8102601 5.189477,1.7771145 6.919303,2.1485653 l 3.145138,0.6753655 0.129949,2.2910769 c 0.07147,1.2600924 0.326226,2.5275794 0.566124,2.8166384 0.575762,0.693749 0.557113,3.156159 -0.03225,4.257377 -0.260338,0.486445 -1.163814,1.049179 -2.033856,1.26679 -3.929812,0.982912 -3.783206,0.99527 -4.077298,-0.343716 -0.559947,-2.54945 -3.214163,-4.632208 -5.903159,-4.632208 -2.793893,0 -5.633256,2.68654 -5.633256,5.330055 l 0,1.247218 -7.615556,0.275853 c -4.188556,0.151719 -10.488856,0.275853 -14.000667,0.275853 l -6.385112,0 -0.294917,-1.966644 z M 31.556967,7.4411183 c 3.128107,-0.2954299 2.945834,-0.076663 3.877694,-4.6540693 0.265992,-1.306584 0.223189,-1.362893 -1.035975,-1.362893 -3.252382,0 -10.704051,2.4160117 -11.519087,3.7347668 -0.134574,0.2177459 -0.02328,0.8818132 0.247311,1.475705 0.450463,0.9886594 0.707539,1.0795522 3.045627,1.0768226 1.4045,-0.00164 3.827493,-0.123289 5.38443,-0.2703321 z M 46.513676,6.6143308 c 0.0961,-0.086875 0.174727,-0.7240791 0.174727,-1.4160094 0,-0.6919304 0.04751,-1.2580552 0.105585,-1.2580552 0.05807,0 0.513777,0.660479 1.012688,1.467731 0.791568,1.280784 1.120323,1.467731 2.581059,1.467731 1.367867,0 1.648426,-0.13419 1.534329,-0.7338655 C 51.783711,5.414701 48.24936,3.2564774 46.716169,2.962924 46.278051,2.8790399 45.365747,2.5842569 44.688821,2.3078506 44.011895,2.0314442 42.021577,1.694521 40.265893,1.5591323 l -3.192156,-0.2461614 -0.41778,3.0226719 -0.41778,3.0226716 5.050385,-0.2930145 c 2.777711,-0.1611581 5.129011,-0.3640942 5.225114,-0.4509691 z"
     id="path3381"
     inkscape:connector-curvature="0" /><path
     style="fill:#d4953f;fill-opacity:1"
     d="M 9.9457994,22.495629 C 8.2974406,22.062723 6.9882299,20.757753 6.5312855,19.092176 6.3085537,18.280312 6.3511942,17.032083 6.6268947,16.293373 c 0.5116446,-1.370896 1.6237168,-2.475028 2.9717236,-2.950504 0.6374697,-0.224852 1.8961547,-0.279071 2.6081947,-0.112351 0.905621,0.212046 1.552034,0.582454 2.262928,1.296705 0.979478,0.984103 1.404396,1.994912 1.404396,3.340821 0,1.271505 -0.41579,2.312826 -1.297724,3.250079 -0.961107,1.02139 -2.07629,1.498685 -3.480084,1.489465 -0.408543,-0.0027 -0.926282,-0.05307 -1.1505296,-0.111959 z m 0.8154476,-2.313253 0,-0.725064 -0.239174,-0.09028 c -0.236241,-0.08917 -0.245288,-0.08421 -0.7376899,0.404418 -0.2741837,0.272083 -0.4812046,0.522706 -0.4600464,0.556941 0.088577,0.143321 1.0618433,0.558974 1.3442463,0.574087 0.06815,0.0036 0.09266,-0.186829 0.09266,-0.720104 z m 1.59383,0.465662 c 0.702472,-0.319338 0.700364,-0.304985 0.128142,-0.872823 -0.493713,-0.48993 -0.51095,-0.499644 -0.743047,-0.418734 l -0.237609,0.08283 0,0.732211 0,0.732211 0.240928,-0.0436 c 0.13251,-0.02398 0.407724,-0.119422 0.611586,-0.212097 z m -2.721828,-2.169276 -0.090612,-0.24006 -0.7309539,0 -0.7309538,0 0.050473,0.240928 c 0.059,0.281633 0.2900197,0.83222 0.4551207,1.084686 l 0.1154714,0.176574 0.511034,-0.511034 C 9.719116,18.723568 9.7230202,18.716593 9.633249,18.478762 Z m 4.071983,1.043554 c 0.161264,-0.246119 0.469036,-1.144709 0.419514,-1.224836 -0.01998,-0.03233 -0.348007,-0.05878 -0.72895,-0.05878 l -0.692623,0 -0.08179,0.234636 c -0.09041,0.25935 -0.105615,0.232479 0.505829,0.8939 0.180037,0.194753 0.354404,0.354096 0.387482,0.354096 0.03308,0 0.118822,-0.08956 0.190543,-0.199018 z M 9.6434683,17.259777 c 0.080876,-0.232001 0.071093,-0.249438 -0.4144841,-0.738764 -0.3517823,-0.354499 -0.5229337,-0.479894 -0.5848593,-0.4285 -0.1173178,0.09736 -0.4487385,0.863037 -0.5038128,1.163945 l -0.044096,0.240928 0.7322109,0 0.7322109,0 0.082831,-0.237609 z m 4.4817657,0.03375 c -0.088,-0.366914 -0.323627,-0.941736 -0.456212,-1.11293 l -0.129919,-0.167752 -0.510566,0.514509 c -0.503407,0.507293 -0.509243,0.517702 -0.416223,0.742271 l 0.09434,0.227764 0.733735,0 0.733734,0 -0.04889,-0.203862 z m -3.597444,-0.915364 0.233457,-0.08138 0,-0.734064 c 0,-0.403735 -0.01062,-0.734064 -0.02361,-0.734064 -0.145386,0 -0.9011746,0.276857 -1.1524622,0.422166 l -0.3235597,0.1871 0.5069006,0.510814 c 0.2787953,0.280949 0.5111573,0.510815 0.5163593,0.510815 0.0052,0 0.114515,-0.03662 0.242916,-0.08138 z m 1.967505,-0.429432 0.506901,-0.510814 -0.32356,-0.1871 c -0.251287,-0.145309 -1.007075,-0.422166 -1.152462,-0.422166 -0.01299,0 -0.02361,0.328494 -0.02361,0.729988 0,0.683768 0.01056,0.735081 0.166796,0.81043 0.09174,0.04424 0.20105,0.0827 0.242916,0.08546 0.04187,0.0028 0.304225,-0.224849 0.58302,-0.505798 z"
     id="path3383"
     inkscape:connector-curvature="0" /><path
     style="fill:#d4953f;fill-opacity:1"
     d="m 49.902737,22.496007 c -1.659195,-0.434217 -2.998733,-1.76891 -3.45435,-3.441857 -0.208755,-0.76651 -0.176251,-1.886992 0.07634,-2.631673 0.548698,-1.617643 1.774917,-2.762171 3.412117,-3.184801 0.551562,-0.142381 1.640196,-0.145513 2.226906,-0.0064 1.714336,0.406466 3.079665,1.761146 3.523327,3.495849 0.641371,2.507736 -0.977781,5.178173 -3.50022,5.772847 -0.58692,0.138369 -1.747958,0.136355 -2.284121,-0.004 z m 0.799652,-2.314027 0.02127,-0.676402 -0.234832,-0.121436 -0.234832,-0.121437 -0.505596,0.501722 c -0.278077,0.275946 -0.488284,0.529731 -0.467126,0.563966 0.09694,0.156852 1.152754,0.59431 1.325713,0.549286 0.04077,-0.01061 0.0837,-0.323679 0.0954,-0.695699 z m 1.206979,0.60711 c 0.478647,-0.140688 0.958633,-0.395558 0.958633,-0.509028 0,-0.04464 -0.214466,-0.293715 -0.476591,-0.553511 -0.468269,-0.464106 -0.480567,-0.470708 -0.704251,-0.378055 l -0.227659,0.0943 0,0.732322 c 0,0.402777 0.01063,0.732323 0.02361,0.732323 0.01299,0 0.204802,-0.05326 0.426257,-0.11835 z m -2.319182,-2.310328 -0.09061,-0.24006 -0.733314,0 -0.733314,0 0.05117,0.277993 c 0.06351,0.34499 0.300992,0.894838 0.464545,1.075562 0.117508,0.129845 0.145029,0.11367 0.627516,-0.368817 0.499651,-0.499652 0.503726,-0.506981 0.414005,-0.744678 z m 4.176984,0.790761 c 0.113292,-0.223343 0.228463,-0.546645 0.255936,-0.71845 l 0.04995,-0.312371 -0.701826,0 c -0.680132,0 -0.704485,0.0058 -0.787856,0.188817 -0.04732,0.103849 -0.08603,0.228049 -0.08603,0.275999 0,0.117999 0.905258,1.024945 0.993633,0.995487 0.03862,-0.01287 0.162902,-0.206138 0.276194,-0.429482 z m -4.177318,-2.011311 c 0.08921,-0.236337 0.08434,-0.245166 -0.410004,-0.744242 l -0.500283,-0.505068 -0.166077,0.206788 c -0.157829,0.196516 -0.464042,0.978407 -0.464042,1.184893 0,0.07305 0.177902,0.0968 0.725064,0.0968 l 0.725064,0 0.09028,-0.239174 z m 4.433549,-0.07135 c -0.02731,-0.170789 -0.153966,-0.506234 -0.281459,-0.745433 l -0.231803,-0.434908 -0.506398,0.502518 c -0.278519,0.276385 -0.506398,0.52626 -0.506398,0.555279 0,0.02902 0.03253,0.138331 0.0723,0.242916 0.07071,0.185992 0.08796,0.190155 0.787856,0.190155 l 0.71556,0 -0.04966,-0.310527 z m -3.521192,-0.841833 0.221451,-0.114517 -0.02127,-0.682398 -0.02127,-0.682397 -0.222395,0.02463 c -0.276688,0.03064 -1.042438,0.365845 -1.160375,0.50795 -0.07113,0.08571 0.0015,0.195487 0.385974,0.583412 0.260475,0.262812 0.501231,0.477839 0.535013,0.477839 0.03378,0 0.161075,-0.05153 0.282873,-0.114517 z m 1.947565,-0.393819 0.504441,-0.508337 -0.3211,-0.185916 c -0.29912,-0.173188 -0.604249,-0.287518 -1.006818,-0.377248 -0.164115,-0.03658 -0.166797,-0.02555 -0.166797,0.68587 0,0.676571 0.01072,0.728218 0.166797,0.80349 0.09174,0.04424 0.20105,0.0827 0.242915,0.08546 0.04187,0.0028 0.303119,-0.223734 0.580562,-0.503319 z"
     id="path3385"
     inkscape:connector-curvature="0" /></svg>