<?xml version="1.0" encoding="UTF-8" standalone="no"?>
<!-- Created with Inkscape (http://www.inkscape.org/) -->

<svg
   xmlns:dc="http://purl.org/dc/elements/1.1/"
   xmlns:cc="http://creativecommons.org/ns#"
   xmlns:rdf="http://www.w3.org/1999/02/22-rdf-syntax-ns#"
   xmlns:svg="http://www.w3.org/2000/svg"
   xmlns="http://www.w3.org/2000/svg"
   xmlns:sodipodi="http://sodipodi.sourceforge.net/DTD/sodipodi-0.dtd"
   xmlns:inkscape="http://www.inkscape.org/namespaces/inkscape"
   width="17.940557mm"
   height="23.372343mm"
   viewBox="0 0 63.568905 82.815387"
   id="svg3684"
   version="1.1"
   inkscape:version="0.91 r13725"
   sodipodi:docname="dress.svg">
  <defs
     id="defs3686" />
  <sodipodi:namedview
     id="base"
     pagecolor="#ffffff"
     bordercolor="#666666"
     borderopacity="1.0"
     inkscape:pageopacity="0.0"
     inkscape:pageshadow="2"
     inkscape:zoom="3.959798"
     inkscape:cx="28.670965"
     inkscape:cy="47.652213"
     inkscape:document-units="px"
     inkscape:current-layer="layer1"
     showgrid="false"
     inkscape:window-width="1920"
     inkscape:window-height="1029"
     inkscape:window-x="0"
     inkscape:window-y="0"
     inkscape:window-maximized="1"
     fit-margin-top="0"
     fit-margin-left="0"
     fit-margin-right="0"
     fit-margin-bottom="0" />
  <metadata
     id="metadata3689">
    <rdf:RDF>
      <cc:Work
         rdf:about="">
        <dc:format>image/svg+xml</dc:format>
        <dc:type
           rdf:resource="http://purl.org/dc/dcmitype/StillImage" />
        <dc:title></dc:title>
      </cc:Work>
    </rdf:RDF>
  </metadata>
  <g
     inkscape:label="Layer 1"
     inkscape:groupmode="layer"
     id="layer1"
     transform="translate(-276.33143,-410.01996)">
    <path
       d="m 320.86031,462.8929 c -1.23055,-1.59941 -5.6616,-15.87852 -5.6616,-15.87852 1.96759,4.67883 8.12354,16.98663 8.12354,16.98663 0,0 -1.23116,0.49131 -2.46194,-1.10811 z m -11.05633,-0.1445 c -0.42278,-2.14015 -0.95843,-16.40634 -0.95843,-16.40634 l 2.9807,19.93144 c 0,0 -1.60488,-1.38342 -2.02227,-3.5251 z m -7.28481,3.96241 c 0,0 -1.35536,-2.7098 -1.22995,-3.94111 0.12176,-1.23208 0.73704,-4.80052 0.73704,-7.75293 0,-2.95622 0,-8.86408 0,-8.86408 1.23139,0.86169 0.49291,20.55812 0.49291,20.55812 z m -6.39986,-9.35615 c -0.42271,1.09898 -2.58492,4.80585 -3.89981,7.02129 -0.6168,1.21078 -1.02643,1.7173 -1.02643,1.7173 0,0 0.42537,-0.70426 1.02643,-1.7173 0.46758,-0.91416 1.04748,-2.21544 1.68299,-4.06507 0.229,-0.66395 0.51451,-1.48305 0.84344,-2.39418 1.78749,-4.99674 4.69419,-12.74815 4.69419,-12.74815 0,0 -2.70645,10.58594 -3.32081,12.18611 z m 41.65995,23.49 c -3.85898,-7.95296 -7.20459,-15.93861 -11.13961,-23.45349 -0.80945,-1.54466 -1.69768,-2.89537 -2.58005,-4.33735 -0.95395,-1.56139 -1.24744,-3.23229 -1.99611,-4.92677 -0.29768,-0.67612 -0.82945,-1.33931 -1.05465,-1.87625 -0.27835,-0.66471 -0.34459,-1.51804 -0.58523,-2.11126 -0.38415,-0.95447 -1.37612,-1.96066 -1.90226,-2.9661 l 0.12389,0.29966 -21.32687,-0.32171 0.50713,-1.70817 0.10602,-1.29976 c -0.009,0.0791 -0.0168,0.17796 -0.0246,0.25022 -0.22367,2.18654 -1.2047,4.43774 -2.2261,6.33376 -1.01927,1.88766 -2.09057,3.74413 -3.04892,5.50934 -2.15833,3.98979 -3.89693,8.02901 -5.63011,11.61114 -3.93009,8.12027 -7.99547,15.45491 -10.67036,23.8041 2.54567,1.64733 5.76313,1.33779 8.44198,2.58203 1.47354,0.68296 2.49669,1.5477 3.75158,1.87701 1.37901,0.35669 2.3125,-0.06 3.40341,-0.11865 1.669,-0.0935 3.50502,0.613 5.39503,0.81758 1.97117,0.22208 4.01245,-0.10647 6.09504,0.23805 0.17553,0.48827 0.16785,1.16058 0.47024,1.52564 1.32059,-0.0472 2.6961,0.37038 3.98811,0.23425 0.54515,-0.0593 0.97683,-0.46013 1.52526,-0.5879 1.64877,-0.38939 3.26613,-0.18709 5.15797,-0.47077 0.41442,-0.0593 0.79705,-0.3354 1.17435,-0.34985 1.64679,-0.0646 3.42752,0.56432 5.04153,0.34985 1.38502,-0.18101 2.99136,-1.20774 4.10364,-1.40852 1.98904,-0.35289 3.4044,-0.41525 5.16049,-0.81758 2.7501,-0.63277 3.89471,-1.1294 6.68361,-2.2299 1.17351,-0.46088 3.01021,-1.00999 3.16612,-1.7576 0.15667,-0.76662 -1.47392,-3.37299 -2.11049,-4.691"
       style="fill:#14191e;fill-opacity:1;fill-rule:nonzero;stroke:none"
       id="path102"
       inkscape:connector-curvature="0" />
    <path
       d="m 306.70563,411.77559 c 3.14346,0.0593 6.66186,-0.25554 7.73498,1.87396 -0.89782,4.14418 -3.26735,6.81367 -5.15387,9.96762 -1.05319,-0.49359 -1.72992,-2.21393 -2.46551,-3.75097 -1.13663,-2.37441 -3.01691,-6.56954 -0.1156,-8.09061 z m 11.5849,24.25129 0.0234,-0.21371 c 0.22284,-1.73403 1.41324,-3.17677 1.87466,-4.80508 0.10815,-0.38103 0.0193,-0.86778 0.11582,-1.29064 0.43374,-1.82073 1.32829,-3.15547 0.70441,-5.39678 -1.75577,-0.54683 -1.91321,-2.15993 -2.4611,-3.86886 -0.63185,-1.9812 -1.84575,-3.92362 -2.34459,-5.74587 1.68597,0.88527 2.77514,2.72957 4.22046,4.10539 0.78602,0.74837 1.99961,1.80476 3.05044,2.11049 0.93433,0.27228 2.76403,-0.30345 2.92907,1.17047 -0.68669,0.68373 -1.53576,1.20013 -2.34352,1.76065 -0.13013,1.00163 -0.97144,2.6231 -0.47086,4.22023 0.28992,-1.46176 0.0859,-2.19948 0.58851,-3.16308 0.83096,-1.61158 3.91807,-1.58192 2.57952,-4.45828 -0.79073,-0.70426 -1.78035,-0.0296 -2.81567,-0.23272 -1.4127,-0.28293 -2.50475,-2.58127 -3.63667,-3.75326 -0.60424,-0.63049 -1.2596,-1.27923 -1.87404,-1.87701 -2.5424,-2.45958 -6.01092,-5.15721 -11.25741,-4.456 -1.56831,0.20915 -2.46757,1.26858 -3.28431,2.23066 -0.92155,1.07997 -1.87428,2.47327 -2.93165,3.28173 -1.73494,1.32562 -3.87457,0.83355 -6.45119,1.05562 -0.48485,0.86245 -1.00856,1.41461 -0.93638,2.34322 0.12625,1.63136 2.04243,2.61093 1.64345,3.87038 -0.22132,0.68221 -0.87667,1.01 -1.52549,0.93851 -1.32828,-0.1445 -1.33664,-2.42004 -2.69991,-2.46263 0.0371,1.0716 1.22903,2.67634 2.11399,3.04976 2.33189,0.98262 3.4168,-2.06562 2.3455,-4.10462 -0.36658,-0.69666 -1.22903,-1.01456 -1.17495,-1.75913 0.13514,-1.83442 3.24628,-0.76662 5.04511,-1.05563 0.67825,-0.11027 0.79795,-0.60919 1.40433,-0.35365 -0.42606,1.63744 -1.20469,3.27564 -2.46019,4.456 -0.68715,0.6457 -2.09262,1.11115 -2.34907,1.99413 -0.34194,1.20622 -0.085,3.07942 0,4.10539 0.10404,1.16819 0.49229,2.2626 0.82328,3.28553 0.34133,1.04345 1.11966,1.98804 1.292,2.93035 0.15773,0.8731 0.0859,2.21773 -0.0145,3.36006 l 0.13515,-1.22523 20.14241,-0.0464"
       style="fill:#14191e;fill-opacity:1;fill-rule:nonzero;stroke:none"
       id="path104"
       inkscape:connector-curvature="0" />
  </g>
</svg>
