<?xml version="1.0" encoding="UTF-8" standalone="no"?>
<!-- Generator: Adobe Illustrator 19.0.0, SVG Export Plug-In . SVG Version: 6.00 Build 0)  -->

<svg
   xmlns:dc="http://purl.org/dc/elements/1.1/"
   xmlns:cc="http://creativecommons.org/ns#"
   xmlns:rdf="http://www.w3.org/1999/02/22-rdf-syntax-ns#"
   xmlns:svg="http://www.w3.org/2000/svg"
   xmlns="http://www.w3.org/2000/svg"
   xmlns:sodipodi="http://sodipodi.sourceforge.net/DTD/sodipodi-0.dtd"
   xmlns:inkscape="http://www.inkscape.org/namespaces/inkscape"
   version="1.1"
   id="Capa_1"
   x="0px"
   y="0px"
   viewBox="0 0 62.553245 61.650928"
   xml:space="preserve"
   inkscape:version="0.91 r13725"
   sodipodi:docname="gift2-orange.svg"
   width="62.553246"
   height="61.650928"><metadata
     id="metadata41"><rdf:RDF><cc:Work
         rdf:about=""><dc:format>image/svg+xml</dc:format><dc:type
           rdf:resource="http://purl.org/dc/dcmitype/StillImage" /><dc:title></dc:title></cc:Work></rdf:RDF></metadata><defs
     id="defs39" /><sodipodi:namedview
     pagecolor="#ffffff"
     bordercolor="#666666"
     borderopacity="1"
     objecttolerance="10"
     gridtolerance="10"
     guidetolerance="10"
     inkscape:pageopacity="0"
     inkscape:pageshadow="2"
     inkscape:window-width="956"
     inkscape:window-height="994"
     id="namedview37"
     showgrid="false"
     fit-margin-top="0"
     fit-margin-left="0"
     fit-margin-right="0"
     fit-margin-bottom="0"
     inkscape:zoom="3.2452353"
     inkscape:cx="47.423087"
     inkscape:cy="21.933219"
     inkscape:window-x="0"
     inkscape:window-y="0"
     inkscape:window-maximized="0"
     inkscape:current-layer="Capa_1" /><g
     id="g3"
     style="fill:#d4953f;fill-opacity:1"
     transform="matrix(0.86016949,0,0,0.86016949,0,-0.45072881)"><path
       d="m 66.137,18.801 -3.188,0 -4.962,0 c 2.904,-1.824 4.811,-4.823 4.811,-8.214 0,-5.549 -5.088,-10.063 -11.341,-10.063 -5.306,0 -11.589,9.093 -15.096,14.97 -3.507,-5.876 -9.792,-14.97 -15.097,-14.97 -6.253,0 -11.341,4.515 -11.341,10.063 0,3.391 1.906,6.39 4.811,8.214 l -4.474,0 -3.674,0 C 2.955,18.801 0,21.755 0,25.385 l 0,10.439 c 0,2.586 1.502,4.821 3.676,5.897 l 0,23.89 c 0,3.632 2.954,6.586 6.584,6.586 l 52.688,0 c 3.632,0 6.586,-2.954 6.586,-6.586 l 0,-24.155 c 1.907,-1.154 3.188,-3.242 3.188,-5.63 l 0,-10.44 c 0.001,-3.63 -2.953,-6.585 -6.585,-6.585 z M 6.586,36.409 C 6.263,36.409 6,36.147 6,35.825 l 0,-10.44 c 0,-0.322 0.263,-0.584 0.586,-0.584 l 26.774,0 0,11.607 -26.774,10e-4 0,0 z m 32.775,-11.608 26.776,0 c 0.323,0 0.586,0.262 0.586,0.584 l 0,10.439 c 0,0.322 -0.263,0.584 -0.586,0.584 l -26.776,0 0,-11.607 z M 51.456,6.524 c 2.895,0 5.341,1.861 5.341,4.063 0,2.202 -2.446,4.063 -5.341,4.063 l -7.41,0 c 3.035,-4.383 6.153,-7.866 7.41,-8.126 z M 21.181,6.519 c 1.32,0.264 4.454,3.749 7.493,8.133 l -7.41,0 c -2.895,0 -5.341,-1.861 -5.341,-4.063 0,-2.202 2.446,-4.065 5.258,-4.07 z m -11.505,59.094 0,-23.204 23.685,0 0,23.789 -23.101,0 C 9.938,66.199 9.676,65.936 9.676,65.613 Z m 53.273,0.586 -23.588,0 0,-23.79 24.174,0 0,23.203 c 0,0.324 -0.263,0.587 -0.586,0.587 z"
       id="path5"
       style="fill:#d4953f;fill-opacity:1"
       inkscape:connector-curvature="0" /></g><g
     id="g7"
     transform="translate(0,-0.524)" /><g
     id="g9"
     transform="translate(0,-0.524)" /><g
     id="g11"
     transform="translate(0,-0.524)" /><g
     id="g13"
     transform="translate(0,-0.524)" /><g
     id="g15"
     transform="translate(0,-0.524)" /><g
     id="g17"
     transform="translate(0,-0.524)" /><g
     id="g19"
     transform="translate(0,-0.524)" /><g
     id="g21"
     transform="translate(0,-0.524)" /><g
     id="g23"
     transform="translate(0,-0.524)" /><g
     id="g25"
     transform="translate(0,-0.524)" /><g
     id="g27"
     transform="translate(0,-0.524)" /><g
     id="g29"
     transform="translate(0,-0.524)" /><g
     id="g31"
     transform="translate(0,-0.524)" /><g
     id="g33"
     transform="translate(0,-0.524)" /><g
     id="g35"
     transform="translate(0,-0.524)" /></svg>