<?xml version="1.0" encoding="UTF-8" standalone="no"?>
<!-- Generator: Adobe Illustrator 16.0.0, SVG Export Plug-In . SVG Version: 6.00 Build 0)  -->

<svg
   xmlns:dc="http://purl.org/dc/elements/1.1/"
   xmlns:cc="http://creativecommons.org/ns#"
   xmlns:rdf="http://www.w3.org/1999/02/22-rdf-syntax-ns#"
   xmlns:svg="http://www.w3.org/2000/svg"
   xmlns="http://www.w3.org/2000/svg"
   xmlns:sodipodi="http://sodipodi.sourceforge.net/DTD/sodipodi-0.dtd"
   xmlns:inkscape="http://www.inkscape.org/namespaces/inkscape"
   version="1.1"
   id="Capa_1"
   x="0px"
   y="0px"
   width="63.350986"
   height="50.412796"
   viewBox="0 0 63.350986 50.412796"
   xml:space="preserve"
   inkscape:version="0.91 r13725"
   sodipodi:docname="home.svg"><metadata
     id="metadata45"><rdf:RDF><cc:Work
         rdf:about=""><dc:format>image/svg+xml</dc:format><dc:type
           rdf:resource="http://purl.org/dc/dcmitype/StillImage" /><dc:title></dc:title></cc:Work></rdf:RDF></metadata><defs
     id="defs43" /><sodipodi:namedview
     pagecolor="#ffffff"
     bordercolor="#666666"
     borderopacity="1"
     objecttolerance="10"
     gridtolerance="10"
     guidetolerance="10"
     inkscape:pageopacity="0"
     inkscape:pageshadow="2"
     inkscape:window-width="1920"
     inkscape:window-height="1029"
     id="namedview41"
     showgrid="false"
     inkscape:zoom="8.2033991"
     inkscape:cx="30.198005"
     inkscape:cy="19.146855"
     inkscape:window-x="0"
     inkscape:window-y="0"
     inkscape:window-maximized="1"
     inkscape:current-layer="Capa_1"
     fit-margin-top="0"
     fit-margin-left="0"
     fit-margin-right="0"
     fit-margin-bottom="0" /><g
     id="g3"
     transform="matrix(0.13686798,0,0,0.13797776,-0.11294824,-6.6109922)"><g
       id="g5"><path
         d="M 230.149,120.939 65.986,256.274 c 0,0.191 -0.048,0.472 -0.144,0.855 -0.094,0.38 -0.144,0.656 -0.144,0.852 l 0,137.041 c 0,4.948 1.809,9.236 5.426,12.847 3.616,3.613 7.898,5.431 12.847,5.431 l 109.63,0 0,-109.636 73.097,0 0,109.64 109.629,0 c 4.948,0 9.236,-1.814 12.847,-5.435 3.617,-3.607 5.432,-7.898 5.432,-12.847 l 0,-137.041 c 0,-0.76 -0.104,-1.334 -0.288,-1.707 L 230.149,120.939 Z"
         id="path7"
         inkscape:connector-curvature="0" /><path
         d="m 457.122,225.438 -62.522,-51.962 0,-116.487 c 0,-2.663 -0.856,-4.853 -2.574,-6.567 -1.704,-1.712 -3.894,-2.568 -6.563,-2.568 l -54.816,0 c -2.666,0 -4.855,0.856 -6.57,2.568 -1.711,1.714 -2.566,3.905 -2.566,6.567 l 0,55.673 -69.662,-58.245 c -6.084,-4.949 -13.318,-7.423 -21.694,-7.423 -8.375,0 -15.608,2.474 -21.698,7.423 L 3.172,225.438 c -1.903,1.52 -2.946,3.566 -3.14,6.136 -0.193,2.568 0.472,4.811 1.997,6.713 l 17.701,21.128 c 1.525,1.712 3.521,2.759 5.996,3.142 2.285,0.192 4.57,-0.476 6.855,-1.998 L 230.149,95.817 427.719,260.558 c 1.526,1.328 3.521,1.991 5.996,1.991 l 0.858,0 c 2.471,-0.376 4.463,-1.43 5.996,-3.138 l 17.703,-21.125 c 1.522,-1.906 2.189,-4.145 1.991,-6.716 -0.195,-2.563 -1.242,-4.609 -3.141,-6.132 z"
         id="path9"
         inkscape:connector-curvature="0" /></g></g><g
     id="g11"
     transform="translate(-0.11246706,-47.120865)" /><g
     id="g13"
     transform="translate(-0.11246706,-47.120865)" /><g
     id="g15"
     transform="translate(-0.11246706,-47.120865)" /><g
     id="g17"
     transform="translate(-0.11246706,-47.120865)" /><g
     id="g19"
     transform="translate(-0.11246706,-47.120865)" /><g
     id="g21"
     transform="translate(-0.11246706,-47.120865)" /><g
     id="g23"
     transform="translate(-0.11246706,-47.120865)" /><g
     id="g25"
     transform="translate(-0.11246706,-47.120865)" /><g
     id="g27"
     transform="translate(-0.11246706,-47.120865)" /><g
     id="g29"
     transform="translate(-0.11246706,-47.120865)" /><g
     id="g31"
     transform="translate(-0.11246706,-47.120865)" /><g
     id="g33"
     transform="translate(-0.11246706,-47.120865)" /><g
     id="g35"
     transform="translate(-0.11246706,-47.120865)" /><g
     id="g37"
     transform="translate(-0.11246706,-47.120865)" /><g
     id="g39"
     transform="translate(-0.11246706,-47.120865)" /><path
     style="fill:#000000;fill-opacity:0"
     d="M 2.7212447,29.163153 C 2.4924105,28.945255 1.7868046,28.136139 1.1532317,27.365118 0.11034978,26.09599 0.00107525,25.915486 -8.9304781e-4,25.458686 -0.00222196,25.150263 0.0791948,24.858691 0.20854321,24.708648 0.32492893,24.573642 6.8130872,19.100481 14.626673,12.54607 24.631974,4.1531428 29.030342,0.53620283 29.49986,0.31530283 30.075223,0.04460583 30.33214,0.00142583 31.375731,3.0831027e-5 32.396766,-0.00136917 32.685388,0.04415083 33.230479,0.29234683 c 0.434344,0.197769 2.273933,1.66303097 5.62279,4.47864497 l 4.977245,4.18471 0.06046,-4.092632 0.06046,-4.09263297 0.394898,-0.355537 0.394898,-0.355537 4.179142,0 4.179142,0 0.353458,0.356326 0.35346,0.356325 0,7.00180497 0,7.0018062 -0.355316,0.789987 c -0.546168,1.214317 -0.891063,2.693941 -0.903471,3.875961 -0.01404,1.337632 0.349132,2.481923 1.603806,5.053325 0.508553,1.042258 0.909032,1.895015 0.889954,1.895015 -0.01908,-1e-6 -5.346408,-4.468068 -11.838508,-9.92904 C 31.646212,6.7397138 31.393746,6.5361768 31.144324,6.7392928 31.004209,6.8533958 24.991339,11.904886 17.782392,17.964826 10.573444,24.024768 4.4856334,29.112598 4.2539232,29.271115 3.6647118,29.674208 3.2254562,29.643266 2.7212447,29.163153 Z"
     id="path3381"
     inkscape:connector-curvature="0" /><path
     style="fill:#000000;fill-opacity:0"
     d="m 78.258066,49.909612 c -2.377965,-0.144864 -5.719871,-0.919954 -6.795963,-1.576191 -0.375429,-0.228949 -0.396177,-0.279547 -0.396177,-0.966091 0,-0.772565 -0.185721,-1.107606 -0.613969,-1.107606 -0.388945,0 -1.067105,-0.710566 -1.48147,-1.552261 -0.812944,-1.651321 -0.677133,-3.119452 1.35054,-14.59958 0.742422,-4.203387 0.878626,-6.437446 0.620568,-10.178707 -0.200924,-2.912955 -0.934072,-9.38289 -1.226144,-10.8205562 l -0.130396,-0.64185 -0.387145,0.27472 C 67.358556,10.0467 64.699969,13.430346 62.235788,17.60235 l -0.821676,1.391145 1.491449,4.094386 c 2.155049,5.916122 2.691525,7.266478 3.797444,9.558479 l 0.989571,2.050874 0.01055,1.361672 0.01054,1.361673 -1.158056,0.697089 c -1.442405,0.868251 -1.64124,0.915354 -2.430573,0.575793 -0.530739,-0.228319 -0.748111,-0.43848 -1.489294,-1.439891 -0.993428,-1.342207 -3.672631,-5.380592 -4.942885,-7.450439 -2.94823,-4.804063 -4.502325,-8.136784 -4.630131,-9.929209 -0.0727,-1.019551 0.247143,-2.629669 0.792712,-3.99062 0.681173,-1.699222 8.699305,-15.21256117 10.291729,-17.3451412 1.321665,-1.76998 2.563395,-3.061898 3.303337,-3.436855 1.288112,-0.652736 7.086588,-2.732234 10.48778,-3.761216 2.134814,-0.645857 2.829254,-0.94044 2.702073,-1.146225 -0.09402,-0.15212 0.290194,-0.4339678 0.411607,-0.3019478 0.05596,0.06085 0.198411,0.4123438 0.316552,0.7810928 0.281837,0.87969 0.790593,1.894731 1.588566,3.169418 1.312702,2.096919 1.481495,3.351378 0.984133,7.314042 -0.814496,6.4894 -1.59339,15.7622882 -1.740677,20.7231172 l -0.07781,2.620864 1.978903,2.285638 c 1.088397,1.257101 2.021006,2.285638 2.072465,2.285638 0.09297,0 2.230805,-2.544656 3.345045,-3.981593 l 0.582521,-0.751227 -0.194576,-4.307652 C 89.486147,10.712151 89.179578,7.0984208 88.197273,-0.12348817 87.764856,-3.3026112 87.980693,-4.2582352 89.711555,-6.8280252 c 0.451579,-0.670454 1.08667,-1.698991 1.411314,-2.285638 0.563821,-1.0188528 0.788079,-1.2728618 0.788079,-0.8926278 0,0.3404808 0.640236,0.6663648 2.410935,1.2271808 0.987052,0.31262 3.778511,1.225372 6.203237,2.028339 l 4.4086,1.459941 1.38264,1.425615 c 0.76046,0.784088 1.80661,1.989259 2.32479,2.678158 1.43315,1.90532303 8.65254,14.0413152 9.99706,16.8053322 l 0.63943,1.314512 0.0404,2.02611 c 0.0384,1.922831 0.024,2.075318 -0.28197,2.991477 -0.86923,2.602821 -6.33054,11.815588 -9.1715,15.47155 -0.88769,1.142337 -1.31813,1.427763 -2.16751,1.437279 -0.38906,0.0044 -2.02572,-0.920753 -2.44124,-1.379896 -0.27933,-0.308649 -0.42145,-1.484824 -0.28429,-2.352709 0.0512,-0.323794 0.45894,-1.393473 0.90616,-2.377064 1.39876,-3.076401 3.02934,-7.248829 4.62069,-11.82372 l 0.69219,-1.989928 -0.82123,-1.362341 c -2.10933,-3.49918 -4.09099,-6.188359 -5.67635,-7.7030022 -1.07976,-1.031598 -1.52298,-1.303126 -1.6889,-1.034665 -0.17007,0.275178 -0.34682,1.4588842 -0.72814,4.8763632 -0.58102,5.207225 -0.77093,7.986667 -0.7038,10.300608 0.0539,1.857338 0.15615,2.641358 0.98584,7.557842 1.22492,7.258512 1.43003,8.710026 1.50922,10.680513 0.0658,1.635922 0.0619,1.668676 -0.26589,2.270958 -0.40203,0.738653 -1.33222,1.665031 -1.83359,1.826067 -0.35945,0.115451 -0.36571,0.131783 -0.36571,0.954874 l 0,0.837414 -0.4876,0.270593 c -1.169897,0.649234 -4.324611,1.3102 -7.19213,1.506871 -1.97181,0.135238 -13.407194,0.129128 -15.664239,-0.0084 l 0,-7e-6 z"
     id="path3383"
     inkscape:connector-curvature="0" /><path
     style="fill:#000000;fill-opacity:0"
     d="M 10.725998,50.242604 C 10.082167,50.040714 9.441745,49.483893 9.1767367,48.89558 8.9613653,48.41746 8.9505629,47.915129 8.9549065,38.579981 l 0.00456,-9.813006 11.1749315,-9.264452 c 6.146211,-5.095449 11.232206,-9.250225 11.30221,-9.232837 0.07,0.01739 5.130356,4.186392 11.245224,9.264452 l 11.117943,9.232837 0.0034,9.835545 c 0.002,5.800191 -0.04296,9.95828 -0.109494,10.134691 -0.15894,0.421431 -0.821457,1.153894 -1.265482,1.399087 -0.340045,0.187774 -1.10566,0.210337 -8.204626,0.241797 l -7.829584,0.0347 0,-7.562065 0,-7.562066 -5.01819,0 -5.018189,0 0,7.557843 0,7.557843 -7.587744,-0.0094 c -5.441627,-0.0067 -7.716734,-0.04982 -8.043799,-0.152376 l 0,-6e-6 z"
     id="path3385"
     inkscape:connector-curvature="0" /><path
     style="fill:#000000;fill-opacity:0"
     d="M 10.725998,50.242604 C 10.082167,50.040714 9.441745,49.483893 9.1767367,48.89558 8.9613653,48.41746 8.9505629,47.915129 8.9549065,38.579981 l 0.00456,-9.813006 11.1749315,-9.264452 c 6.146211,-5.095449 11.232206,-9.250225 11.30221,-9.232837 0.07,0.01739 5.130356,4.186392 11.245224,9.264452 l 11.117943,9.232837 0.0034,9.835545 c 0.002,5.800191 -0.04296,9.95828 -0.109494,10.134691 -0.15894,0.421431 -0.821457,1.153894 -1.265482,1.399087 -0.340045,0.187774 -1.10566,0.210337 -8.204626,0.241797 l -7.829584,0.0347 0,-7.562065 0,-7.562066 -5.01819,0 -5.018189,0 0,7.557843 0,7.557843 -7.587744,-0.0094 c -5.441627,-0.0067 -7.716734,-0.04982 -8.043799,-0.152376 l 0,-6e-6 z"
     id="path3387"
     inkscape:connector-curvature="0" /><path
     style="fill:#000000;fill-opacity:0"
     d="M 10.725998,50.242604 C 10.082167,50.040714 9.441745,49.483893 9.1767367,48.89558 8.9613653,48.41746 8.9505629,47.915129 8.9549065,38.579981 l 0.00456,-9.813006 11.1749315,-9.264452 c 6.146211,-5.095449 11.232206,-9.250225 11.30221,-9.232837 0.07,0.01739 5.130356,4.186392 11.245224,9.264452 l 11.117943,9.232837 0.0034,9.835545 c 0.002,5.800191 -0.04296,9.95828 -0.109494,10.134691 -0.15894,0.421431 -0.821457,1.153894 -1.265482,1.399087 -0.340045,0.187774 -1.10566,0.210337 -8.204626,0.241797 l -7.829584,0.0347 0,-7.562065 0,-7.562066 -5.01819,0 -5.018189,0 0,7.557843 0,7.557843 -7.587744,-0.0094 c -5.441627,-0.0067 -7.716734,-0.04982 -8.043799,-0.152376 l 0,-6e-6 z"
     id="path3389"
     inkscape:connector-curvature="0" /><path
     style="fill:#d4953f;fill-opacity:1"
     d="M 10.582366,50.242604 C 9.9471562,50.040714 9.3153097,49.483893 9.0538497,48.89558 8.8413622,48.41746 8.8307045,47.915129 8.8349898,38.579981 l 0.00449,-9.813006 11.025301,-9.264452 c 6.063915,-5.095449 11.081808,-9.250225 11.150876,-9.232837 0.06906,0.01739 5.061662,4.186392 11.094653,9.264452 l 10.969076,9.232837 0.0034,9.835545 c 0.002,5.800191 -0.04238,9.95828 -0.108029,10.134691 -0.156811,0.421431 -0.810458,1.153894 -1.248536,1.399087 -0.335493,0.187774 -1.090856,0.210337 -8.094768,0.241797 l -7.724748,0.0347 0,-7.562065 0,-7.562066 -4.950997,0 -4.950997,0 0,7.557843 0,7.557843 -7.486146,-0.0094 c -5.368764,-0.0067 -7.613408,-0.04982 -7.936094,-0.152376 l 0,-6e-6 z"
     id="path3391"
     inkscape:connector-curvature="0" /><path
     style="fill:#d4953f;fill-opacity:1"
     d="M 2.6847956,29.163153 C 2.4590255,28.945255 1.7628675,28.136139 1.137778,27.365118 0.10886005,26.09599 0.00104868,25.915486 -8.9326238e-4,25.458686 -0.00220438,25.150263 0.07812222,24.858691 0.20573868,24.708648 0.32056602,24.573642 6.721849,19.100481 14.430812,12.54607 24.302144,4.1531428 28.641619,0.53620283 29.10485,0.31530283 29.672509,0.04460583 29.925986,0.00142583 30.955603,3.0831027e-5 31.962966,-0.00136917 32.247724,0.04415083 32.785517,0.29234683 c 0.428528,0.197769 2.243485,1.66303097 5.547502,4.47864497 l 4.9106,4.18471 0.05965,-4.092632 0.05964,-4.09263297 0.389611,-0.355537 0.389609,-0.355537 4.123185,0 4.123184,0 0.348725,0.356326 0.348728,0.356325 0,8.28286997 0,8.2828712 4.349497,3.68596 c 4.726934,4.005816 4.789656,4.075102 4.434442,4.898617 -0.253873,0.58857 -2.703024,3.428317 -3.070558,3.560259 -0.171229,0.06147 -0.45668,0.07449 -0.634339,0.02893 C 57.987348,29.465954 51.79734,24.277207 44.409431,17.980966 31.273321,6.7858998 30.971343,6.5378178 30.726411,6.7400038 30.588658,6.8537148 24.656697,11.904886 17.544277,17.964826 10.431855,24.024768 4.4255595,29.112598 4.1969517,29.271115 3.6156298,29.674208 3.1822557,29.643266 2.6847956,29.163153 Z"
     id="path3393"
     inkscape:connector-curvature="0" /></svg>