<?xml version="1.0" encoding="UTF-8" standalone="no"?>
<!-- Generator: Adobe Illustrator 18.1.1, SVG Export Plug-In . SVG Version: 6.00 Build 0)  -->

<svg
   xmlns:dc="http://purl.org/dc/elements/1.1/"
   xmlns:cc="http://creativecommons.org/ns#"
   xmlns:rdf="http://www.w3.org/1999/02/22-rdf-syntax-ns#"
   xmlns:svg="http://www.w3.org/2000/svg"
   xmlns="http://www.w3.org/2000/svg"
   xmlns:sodipodi="http://sodipodi.sourceforge.net/DTD/sodipodi-0.dtd"
   xmlns:inkscape="http://www.inkscape.org/namespaces/inkscape"
   version="1.1"
   id="Capa_1"
   x="0px"
   y="0px"
   viewBox="0 0 63.430557 63.447495"
   xml:space="preserve"
   inkscape:version="0.91 r13725"
   sodipodi:docname="info-orange.svg"
   width="63.430557"
   height="63.447495"><metadata
     id="metadata41"><rdf:RDF><cc:Work
         rdf:about=""><dc:format>image/svg+xml</dc:format><dc:type
           rdf:resource="http://purl.org/dc/dcmitype/StillImage" /><dc:title></dc:title></cc:Work></rdf:RDF></metadata><defs
     id="defs39" /><sodipodi:namedview
     pagecolor="#ffffff"
     bordercolor="#666666"
     borderopacity="1"
     objecttolerance="10"
     gridtolerance="10"
     guidetolerance="10"
     inkscape:pageopacity="0"
     inkscape:pageshadow="2"
     inkscape:window-width="1920"
     inkscape:window-height="1029"
     id="namedview37"
     showgrid="false"
     inkscape:zoom="9.989418"
     inkscape:cx="11.955765"
     inkscape:cy="26.711403"
     inkscape:window-x="0"
     inkscape:window-y="0"
     inkscape:window-maximized="1"
     inkscape:current-layer="Capa_1"
     fit-margin-top="0"
     fit-margin-left="0"
     fit-margin-right="0"
     fit-margin-bottom="0" /><g
     id="g3"
     transform="matrix(2.690678,0,0,2.690678,-0.05694652,-0.05284062)"><path
       style="fill:#030104"
       d="M 11.812,0 C 5.289,0 0,5.289 0,11.812 c 0,6.523 5.289,11.813 11.812,11.813 6.523,0 11.813,-5.29 11.813,-11.813 C 23.625,5.289 18.335,0 11.812,0 Z m 2.459,18.307 c -0.608,0.24 -1.092,0.422 -1.455,0.548 -0.362,0.126 -0.783,0.189 -1.262,0.189 -0.736,0 -1.309,-0.18 -1.717,-0.539 -0.408,-0.359 -0.611,-0.814 -0.611,-1.367 0,-0.215 0.015,-0.435 0.045,-0.659 0.031,-0.224 0.08,-0.476 0.147,-0.759 l 0.761,-2.688 c 0.067,-0.258 0.125,-0.503 0.171,-0.731 0.046,-0.23 0.068,-0.441 0.068,-0.633 0,-0.342 -0.071,-0.582 -0.212,-0.717 -0.143,-0.135 -0.412,-0.201 -0.813,-0.201 -0.196,0 -0.398,0.029 -0.605,0.09 -0.205,0.063 -0.383,0.12 -0.529,0.176 L 8.46,10.188 C 8.958,9.985 9.435,9.811 9.89,9.667 c 0.455,-0.146 0.885,-0.218 1.29,-0.218 0.731,0 1.295,0.178 1.692,0.53 0.395,0.353 0.594,0.812 0.594,1.376 0,0.117 -0.014,0.323 -0.041,0.617 -0.027,0.295 -0.078,0.564 -0.152,0.811 l -0.757,2.68 c -0.062,0.215 -0.117,0.461 -0.167,0.736 -0.049,0.275 -0.073,0.485 -0.073,0.626 0,0.356 0.079,0.599 0.239,0.728 0.158,0.129 0.435,0.194 0.827,0.194 0.185,0 0.392,-0.033 0.626,-0.097 0.232,-0.064 0.4,-0.121 0.506,-0.17 l -0.203,0.827 z M 14.137,7.429 c -0.353,0.328 -0.778,0.492 -1.275,0.492 -0.496,0 -0.924,-0.164 -1.28,-0.492 -0.354,-0.328 -0.533,-0.727 -0.533,-1.193 0,-0.465 0.18,-0.865 0.533,-1.196 0.356,-0.332 0.784,-0.497 1.28,-0.497 0.497,0 0.923,0.165 1.275,0.497 0.353,0.331 0.53,0.731 0.53,1.196 0,0.467 -0.177,0.865 -0.53,1.193 z"
       id="path5"
       inkscape:connector-curvature="0" /></g><g
     id="g7"
     transform="translate(-0.05694652,-0.05284062)" /><g
     id="g9"
     transform="translate(-0.05694652,-0.05284062)" /><g
     id="g11"
     transform="translate(-0.05694652,-0.05284062)" /><g
     id="g13"
     transform="translate(-0.05694652,-0.05284062)" /><g
     id="g15"
     transform="translate(-0.05694652,-0.05284062)" /><g
     id="g17"
     transform="translate(-0.05694652,-0.05284062)" /><g
     id="g19"
     transform="translate(-0.05694652,-0.05284062)" /><g
     id="g21"
     transform="translate(-0.05694652,-0.05284062)" /><g
     id="g23"
     transform="translate(-0.05694652,-0.05284062)" /><g
     id="g25"
     transform="translate(-0.05694652,-0.05284062)" /><g
     id="g27"
     transform="translate(-0.05694652,-0.05284062)" /><g
     id="g29"
     transform="translate(-0.05694652,-0.05284062)" /><g
     id="g31"
     transform="translate(-0.05694652,-0.05284062)" /><g
     id="g33"
     transform="translate(-0.05694652,-0.05284062)" /><g
     id="g35"
     transform="translate(-0.05694652,-0.05284062)" /><path
     style="fill:#d4953f;fill-opacity:1"
     d="M 28.993795,63.35438 C 22.832693,62.820145 16.841495,60.426922 11.975786,56.556425 10.678064,55.524134 8.5160276,53.420606 7.4492696,52.152405 0.37692425,43.744539 -1.8365609,32.337208 1.5715861,21.861403 2.6975299,18.400529 4.5744272,14.912729 6.8817082,11.993712 7.9357803,10.660171 10.628496,7.9684169 11.975786,6.9014534 20.124136,0.44850544 30.81267,-1.6299154 40.754615,1.3053149 52.300684,4.7141424 61.089214,14.654817 63.019974,26.489581 c 0.650328,3.986247 0.523332,8.477793 -0.346994,12.272322 -3.101064,13.520318 -14.644023,23.514434 -28.413135,24.600638 -1.475773,0.11642 -3.872145,0.112706 -5.26605,-0.0082 z m 4.354608,-12.341226 c 0.706495,-0.150702 2.007577,-0.595523 3.96857,-1.356795 l 1.065499,-0.413635 0.273403,-1.102047 c 0.150372,-0.606126 0.256517,-1.11863 0.235879,-1.138898 -0.02064,-0.02027 -0.368096,0.07108 -0.772128,0.203005 -1.065974,0.348056 -1.944264,0.476538 -2.838548,0.415243 -1.053666,-0.07222 -1.643476,-0.361981 -1.981463,-0.973448 -0.221302,-0.40037 -0.247884,-0.561827 -0.238978,-1.451536 0.0134,-1.33836 0.21316,-2.230144 1.592112,-7.107521 1.338656,-4.734849 1.426708,-5.133279 1.511931,-6.841407 0.09972,-1.998644 -0.203679,-3.010943 -1.236882,-4.126926 -0.66181,-0.714835 -1.492219,-1.200866 -2.580455,-1.510317 -1.038997,-0.295451 -3.396425,-0.322379 -4.504767,-0.05146 -1.436228,0.351071 -4.894726,1.567839 -5.11873,1.800872 -0.06239,0.0649 -0.225133,0.604715 -0.361653,1.199581 -0.189306,0.824878 -0.216071,1.069239 -0.11277,1.029599 1.220016,-0.468165 1.936994,-0.609584 3.090505,-0.609584 1.095857,0 1.240353,0.02196 1.64663,0.250265 0.738042,0.414734 0.8565,0.727447 0.853214,2.252383 -0.0033,1.527228 -0.04971,1.734683 -1.679991,7.507945 -0.575262,2.037156 -1.12564,4.17692 -1.223061,4.755032 -0.252245,1.496854 -0.2348,3.179093 0.04092,3.946103 0.686951,1.910997 2.264104,3.078492 4.67074,3.457537 0.796092,0.125385 2.829222,0.05176 3.700024,-0.133993 z m 2.89499,-29.98833 c 0.769456,-0.268087 1.432843,-0.699219 1.978516,-1.28583 0.932917,-1.002908 1.223373,-1.802276 1.165991,-3.208938 C 39.3544,15.7089 39.30236,15.46591 39.041552,14.912998 38.49075,13.745289 37.50037,12.854083 36.243393,12.39504 c -0.473079,-0.172766 -0.81458,-0.216398 -1.693719,-0.216398 -0.87914,0 -1.220641,0.04363 -1.69372,0.216398 -3.20823,1.171632 -4.269334,4.92785 -2.053837,7.270412 0.795787,0.841428 1.616082,1.306445 2.746497,1.556962 0.622651,0.137988 2.027199,0.035 2.694779,-0.19759 z"
     id="path3394"
     inkscape:connector-curvature="0" /></svg>