<?xml version="1.0" encoding="UTF-8" standalone="no"?>
<!-- Generator: Adobe Illustrator 19.0.0, SVG Export Plug-In . SVG Version: 6.00 Build 0)  -->

<svg
   xmlns:dc="http://purl.org/dc/elements/1.1/"
   xmlns:cc="http://creativecommons.org/ns#"
   xmlns:rdf="http://www.w3.org/1999/02/22-rdf-syntax-ns#"
   xmlns:svg="http://www.w3.org/2000/svg"
   xmlns="http://www.w3.org/2000/svg"
   xmlns:sodipodi="http://sodipodi.sourceforge.net/DTD/sodipodi-0.dtd"
   xmlns:inkscape="http://www.inkscape.org/namespaces/inkscape"
   version="1.1"
   id="Capa_1"
   x="0px"
   y="0px"
   viewBox="0 0 68.148575 66.728813"
   xml:space="preserve"
   inkscape:version="0.91 r13725"
   sodipodi:docname="instagram.svg"
   width="68.148575"
   height="66.728813"><metadata
     id="metadata47"><rdf:RDF><cc:Work
         rdf:about=""><dc:format>image/svg+xml</dc:format><dc:type
           rdf:resource="http://purl.org/dc/dcmitype/StillImage" /><dc:title></dc:title></cc:Work></rdf:RDF></metadata><defs
     id="defs45"><style
       id="style3378">.cls-1{fill:#d4953d;}</style><style
       id="style3393">.cls-1{fill:#d4953f;}</style><style
       id="style3408">.cls-1{fill:#2f5572;}</style></defs><sodipodi:namedview
     pagecolor="#ffffff"
     bordercolor="#666666"
     borderopacity="1"
     objecttolerance="10"
     gridtolerance="10"
     guidetolerance="10"
     inkscape:pageopacity="0"
     inkscape:pageshadow="2"
     inkscape:window-width="959"
     inkscape:window-height="1029"
     id="namedview43"
     showgrid="false"
     fit-margin-top="0"
     fit-margin-left="0"
     fit-margin-right="0"
     fit-margin-bottom="0"
     inkscape:zoom="4.9166667"
     inkscape:cx="24.40678"
     inkscape:cy="43.228814"
     inkscape:window-x="0"
     inkscape:window-y="0"
     inkscape:window-maximized="0"
     inkscape:current-layer="Capa_1" /><g
     id="g3"
     transform="matrix(1.419762,0,0,1.419762,0,-0.709881)"
     style="fill:#2f5572;fill-opacity:1"><g
       id="g5"
       style="fill:#2f5572;fill-opacity:1"><path
         d="m 40.4,5.5 -4.8,0 C 34.166,5.5 33,6.666 33,8.1 l 0,4.8 c 0,1.434 1.166,2.6 2.6,2.6 l 4.8,0 c 1.434,0 2.6,-1.166 2.6,-2.6 L 43,8.1 C 43,6.666 41.834,5.5 40.4,5.5 Z m 0.6,7.4 c 0,0.331 -0.269,0.6 -0.6,0.6 l -4.8,0 C 35.269,13.5 35,13.231 35,12.9 l 0,-4.8 c 0,-0.331 0.269,-0.6 0.6,-0.6 l 4.8,0 c 0.331,0 0.6,0.269 0.6,0.6 l 0,4.8 z"
         id="path7"
         inkscape:connector-curvature="0"
         style="fill:#2f5572;fill-opacity:1" /><path
         d="m 37.8,0.5 -27.6,0 C 4.576,0.5 0,5.089 0,10.731 l 0,6.769 0,2 0,17.77 C 0,42.911 4.576,47.5 10.2,47.5 l 27.6,0 C 43.424,47.5 48,42.911 48,37.27 l 0,-17.77 0,-2 0,-6.769 C 48,5.089 43.424,0.5 37.8,0.5 Z M 46,37.27 c 0,4.538 -3.679,8.23 -8.2,8.23 l -27.6,0 C 5.678,45.5 2,41.808 2,37.27 l 0,-17.77 12.221,0 C 11.62,22.043 10,25.584 10,29.5 c 0,7.72 6.28,14 14,14 7.72,0 14,-6.28 14,-14 0,-3.916 -1.62,-7.457 -4.221,-10 L 46,19.5 46,37.27 Z M 36,29.5 c 0,6.617 -5.383,12 -12,12 -6.617,0 -12,-5.383 -12,-12 0,-6.617 5.383,-12 12,-12 6.617,0 12,5.383 12,12 z m -4.826,-12 c -2.101,-1.261 -4.55,-2 -7.174,-2 -2.624,0 -5.073,0.739 -7.174,2 L 2,17.5 2,10.731 C 2,6.192 5.679,2.5 10.2,2.5 l 27.6,0 c 4.521,0 8.2,3.692 8.2,8.231 l 0,6.769 -14.826,0 z"
         id="path9"
         inkscape:connector-curvature="0"
         style="fill:#2f5572;fill-opacity:1" /><path
         d="m 15,29.5 c 0,4.962 4.037,9 9,9 4.963,0 9,-4.038 9,-9 0,-4.962 -4.037,-9 -9,-9 -4.963,0 -9,4.038 -9,9 z m 16,0 c 0,3.86 -3.141,7 -7,7 -3.859,0 -7,-3.14 -7,-7 0,-3.86 3.141,-7 7,-7 3.859,0 7,3.14 7,7 z"
         id="path11"
         inkscape:connector-curvature="0"
         style="fill:#2f5572;fill-opacity:1" /></g></g><g
     id="g13"
     transform="translate(0,-0.5)" /><g
     id="g15"
     transform="translate(0,-0.5)" /><g
     id="g17"
     transform="translate(0,-0.5)" /><g
     id="g19"
     transform="translate(0,-0.5)" /><g
     id="g21"
     transform="translate(0,-0.5)" /><g
     id="g23"
     transform="translate(0,-0.5)" /><g
     id="g25"
     transform="translate(0,-0.5)" /><g
     id="g27"
     transform="translate(0,-0.5)" /><g
     id="g29"
     transform="translate(0,-0.5)" /><g
     id="g31"
     transform="translate(0,-0.5)" /><g
     id="g33"
     transform="translate(0,-0.5)" /><g
     id="g35"
     transform="translate(0,-0.5)" /><g
     id="g37"
     transform="translate(0,-0.5)" /><g
     id="g39"
     transform="translate(0,-0.5)" /><g
     id="g41"
     transform="translate(0,-0.5)" /></svg>