<?xml version="1.0" encoding="UTF-8" standalone="no"?>
<!-- Created with Inkscape (http://www.inkscape.org/) -->

<svg
   xmlns:dc="http://purl.org/dc/elements/1.1/"
   xmlns:cc="http://creativecommons.org/ns#"
   xmlns:rdf="http://www.w3.org/1999/02/22-rdf-syntax-ns#"
   xmlns:svg="http://www.w3.org/2000/svg"
   xmlns="http://www.w3.org/2000/svg"
   xmlns:sodipodi="http://sodipodi.sourceforge.net/DTD/sodipodi-0.dtd"
   xmlns:inkscape="http://www.inkscape.org/namespaces/inkscape"
   width="73.862549mm"
   height="38.414127mm"
   viewBox="0 0 261.7177 136.11304"
   id="svg3617"
   version="1.1"
   inkscape:version="0.91 r13725"
   sodipodi:docname="shirtanddress.svg">
  <defs
     id="defs3619" />
  <sodipodi:namedview
     id="base"
     pagecolor="#ffffff"
     bordercolor="#666666"
     borderopacity="1.0"
     inkscape:pageopacity="0.0"
     inkscape:pageshadow="2"
     inkscape:zoom="1.979899"
     inkscape:cx="174.08508"
     inkscape:cy="60.246443"
     inkscape:document-units="px"
     inkscape:current-layer="layer1"
     showgrid="false"
     inkscape:window-width="959"
     inkscape:window-height="1029"
     inkscape:window-x="960"
     inkscape:window-y="0"
     inkscape:window-maximized="0"
     fit-margin-top="0"
     fit-margin-left="0"
     fit-margin-right="0"
     fit-margin-bottom="0" />
  <metadata
     id="metadata3622">
    <rdf:RDF>
      <cc:Work
         rdf:about="">
        <dc:format>image/svg+xml</dc:format>
        <dc:type
           rdf:resource="http://purl.org/dc/dcmitype/StillImage" />
        <dc:title></dc:title>
      </cc:Work>
    </rdf:RDF>
  </metadata>
  <g
     inkscape:label="Layer 1"
     inkscape:groupmode="layer"
     id="layer1"
     transform="translate(-258.37706,-260.59022)">
    <path
       d="m 503.64231,295.27072 c -11.10125,-19.6725 -15.45625,-17.425 -19.67125,-19.25125 -4.2125,-1.8275 -19.6725,-6.32375 -19.6725,-6.32375 0,0 0.8275,-0.835 -1.00125,-2.02625 -1.43,3.7325 -3.84125,7.91 -6.62875,10.38875 l -1.25,6.64125 c 3.4275,19.105 3.79125,34.865 4.43125,53.3825 -2.09375,2.63375 -5.18875,6.67875 -7.425,9.26875 -2.5,-2.5475 -5.44375,-6.44625 -8.06625,-9.2675 1.05125,-18.57625 1.87,-34.47875 4.73,-53.38375 -0.4575,-2.18 -0.9175,-4.3625 -1.375,-6.5425 -3.23125,-3.14875 -4.85625,-7.095 -5.4175,-10.63375 l -0.2875,0.12875 c -1.87125,1.19875 -1.02625,2.04375 -1.02625,2.04375 0,0 -15.4625,4.49625 -19.67375,6.32375 -4.21625,1.82625 -8.57,-0.42125 -19.6725,19.25125 -11.10125,19.6725 -16.7225,25.1525 -16.44,33.5825 0.28,8.4325 16.58125,31.4775 20.6575,37.52 0,0 0.9825,1.12375 2.2475,0.84375 l 1.12375,1.26375 6.7425,-4.21625 -0.84125,-1.82625 c 0,0 2.10875,-1.54625 -0.985,-6.32375 -3.0925,-4.7775 -11.24125,-28.805 -11.24125,-28.805 0,0 9.83875,-17.8475 16.02,-20.6575 0,0 2.66875,20.515 2.95125,29.0875 0.2825,8.5725 -7.3075,36.95625 -5.2,42.4375 2.11125,5.47875 5.05875,4.49625 5.05875,4.49625 l -0.5625,3.2325 c 0,0 3.095,3.93375 22.2025,4.49625 l 18.53875,0 c 19.11,-0.5625 22.2025,-4.49625 22.2025,-4.49625 l -0.56375,-3.2325 c 0,0 2.95125,0.9825 5.06,-4.49625 2.10875,-5.48125 -5.48125,-33.865 -5.2,-42.4375 0.28375,-8.5725 2.95125,-29.0875 2.95125,-29.0875 6.1825,2.81 16.01875,20.6575 16.01875,20.6575 0,0 -8.14875,24.0275 -11.23875,28.805 -3.095,4.7775 -0.98625,6.32375 -0.98625,6.32375 l -0.84125,1.82625 6.74375,4.21625 1.125,-1.26375 c 1.2625,0.28 2.2475,-0.84375 2.2475,-0.84375 4.07375,-6.0425 20.37625,-29.0875 20.6575,-37.52 0.28,-8.43 -5.34,-13.91 -16.4425,-33.5825"
       style="fill:#14191e;fill-opacity:1;fill-rule:nonzero;stroke:none"
       id="path84"
       inkscape:connector-curvature="0" />
    <path
       d="m 331.56356,347.49072 c -2.0225,-2.62875 -9.30525,-26.0975 -9.30525,-26.0975 3.23387,7.69 13.35162,27.91875 13.35162,27.91875 0,0 -2.0235,0.8075 -4.04637,-1.82125 z m -18.17188,-0.2375 c -0.69487,-3.5175 -1.57525,-26.965 -1.57525,-26.965 l 4.899,32.75875 c 0,0 -2.63775,-2.27375 -3.32374,-5.79375 z m -11.97312,6.5125 c 0,0 -2.22763,-4.45375 -2.0215,-6.4775 0.20012,-2.025 1.21137,-7.89 1.21137,-12.7425 0,-4.85875 0,-14.56875 0,-14.56875 2.02388,1.41625 0.81013,33.78875 0.81013,33.78875 z m -10.51863,-15.3775 c -0.69475,1.80625 -4.2485,7.89875 -6.40962,11.54 -1.01375,1.99 -1.687,2.8225 -1.687,2.8225 0,0 0.69912,-1.1575 1.687,-2.8225 0.7685,-1.5025 1.72162,-3.64125 2.76612,-6.68125 0.37638,-1.09125 0.84563,-2.4375 1.38625,-3.935 2.93788,-8.2125 7.71526,-20.9525 7.71526,-20.9525 0,0 -4.44826,17.39875 -5.45801,20.02875 z m 68.47113,38.6075 c -6.3425,-13.07125 -11.84125,-26.19625 -18.30875,-38.5475 -1.33038,-2.53875 -2.79025,-4.75875 -4.2405,-7.12875 -1.56788,-2.56625 -2.05025,-5.3125 -3.28075,-8.0975 -0.48925,-1.11125 -1.36325,-2.20125 -1.73338,-3.08375 -0.45749,-1.0925 -0.56637,-2.495 -0.96187,-3.47 -0.63138,-1.56875 -2.26175,-3.2225 -3.1265,-4.875 l 0.20363,0.4925 -35.05226,-0.52875 0.83351,-2.8075 0.17424,-2.13625 c -0.0141,0.13 -0.0277,0.2925 -0.0405,0.41125 -0.36762,3.59375 -1.97999,7.29375 -3.65875,10.41 -1.67525,3.1025 -3.436,6.15375 -5.01112,9.055 -3.54738,6.5575 -6.40488,13.19625 -9.2535,19.08375 -6.45938,13.34625 -13.14113,25.40125 -17.5375,39.12375 4.184,2.7075 9.47212,2.19875 13.875,4.24375 2.42187,1.1225 4.1035,2.54375 6.166,3.085 2.2665,0.58625 3.80075,-0.0987 5.59375,-0.195 2.74312,-0.15375 5.76075,1.0075 8.86712,1.34375 3.23975,0.365 6.59475,-0.175 10.01763,0.39125 0.2885,0.8025 0.27587,1.9075 0.77287,2.5075 2.1705,-0.0775 4.43126,0.60875 6.55475,0.385 0.896,-0.0975 1.6055,-0.75625 2.50688,-0.96625 2.70987,-0.64 5.36812,-0.3075 8.4775,-0.77375 0.68112,-0.0975 1.31,-0.55125 1.93012,-0.575 2.70663,-0.10625 5.63338,0.9275 8.28613,0.575 2.27637,-0.2975 4.9165,-1.985 6.74462,-2.315 3.26913,-0.58 5.59538,-0.6825 8.48163,-1.34375 4.52,-1.04 6.40125,-1.85625 10.985,-3.665 1.92875,-0.7575 4.9475,-1.66 5.20375,-2.88875 0.2575,-1.26 -2.4225,-5.54375 -3.46875,-7.71"
       style="fill:#14191e;fill-opacity:1;fill-rule:nonzero;stroke:none"
       id="path102"
       inkscape:connector-curvature="0" />
    <path
       d="m 308.29931,263.47572 c 5.1665,0.0975 10.94925,-0.42 12.713,3.08 -1.47563,6.81125 -5.37013,11.19875 -8.47075,16.3825 -1.731,-0.81125 -2.84325,-3.63875 -4.05225,-6.165 -1.86813,-3.9025 -4.9585,-10.7975 -0.19,-13.2975 z m 19.04062,39.85875 0.0385,-0.35125 c 0.36625,-2.85 2.32275,-5.22125 3.08113,-7.8975 0.17775,-0.62625 0.0318,-1.42625 0.19037,-2.12125 0.71288,-2.9925 2.18313,-5.18625 1.15775,-8.87 -2.88575,-0.89875 -3.14449,-3.55 -4.045,-6.35875 -1.0385,-3.25625 -3.03362,-6.44875 -3.8535,-9.44375 2.771,1.455 4.56113,4.48625 6.93663,6.7475 1.29187,1.23 3.2865,2.96625 5.01362,3.46875 1.53563,0.4475 4.54288,-0.49875 4.81413,1.92375 -1.12862,1.12375 -2.52413,1.9725 -3.85175,2.89375 -0.21387,1.64625 -1.59662,4.31125 -0.77387,6.93625 0.47649,-2.4025 0.14112,-3.615 0.96724,-5.19875 1.36576,-2.64875 6.43963,-2.6 4.23963,-7.3275 -1.29963,-1.1575 -2.92612,-0.0487 -4.62775,-0.3825 -2.32187,-0.465 -4.11675,-4.2425 -5.97713,-6.16875 -0.99312,-1.03625 -2.07025,-2.1025 -3.08012,-3.085 -4.17862,-4.0425 -9.87938,-8.47625 -18.50238,-7.32375 -2.57762,0.34375 -4.05562,2.085 -5.39799,3.66625 -1.51463,1.775 -3.08051,4.065 -4.81838,5.39375 -2.8515,2.17875 -6.36812,1.37 -10.603,1.735 -0.79687,1.4175 -1.65762,2.325 -1.539,3.85125 0.2075,2.68125 3.35687,4.29125 2.70113,6.36125 -0.36376,1.12125 -1.44088,1.66 -2.50725,1.5425 -2.18313,-0.2375 -2.19688,-3.9775 -4.4375,-4.0475 0.061,1.76125 2.02,4.39875 3.47449,5.0125 3.83263,1.615 5.61575,-3.395 3.85501,-6.74625 -0.60251,-1.145 -2.02001,-1.6675 -1.93113,-2.89125 0.22213,-3.015 5.3355,-1.26 8.292,-1.735 1.11475,-0.18125 1.3115,-1.00125 2.30812,-0.58125 -0.70024,2.69125 -1.98,5.38375 -4.04349,7.32375 -1.12938,1.06125 -3.43938,1.82625 -3.86088,3.2775 -0.562,1.9825 -0.13962,5.06125 0,6.7475 0.171,1.92 0.80912,3.71875 1.35313,5.4 0.56099,1.715 1.84024,3.2675 2.12349,4.81625 0.25926,1.435 0.14113,3.645 -0.0239,5.5225 l 0.22213,-2.01375 33.1055,-0.0763"
       style="fill:#14191e;fill-opacity:1;fill-rule:nonzero;stroke:none"
       id="path104"
       inkscape:connector-curvature="0" />
  </g>
</svg>
