<?xml version="1.0" encoding="UTF-8" standalone="no"?>
<!-- Created with Inkscape (http://www.inkscape.org/) -->

<svg
   xmlns:dc="http://purl.org/dc/elements/1.1/"
   xmlns:cc="http://creativecommons.org/ns#"
   xmlns:rdf="http://www.w3.org/1999/02/22-rdf-syntax-ns#"
   xmlns:svg="http://www.w3.org/2000/svg"
   xmlns="http://www.w3.org/2000/svg"
   xmlns:sodipodi="http://sodipodi.sourceforge.net/DTD/sodipodi-0.dtd"
   xmlns:inkscape="http://www.inkscape.org/namespaces/inkscape"
   width="52.475613mm"
   height="31.074905mm"
   viewBox="0 0 185.93722 110.10792"
   id="svg3617"
   version="1.1"
   inkscape:version="0.91 r13725"
   sodipodi:docname="shirt-dress-black.svg">
  <defs
     id="defs3619" />
  <sodipodi:namedview
     id="base"
     pagecolor="#ffffff"
     bordercolor="#666666"
     borderopacity="1.0"
     inkscape:pageopacity="0.0"
     inkscape:pageshadow="2"
     inkscape:zoom="1.979899"
     inkscape:cx="169.50372"
     inkscape:cy="60.246456"
     inkscape:document-units="px"
     inkscape:current-layer="layer1"
     showgrid="false"
     inkscape:window-width="959"
     inkscape:window-height="1029"
     inkscape:window-x="960"
     inkscape:window-y="0"
     inkscape:window-maximized="0"
     fit-margin-top="0"
     fit-margin-left="0"
     fit-margin-right="0"
     fit-margin-bottom="0" />
  <metadata
     id="metadata3622">
    <rdf:RDF>
      <cc:Work
         rdf:about="">
        <dc:format>image/svg+xml</dc:format>
        <dc:type
           rdf:resource="http://purl.org/dc/dcmitype/StillImage" />
        <dc:title></dc:title>
      </cc:Work>
    </rdf:RDF>
  </metadata>
  <g
     inkscape:label="Layer 1"
     inkscape:groupmode="layer"
     id="layer1"
     transform="translate(-262.95841,-286.59535)">
    <path
       d="m 358.78308,314.64995 c -8.98029,-15.91397 -12.50325,-14.09586 -15.91295,-15.5732 -3.40768,-1.47834 -15.91396,-5.11556 -15.91396,-5.11556 0,0 0.6694,-0.67547 -0.80996,-1.63913 -1.15679,3.01939 -3.10736,6.39876 -5.36229,8.40393 l -1.01118,5.3724 c 2.77266,15.45489 3.06691,28.20386 3.58463,43.18349 -1.69372,2.13056 -4.19741,5.40274 -6.00641,7.49791 -2.02236,-2.06079 -4.40369,-5.21466 -6.52515,-7.4969 0.8504,-15.02715 1.51273,-27.8914 3.82631,-43.1845 -0.37009,-1.7635 -0.74221,-3.52902 -1.1123,-5.29252 -2.6139,-2.54716 -3.92844,-5.73946 -4.38246,-8.60211 l -0.23257,0.10415 c -1.51374,0.96972 -0.83018,1.65328 -0.83018,1.65328 0,0 -12.50831,3.63722 -15.91498,5.11556 -3.41071,1.47734 -6.93265,-0.34077 -15.91396,15.5732 -8.9803,15.91396 -13.52758,20.34698 -13.29905,27.16638 0.2265,6.82143 13.41331,25.46356 16.71077,30.35161 0,0 0.79479,0.90905 1.81811,0.68255 l 0.90905,1.0223 5.45431,-3.41071 -0.68053,-1.47734 c 0,0 1.70587,-1.25083 -0.79681,-5.11556 -2.50166,-3.86474 -9.09355,-23.30165 -9.09355,-23.30165 0,0 7.95901,-14.43764 12.9593,-16.71078 0,0 2.15887,16.5955 2.3874,23.53018 0.22852,6.93468 -5.91137,29.89556 -4.20652,34.32959 1.70789,4.43201 4.09225,3.63722 4.09225,3.63722 l -0.45503,2.61491 c 0,0 2.50368,3.18219 17.9606,3.63722 l 14.99682,0 c 15.45893,-0.45503 17.96059,-3.63722 17.96059,-3.63722 l -0.45604,-2.61491 c 0,0 2.3874,0.79479 4.09326,-3.63722 1.70586,-4.43403 -4.43403,-27.39491 -4.20651,-34.32959 0.22954,-6.93468 2.3874,-23.53018 2.3874,-23.53018 5.0013,2.27314 12.95828,16.71078 12.95828,16.71078 0,0 -6.59189,19.43691 -9.09153,23.30165 -2.50368,3.86473 -0.79782,5.11556 -0.79782,5.11556 l -0.68052,1.47734 5.45532,3.41071 0.91006,-1.0223 c 1.02129,0.2265 1.8181,-0.68255 1.8181,-0.68255 3.29544,-4.88805 16.48326,-23.53018 16.71078,-30.35161 0.2265,-6.8194 -4.31977,-11.25242 -13.30108,-27.16638"
       style="fill:#14191e;fill-opacity:1;fill-rule:nonzero;stroke:none"
       id="path84"
       inkscape:connector-curvature="0" />
    <path
       d="m 423.58089,356.89304 c -1.63609,-2.12651 -7.52743,-21.11143 -7.52743,-21.11143 2.61602,6.22078 10.80072,22.58472 10.80072,22.58472 0,0 -1.6369,0.65322 -3.27329,-1.47329 z m -14.70004,-0.19212 c -0.56212,-2.84547 -1.27429,-21.8132 -1.27429,-21.8132 l 3.96302,26.50002 c 0,0 -2.1338,-1.83934 -2.68873,-4.68682 z m -9.6856,5.26825 c 0,0 -1.80203,-3.60284 -1.63528,-5.23994 0.16189,-1.63811 0.97993,-6.38257 0.97993,-10.30798 0,-3.93046 0,-11.78531 0,-11.78531 1.63721,1.14567 0.65535,27.33323 0.65535,27.33323 z m -8.50899,-12.43955 c -0.56201,1.46116 -3.4368,6.38965 -5.18502,9.33522 -0.82007,1.6098 -1.36469,2.28325 -1.36469,2.28325 0,0 0.56554,-0.93635 1.36469,-2.28325 0.62167,-1.21544 1.39269,-2.94557 2.23763,-5.40476 0.30447,-0.88276 0.68407,-1.9718 1.1214,-3.1832 2.37659,-6.64345 6.24122,-16.94941 6.24122,-16.94941 0,0 -3.59839,14.07463 -4.41523,16.20215 z m 55.38936,31.23133 c -5.13073,-10.57391 -9.57892,-21.19131 -14.81076,-31.18279 -1.07621,-2.05371 -2.25716,-3.84957 -3.43033,-5.76677 -1.26833,-2.07595 -1.65854,-4.29751 -2.65395,-6.55043 -0.39578,-0.89894 -1.10279,-1.78068 -1.40221,-2.49458 -0.37008,-0.88377 -0.45816,-2.01832 -0.7781,-2.80704 -0.51075,-1.26903 -1.82963,-2.60682 -2.52916,-3.9436 l 0.16472,0.3984 -28.35534,-0.42773 0.67426,-2.27111 0.14096,-1.72811 c -0.0114,0.10517 -0.0224,0.23662 -0.0328,0.33268 -0.29738,2.90715 -1.6017,5.90024 -2.95972,8.42112 -1.35519,2.50975 -2.77954,4.97804 -4.05372,7.32499 -2.86964,5.30466 -5.1812,10.67504 -7.48557,15.4377 -5.22528,10.79638 -10.63045,20.54821 -14.18687,31.64895 3.38462,2.19022 7.66242,1.77867 11.22411,3.43296 1.95916,0.90804 3.3195,2.05775 4.98795,2.49559 1.83347,0.47425 3.0746,-0.0798 4.52504,-0.15774 2.21903,-0.12438 4.66012,0.81501 7.173,1.08702 2.62078,0.29526 5.33479,-0.14157 8.10371,0.3165 0.23338,0.64918 0.22317,1.54306 0.62521,2.02843 1.75582,-0.0627 3.58465,0.49244 5.30243,0.31144 0.72482,-0.0789 1.29876,-0.61176 2.02793,-0.78164 2.19214,-0.51773 4.34251,-0.24875 6.85783,-0.62592 0.55099,-0.0789 1.05972,-0.44593 1.56136,-0.46515 2.18951,-0.086 4.55709,0.7503 6.70302,0.46515 1.84146,-0.24066 3.97718,-1.60576 5.45603,-1.87271 2.64454,-0.46919 4.52635,-0.55211 6.86116,-1.08702 3.65643,-0.8413 5.17826,-1.5016 8.88626,-2.96478 1.56025,-0.61278 4.00226,-1.34285 4.20955,-2.33684 0.2083,-1.01927 -1.95967,-4.48459 -2.80603,-6.23697"
       style="fill:#14191e;fill-opacity:1;fill-rule:nonzero;stroke:none"
       id="path102"
       inkscape:connector-curvature="0" />
    <path
       d="m 404.7614,288.92955 c 4.17941,0.0789 8.85734,-0.33975 10.28411,2.49155 -1.1937,5.50993 -4.34413,9.05917 -6.85236,13.25254 -1.40029,-0.65626 -2.30004,-2.94355 -3.27805,-4.98715 -1.51121,-3.1569 -4.01115,-8.73458 -0.1537,-10.75694 z m 15.40281,32.24353 0.0311,-0.28414 c 0.29628,-2.3055 1.87898,-4.22371 2.49247,-6.38865 0.14379,-0.5066 0.0257,-1.15375 0.154,-1.71597 0.57668,-2.42077 1.76603,-4.19539 0.93655,-7.17534 -2.33441,-0.72704 -2.54372,-2.87175 -3.27218,-5.14388 -0.84009,-2.63412 -2.45403,-5.21668 -3.11727,-7.63947 2.24159,1.17702 3.6897,3.62913 5.61135,5.45836 1.04505,0.995 2.6586,2.39953 4.05574,2.80602 1.24224,0.36201 3.67494,-0.40346 3.89437,1.55621 -0.91299,0.90905 -2.04188,1.59564 -3.11585,2.34088 -0.17301,1.33173 -1.29158,3.48757 -0.62602,5.61105 0.38545,-1.94349 0.11416,-2.92434 0.78244,-4.2055 1.10482,-2.1427 5.20931,-2.10326 3.42963,-5.92755 -1.05133,-0.93635 -2.36707,-0.0394 -3.7436,-0.30942 -1.87826,-0.37616 -3.33022,-3.43195 -4.83516,-4.99018 -0.80338,-0.83826 -1.67472,-1.7008 -2.49165,-2.49559 -3.38027,-3.27016 -7.99187,-6.85682 -14.9674,-5.92451 -2.08516,0.27808 -3.28078,1.68665 -4.36668,2.96579 -1.22525,1.43588 -2.49196,3.28837 -3.8978,4.36325 -2.30671,1.76249 -5.15146,1.10825 -8.57724,1.40352 -0.64463,1.14668 -1.34093,1.8808 -1.24497,3.11545 0.16786,2.16898 2.71552,3.47138 2.18507,5.1459 -0.29427,0.90703 -1.1656,1.34285 -2.02823,1.24779 -1.76603,-0.19212 -1.77715,-3.21757 -3.58969,-3.2742 0.0493,1.42475 1.63407,3.55835 2.81067,4.05484 3.10038,1.30644 4.54283,-2.74637 3.11849,-5.45735 -0.4874,-0.92624 -1.63408,-1.34891 -1.56218,-2.33886 0.17969,-2.43897 4.31612,-1.01927 6.70777,-1.40352 0.90177,-0.14662 1.06093,-0.80995 1.86714,-0.4702 -0.56645,2.17708 -1.60171,4.35516 -3.27096,5.92451 -0.9136,0.85849 -2.78227,1.47734 -3.12324,2.65132 -0.45462,1.60373 -0.11294,4.09427 0,5.45835 0.13833,1.55318 0.65454,3.00827 1.09461,4.3683 0.45381,1.38734 1.48865,2.64323 1.71779,3.89608 0.20972,1.16084 0.11416,2.94861 -0.0193,4.4674 l 0.17969,-1.62901 26.78052,-0.0617"
       style="fill:#14191e;fill-opacity:1;fill-rule:nonzero;stroke:none"
       id="path104"
       inkscape:connector-curvature="0" />
  </g>
</svg>
