<?xml version="1.0" encoding="UTF-8" standalone="no"?>
<!-- Created with Inkscape (http://www.inkscape.org/) -->

<svg
   xmlns:dc="http://purl.org/dc/elements/1.1/"
   xmlns:cc="http://creativecommons.org/ns#"
   xmlns:rdf="http://www.w3.org/1999/02/22-rdf-syntax-ns#"
   xmlns:svg="http://www.w3.org/2000/svg"
   xmlns="http://www.w3.org/2000/svg"
   xmlns:sodipodi="http://sodipodi.sourceforge.net/DTD/sodipodi-0.dtd"
   xmlns:inkscape="http://www.inkscape.org/namespaces/inkscape"
   width="18.758659mm"
   height="17.047482mm"
   viewBox="0 0 66.467691 60.40446"
   id="svg3617"
   version="1.1"
   inkscape:version="0.91 r13725"
   sodipodi:docname="shirt.svg">
  <defs
     id="defs3619" />
  <sodipodi:namedview
     id="base"
     pagecolor="#ffffff"
     bordercolor="#666666"
     borderopacity="1.0"
     inkscape:pageopacity="0.0"
     inkscape:pageshadow="2"
     inkscape:zoom="1.979899"
     inkscape:cx="71.983374"
     inkscape:cy="-6.3486777"
     inkscape:document-units="px"
     inkscape:current-layer="layer1"
     showgrid="false"
     inkscape:window-width="959"
     inkscape:window-height="1029"
     inkscape:window-x="959"
     inkscape:window-y="0"
     inkscape:window-maximized="0"
     fit-margin-top="0"
     fit-margin-left="0"
     fit-margin-right="0"
     fit-margin-bottom="0" />
  <metadata
     id="metadata3622">
    <rdf:RDF>
      <cc:Work
         rdf:about="">
        <dc:format>image/svg+xml</dc:format>
        <dc:type
           rdf:resource="http://purl.org/dc/dcmitype/StillImage" />
        <dc:title></dc:title>
      </cc:Work>
    </rdf:RDF>
  </metadata>
  <g
     inkscape:label="Layer 1"
     inkscape:groupmode="layer"
     id="layer1"
     transform="translate(-312.7975,-269.70368)">
    <path
       style="fill:#d4953f;fill-opacity:1"
       d="m 337.10046,329.87132 c -2.1336,-0.24819 -4.62837,-0.86268 -5.65253,-1.3923 -0.62095,-0.32111 -0.71143,-0.4958 -0.62779,-1.21217 0.0868,-0.74334 0.0213,-0.85229 -0.58532,-0.9736 -0.47648,-0.0953 -0.88815,-0.48664 -1.36135,-1.29411 -1.01276,-1.72814 -0.87026,-3.3152 1.42809,-15.90463 0.73104,-4.00434 0.7276,-7.56193 -0.0136,-14.03553 -0.30777,-2.68806 -0.63587,-5.26314 -0.72911,-5.7224 l -0.16953,-0.83501 -0.92828,0.73771 c -1.60286,1.27379 -3.96336,4.34398 -6.03077,7.84392 l -1.12168,1.8989 1.81591,4.99355 c 2.12833,5.85275 2.94045,7.83875 3.83546,9.37965 0.47695,0.82114 0.66583,1.52069 0.69455,2.57246 l 0.0394,1.44462 -1.45523,0.884 c -1.11661,0.6783 -1.56031,0.82755 -1.90684,0.64142 -0.24839,-0.13343 -0.62663,-0.29509 -0.84053,-0.35926 -0.48601,-0.14581 -5.14316,-7.10938 -7.46465,-11.16146 -1.8719,-3.26733 -2.94866,-5.71214 -3.19542,-7.25532 -0.17899,-1.11934 0.37479,-3.53828 1.17331,-5.12508 0.50167,-0.9969 5.71832,-9.87064 8.16939,-13.89647 1.55859,-2.55995 3.61992,-5.1217 4.75313,-5.90702 0.83587,-0.57924 9.35926,-3.58901 12.56271,-4.43611 0.59002,-0.15602 1.01421,-0.37842 0.94264,-0.49421 -0.0716,-0.11579 0.0173,-0.33291 0.19751,-0.48245 0.25752,-0.21373 0.39524,-0.008 0.64357,0.96075 0.17375,0.67797 0.77655,1.88722 1.33955,2.6872 1.45195,2.06315 1.77328,3.72585 1.32251,6.84317 -0.76956,5.3219 -1.88434,18.72282 -1.88434,22.65184 l 0,1.58666 1.98066,2.28517 1.98067,2.28518 1.09929,-1.30877 c 0.60461,-0.71983 1.47475,-1.7929 1.93365,-2.38461 l 0.83438,-1.07583 -0.28393,-6.44319 c -0.31052,-7.04717 -0.79904,-12.62976 -1.50445,-17.19223 -0.58645,-3.79307 -0.3597,-5.12127 1.24723,-7.30553 0.60981,-0.82892 1.32326,-1.98372 1.58543,-2.56622 0.47459,-1.05448 0.90182,-1.3853 0.90182,-0.69833 0,0.23677 0.75384,0.58501 2.19305,1.0131 1.20617,0.35877 4.1104,1.29264 6.45383,2.07528 l 4.26079,1.42298 1.87976,1.8969 c 1.21337,1.22446 2.43882,2.82646 3.45679,4.51904 5.10523,8.48851 7.23374,12.11699 8.15429,13.90069 0.98536,1.90927 1.03507,2.11294 1.04038,4.26275 0.005,2.18895 -0.031,2.33354 -1.19828,4.74935 -2.24419,4.64486 -8.68883,14.67285 -9.42972,14.67285 -0.23067,0 -0.5512,0.1318 -0.71228,0.29288 -0.22343,0.22343 -0.63252,0.0821 -1.72494,-0.59609 -1.41441,-0.87803 -1.43301,-0.90492 -1.50915,-2.18324 -0.065,-1.09022 0.0754,-1.59885 0.89013,-3.22608 0.97918,-1.95573 3.05125,-7.21855 4.56371,-11.59131 l 0.82704,-2.3911 -1.3218,-2.18829 c -1.86075,-3.08058 -3.98463,-5.8776 -5.42671,-7.14665 -1.09203,-0.96099 -1.25294,-1.03218 -1.41661,-0.62659 -0.28799,0.71359 -1.23298,9.64549 -1.37427,12.98928 -0.11545,2.73227 -0.0325,3.54683 0.90589,8.89752 1.36525,7.78448 1.87512,11.76317 1.65667,12.92758 -0.19303,1.0289 -1.55955,2.61177 -2.2548,2.61177 -0.33381,0 -0.3817,0.16351 -0.25138,0.85819 0.14383,0.76666 0.0837,0.89819 -0.56368,1.23296 -1.05426,0.54517 -3.38738,1.09221 -5.96579,1.39876 -2.60871,0.31015 -15.17456,0.3053 -17.85848,-0.007 l 0,0 z"
       id="path3637"
       inkscape:connector-curvature="0" />
  </g>
</svg>
