<?xml version="1.0" encoding="UTF-8" standalone="no"?>
<!-- Created with Inkscape (http://www.inkscape.org/) -->

<svg
   xmlns:dc="http://purl.org/dc/elements/1.1/"
   xmlns:cc="http://creativecommons.org/ns#"
   xmlns:rdf="http://www.w3.org/1999/02/22-rdf-syntax-ns#"
   xmlns:svg="http://www.w3.org/2000/svg"
   xmlns="http://www.w3.org/2000/svg"
   xmlns:sodipodi="http://sodipodi.sourceforge.net/DTD/sodipodi-0.dtd"
   xmlns:inkscape="http://www.inkscape.org/namespaces/inkscape"
   width="36.871117mm"
   height="23.23745mm"
   viewBox="0 0 130.64569 82.337418"
   id="svg3684"
   version="1.1"
   inkscape:version="0.91 r13725"
   sodipodi:docname="shirt-dress-orange.svg">
  <defs
     id="defs3686" />
  <sodipodi:namedview
     id="base"
     pagecolor="#ffffff"
     bordercolor="#666666"
     borderopacity="1.0"
     inkscape:pageopacity="0.0"
     inkscape:pageshadow="2"
     inkscape:zoom="3.959798"
     inkscape:cx="65.696804"
     inkscape:cy="47.685424"
     inkscape:document-units="px"
     inkscape:current-layer="layer1"
     showgrid="false"
     inkscape:window-width="959"
     inkscape:window-height="1029"
     inkscape:window-x="0"
     inkscape:window-y="0"
     inkscape:window-maximized="0"
     fit-margin-top="0"
     fit-margin-left="0"
     fit-margin-right="0"
     fit-margin-bottom="0" />
  <metadata
     id="metadata3689">
    <rdf:RDF>
      <cc:Work
         rdf:about="">
        <dc:format>image/svg+xml</dc:format>
        <dc:type
           rdf:resource="http://purl.org/dc/dcmitype/StillImage" />
        <dc:title></dc:title>
      </cc:Work>
    </rdf:RDF>
  </metadata>
  <g
     inkscape:label="Layer 1"
     inkscape:groupmode="layer"
     id="layer1"
     transform="translate(-209.00494,-410.21507)">
    <path
       d="m 320.86031,462.8929 c -1.23055,-1.59941 -5.6616,-15.87852 -5.6616,-15.87852 1.96759,4.67883 8.12354,16.98663 8.12354,16.98663 0,0 -1.23116,0.49131 -2.46194,-1.10811 z m -11.05633,-0.1445 c -0.42278,-2.14015 -0.95843,-16.40634 -0.95843,-16.40634 l 2.9807,19.93144 c 0,0 -1.60488,-1.38342 -2.02227,-3.5251 z m -7.28481,3.96241 c 0,0 -1.35536,-2.7098 -1.22995,-3.94111 0.12176,-1.23208 0.73704,-4.80052 0.73704,-7.75293 0,-2.95622 0,-8.86408 0,-8.86408 1.23139,0.86169 0.49291,20.55812 0.49291,20.55812 z m -6.39986,-9.35615 c -0.42271,1.09898 -2.58492,4.80585 -3.89981,7.02129 -0.6168,1.21078 -1.02643,1.7173 -1.02643,1.7173 0,0 0.42537,-0.70426 1.02643,-1.7173 0.46758,-0.91416 1.04748,-2.21544 1.68299,-4.06507 0.229,-0.66395 0.51451,-1.48305 0.84344,-2.39418 1.78749,-4.99674 4.69419,-12.74815 4.69419,-12.74815 0,0 -2.70645,10.58594 -3.32081,12.18611 z m 41.65995,23.49 c -3.85898,-7.95296 -7.20459,-15.93861 -11.13961,-23.45349 -0.80945,-1.54466 -1.69768,-2.89537 -2.58005,-4.33735 -0.95395,-1.56139 -1.24744,-3.23229 -1.99611,-4.92677 -0.29768,-0.67612 -0.82945,-1.33931 -1.05465,-1.87625 -0.27835,-0.66471 -0.34459,-1.51804 -0.58523,-2.11126 -0.38415,-0.95447 -1.37612,-1.96066 -1.90226,-2.9661 l 0.12389,0.29966 -21.32687,-0.32171 0.50713,-1.70817 0.10602,-1.29976 c -0.009,0.0791 -0.0168,0.17796 -0.0246,0.25022 -0.22367,2.18654 -1.2047,4.43774 -2.2261,6.33376 -1.01927,1.88766 -2.09057,3.74413 -3.04892,5.50934 -2.15833,3.98979 -3.89693,8.02901 -5.63011,11.61114 -3.93009,8.12027 -7.99547,15.45491 -10.67036,23.8041 2.54567,1.64733 5.76313,1.33779 8.44198,2.58203 1.47354,0.68296 2.49669,1.5477 3.75158,1.87701 1.37901,0.35669 2.3125,-0.06 3.40341,-0.11865 1.669,-0.0935 3.50502,0.613 5.39503,0.81758 1.97117,0.22208 4.01245,-0.10647 6.09504,0.23805 0.17553,0.48827 0.16785,1.16058 0.47024,1.52564 1.32059,-0.0472 2.6961,0.37038 3.98811,0.23425 0.54515,-0.0593 0.97683,-0.46013 1.52526,-0.5879 1.64877,-0.38939 3.26613,-0.18709 5.15797,-0.47077 0.41442,-0.0593 0.79705,-0.3354 1.17435,-0.34985 1.64679,-0.0646 3.42752,0.56432 5.04153,0.34985 1.38502,-0.18101 2.99136,-1.20774 4.10364,-1.40852 1.98904,-0.35289 3.4044,-0.41525 5.16049,-0.81758 2.7501,-0.63277 3.89471,-1.1294 6.68361,-2.2299 1.17351,-0.46088 3.01021,-1.00999 3.16612,-1.7576 0.15667,-0.76662 -1.47392,-3.37299 -2.11049,-4.691"
       style="fill:#14191e;fill-opacity:1;fill-rule:nonzero;stroke:none"
       id="path102"
       inkscape:connector-curvature="0" />
    <path
       d="m 306.70563,411.77559 c 3.14346,0.0593 6.66186,-0.25554 7.73498,1.87396 -0.89782,4.14418 -3.26735,6.81367 -5.15387,9.96762 -1.05319,-0.49359 -1.72992,-2.21393 -2.46551,-3.75097 -1.13663,-2.37441 -3.01691,-6.56954 -0.1156,-8.09061 z m 11.5849,24.25129 0.0234,-0.21371 c 0.22284,-1.73403 1.41324,-3.17677 1.87466,-4.80508 0.10815,-0.38103 0.0193,-0.86778 0.11582,-1.29064 0.43374,-1.82073 1.32829,-3.15547 0.70441,-5.39678 -1.75577,-0.54683 -1.91321,-2.15993 -2.4611,-3.86886 -0.63185,-1.9812 -1.84575,-3.92362 -2.34459,-5.74587 1.68597,0.88527 2.77514,2.72957 4.22046,4.10539 0.78602,0.74837 1.99961,1.80476 3.05044,2.11049 0.93433,0.27228 2.76403,-0.30345 2.92907,1.17047 -0.68669,0.68373 -1.53576,1.20013 -2.34352,1.76065 -0.13013,1.00163 -0.97144,2.6231 -0.47086,4.22023 0.28992,-1.46176 0.0859,-2.19948 0.58851,-3.16308 0.83096,-1.61158 3.91807,-1.58192 2.57952,-4.45828 -0.79073,-0.70426 -1.78035,-0.0296 -2.81567,-0.23272 -1.4127,-0.28293 -2.50475,-2.58127 -3.63667,-3.75326 -0.60424,-0.63049 -1.2596,-1.27923 -1.87404,-1.87701 -2.5424,-2.45958 -6.01092,-5.15721 -11.25741,-4.456 -1.56831,0.20915 -2.46757,1.26858 -3.28431,2.23066 -0.92155,1.07997 -1.87428,2.47327 -2.93165,3.28173 -1.73494,1.32562 -3.87457,0.83355 -6.45119,1.05562 -0.48485,0.86245 -1.00856,1.41461 -0.93638,2.34322 0.12625,1.63136 2.04243,2.61093 1.64345,3.87038 -0.22132,0.68221 -0.87667,1.01 -1.52549,0.93851 -1.32828,-0.1445 -1.33664,-2.42004 -2.69991,-2.46263 0.0371,1.0716 1.22903,2.67634 2.11399,3.04976 2.33189,0.98262 3.4168,-2.06562 2.3455,-4.10462 -0.36658,-0.69666 -1.22903,-1.01456 -1.17495,-1.75913 0.13514,-1.83442 3.24628,-0.76662 5.04511,-1.05563 0.67825,-0.11027 0.79795,-0.60919 1.40433,-0.35365 -0.42606,1.63744 -1.20469,3.27564 -2.46019,4.456 -0.68715,0.6457 -2.09262,1.11115 -2.34907,1.99413 -0.34194,1.20622 -0.085,3.07942 0,4.10539 0.10404,1.16819 0.49229,2.2626 0.82328,3.28553 0.34133,1.04345 1.11966,1.98804 1.292,2.93035 0.15773,0.8731 0.0859,2.21773 -0.0145,3.36006 l 0.13515,-1.22523 20.14241,-0.0464"
       style="fill:#14191e;fill-opacity:1;fill-rule:nonzero;stroke:none"
       id="path104"
       inkscape:connector-curvature="0" />
    <path
       style="fill:#d4953f;fill-opacity:1"
       d="m 28.296358,82.468269 c -0.646672,-0.08844 -0.835838,-0.255261 -0.967082,-0.852822 -0.15666,-0.713256 -0.220246,-0.743454 -1.595193,-0.757591 -2.935197,-0.03018 -5.220038,-0.2303 -7.169788,-0.627974 -1.453411,-0.29644 -2.57672,-0.361812 -4.074001,-0.237088 l -2.067286,0.172203 -2.245879,-1.184522 C 8.542593,78.118388 7.1690689,77.625072 5.1312437,77.168188 3.5912407,76.822917 1.8397651,76.324549 1.2390759,76.060702 -0.04745556,75.495605 -0.09837248,75.907765 1.8769435,70.897322 3.9107804,65.73844 14.003935,44.748029 17.845244,37.688558 c 1.398197,-2.569576 2.664698,-5.041293 2.814447,-5.492705 l 0.27227,-0.820749 7.264091,0 c 3.995252,0 8.82312,0.07477 10.728596,0.166155 l 3.464505,0.166155 0.771832,1.121819 c 0.424506,0.617 0.917963,1.67578 1.096568,2.352844 0.178608,0.677064 0.554291,1.603234 0.834856,2.058156 0.280562,0.454923 0.844609,1.744758 1.253433,2.866301 0.408826,1.121543 1.563663,3.425469 2.566305,5.119835 1.857181,3.138452 3.868447,7.196557 7.591309,15.31689 1.146215,2.500127 3.14866,6.751011 4.449883,9.446408 1.301223,2.695398 2.365858,5.107375 2.365858,5.359951 0,0.546083 -0.665134,0.911508 -4.107313,2.256549 -3.021048,1.180484 -5.533123,1.850822 -8.519593,2.273422 -1.180616,0.167061 -3.055712,0.639464 -4.166879,1.04978 -1.876253,0.692839 -2.179642,0.733927 -4.254968,0.576249 -2.216981,-0.168442 -6.436053,0.147175 -8.877015,0.664062 -1.470174,0.311319 -3.944305,0.456253 -5.097071,0.298589 z M 26.404365,46.452962 c -0.05953,-6.820698 -0.166415,-9.534174 -0.389997,-9.900826 -0.25044,-0.410693 -0.311486,0.297185 -0.326681,3.788072 -0.01028,2.361232 -0.125282,5.486391 -0.255564,6.944799 -0.591574,6.6222 -0.592002,6.334435 0.01179,7.929246 0.455523,1.203182 0.60993,1.407336 0.803195,1.061991 0.142921,-0.255386 0.206238,-4.210736 0.157253,-9.823282 z m 7.756221,0.04134 C 33.389772,41.303906 32.706904,36.886754 32.6431,36.67841 c -0.413254,-1.349459 0.454043,15.098272 0.879446,16.678099 0.282436,1.048882 1.803946,3.281601 1.945956,2.855568 0.05146,-0.154379 -0.537101,-4.527378 -1.307916,-9.717775 z M 15.54354,55.239958 c 0.158213,-0.34724 0.246345,-0.631345 0.195849,-0.631345 -0.05049,0 -0.277963,0.284105 -0.505483,0.631345 -0.227521,0.34724 -0.315653,0.631345 -0.19585,0.631345 0.119803,0 0.347271,-0.284105 0.505484,-0.631345 z m 2.440237,-4.276462 c 1.853137,-3.283027 1.96772,-3.586563 3.548415,-9.399908 2.430011,-8.936881 2.241945,-8.664974 -1.948549,2.81723 -1.520726,4.166879 -2.984704,8.073569 -3.253285,8.681533 -0.268581,0.607965 -0.48833,1.147765 -0.48833,1.199557 0,0.387096 0.469994,-0.336721 2.141749,-3.298412 z m 28.703267,2.193022 C 45.660282,51.130667 39.868229,39.024131 39.479691,38.091725 39.25376,37.549539 39.013352,37.161487 38.945449,37.229388 c -0.188456,0.188459 3.855795,12.210056 4.793065,14.247445 0.888922,1.932293 1.608512,2.626703 2.721952,2.626703 l 0.706557,0 -0.479979,-0.947018 z"
       id="path3360"
       inkscape:connector-curvature="0"
       transform="translate(276.33143,410.01996)" />
    <path
       style="fill:#d4953f;fill-opacity:1"
       d="m 21.902744,24.872247 c -1.09e-4,-0.52086 -0.326291,-1.636306 -0.724847,-2.47877 -1.024592,-2.165769 -1.547797,-4.485369 -1.547797,-6.862068 0,-1.983858 0.02405,-2.066521 0.7669,-2.635516 2.026192,-1.551993 2.548454,-2.12002 3.261884,-3.5477194 0.890077,-1.7812017 1.010439,-2.6339763 0.327499,-2.3203585 -0.243068,0.1116211 -1.578363,0.2658322 -2.967323,0.3426914 -1.38896,0.076859 -2.667434,0.2316826 -2.841054,0.3440517 -0.441799,0.285938 -0.393813,1.3104954 0.07979,1.703548 1.173444,0.9738718 1.483157,3.2441668 0.596365,4.3715408 -0.929423,1.181569 -2.434445,0.775847 -3.496492,-0.942581 C 14.769609,11.895565 14.718,11.67713 15.08125,11.67713 c 0.137153,0 0.539754,0.459997 0.894667,1.022216 0.354913,0.562219 0.811162,1.085865 1.013885,1.163657 0.649583,0.249269 1.63868,-0.160525 1.929841,-0.799554 0.244907,-0.537511 0.159718,-0.818999 -0.639933,-2.114537 -1.011051,-1.6380317 -1.108827,-2.2194447 -0.553755,-3.2928348 0.443138,-0.8569347 0.973526,-1.0217428 3.302733,-1.0262617 2.488619,-0.00483 3.573791,-0.6109032 5.851071,-3.2678581 2.504337,-2.92186679 2.958505,-3.17743548 5.627201,-3.16653169 4.518472,0.0184616 7.17572,1.74011869 13.423498,8.69721479 l 1.425346,1.5871685 1.119325,-0.167853 c 0.615627,-0.09232 1.29926,-0.0988 1.519186,-0.01441 0.464127,0.178103 0.783072,1.218717 0.574729,1.875153 -0.161971,0.510322 -2.907207,2.655833 -2.907207,2.272098 0,-0.135975 0.198874,-0.408695 0.441942,-0.606044 2.374891,-1.928198 2.337182,-1.871802 1.686593,-2.52239 -0.227761,-0.227763 -0.824895,-0.396846 -1.4015,-0.396846 -1.49814,0 -2.336061,-0.553665 -5.501867,-3.6354141 -1.584439,-1.5423694 -2.926303,-2.6709623 -2.98192,-2.507984 -0.05562,0.162978 0.403869,1.4698628 1.021083,2.9041885 0.617211,1.4343255 1.322711,3.2328966 1.567777,3.9968246 0.281726,0.878203 0.771239,1.698299 1.331194,2.230181 0.749419,0.711852 0.883131,1.005729 0.869446,1.910923 -0.0089,0.588336 -0.197217,1.67935 -0.418496,2.424476 -0.221277,0.745126 -0.402324,1.625701 -0.402324,1.956835 0,0.331133 -0.37957,1.423591 -0.84349,2.427684 -0.46392,1.004093 -0.920653,2.133067 -1.014963,2.50883 l -0.171474,0.683206 -9.970446,0 -9.970445,0 -1.99e-4,-0.947018 z M 35.484367,9.8400426 C 37.346713,6.772798 38.418743,4.003628 38.02711,3.2718563 37.567671,2.4133862 35.730713,1.8186316 33.030618,1.6541347 c -2.0718,-0.1262196 -2.625672,-0.081387 -3.137474,0.2539577 -0.830689,0.5442888 -1.268232,1.9554991 -1.069885,3.4507108 0.259524,1.9563894 2.398884,6.7986908 3.482416,7.8822238 l 0.539062,0.539062 0.526884,-0.664083 c 0.289786,-0.365246 1.240521,-1.83943 2.112746,-3.2759634 z"
       id="path3362"
       inkscape:connector-curvature="0"
       transform="translate(276.33143,410.01996)" />
    <path
       style="fill:#d4953f;fill-opacity:1"
       d="m 233.3079,481.88957 c -2.1336,-0.24819 -4.62837,-0.86268 -5.65253,-1.3923 -0.62095,-0.32111 -0.71143,-0.4958 -0.62779,-1.21217 0.0868,-0.74334 0.0213,-0.85229 -0.58532,-0.9736 -0.47648,-0.0953 -0.88815,-0.48664 -1.36135,-1.29411 -1.01276,-1.72814 -0.87026,-3.3152 1.42809,-15.90463 0.73104,-4.00434 0.7276,-7.56193 -0.0136,-14.03553 -0.30777,-2.68806 -0.63587,-5.26314 -0.72911,-5.7224 l -0.16953,-0.83501 -0.92828,0.73771 c -1.60286,1.27379 -3.96336,4.34398 -6.03077,7.84392 l -1.12168,1.8989 1.81591,4.99355 c 2.12833,5.85275 2.94045,7.83875 3.83546,9.37965 0.47695,0.82114 0.66583,1.52069 0.69455,2.57246 l 0.0394,1.44462 -1.45523,0.884 c -1.11661,0.6783 -1.56031,0.82755 -1.90684,0.64142 -0.24839,-0.13343 -0.62663,-0.29509 -0.84053,-0.35926 -0.48601,-0.14581 -5.14316,-7.10938 -7.46465,-11.16146 -1.8719,-3.26733 -2.94866,-5.71214 -3.19542,-7.25532 -0.17899,-1.11934 0.37479,-3.53828 1.17331,-5.12508 0.50167,-0.9969 5.71832,-9.87064 8.16939,-13.89647 1.55859,-2.55995 3.61992,-5.1217 4.75313,-5.90702 0.83587,-0.57924 9.35926,-3.58901 12.56271,-4.43611 0.59002,-0.15602 1.01421,-0.37842 0.94264,-0.49421 -0.0716,-0.11579 0.0173,-0.33291 0.19751,-0.48245 0.25752,-0.21373 0.39524,-0.008 0.64357,0.96075 0.17375,0.67797 0.77655,1.88722 1.33955,2.6872 1.45195,2.06315 1.77328,3.72585 1.32251,6.84317 -0.76956,5.3219 -1.88434,18.72282 -1.88434,22.65184 l 0,1.58666 1.98066,2.28517 1.98067,2.28518 1.09929,-1.30877 c 0.60461,-0.71983 1.47475,-1.7929 1.93365,-2.38461 l 0.83438,-1.07583 -0.28393,-6.44319 c -0.31052,-7.04717 -0.79904,-12.62976 -1.50445,-17.19223 -0.58645,-3.79307 -0.3597,-5.12127 1.24723,-7.30553 0.60981,-0.82892 1.32326,-1.98372 1.58543,-2.56622 0.47459,-1.05448 0.90182,-1.3853 0.90182,-0.69833 0,0.23677 0.75384,0.58501 2.19305,1.0131 1.20617,0.35877 4.1104,1.29264 6.45383,2.07528 l 4.26079,1.42298 1.87976,1.8969 c 1.21337,1.22446 2.43882,2.82646 3.45679,4.51904 5.10523,8.48851 7.23374,12.11699 8.15429,13.90069 0.98536,1.90927 1.03507,2.11294 1.04038,4.26275 0.005,2.18895 -0.031,2.33354 -1.19828,4.74935 -2.24419,4.64486 -8.68883,14.67285 -9.42972,14.67285 -0.23067,0 -0.5512,0.1318 -0.71228,0.29288 -0.22343,0.22343 -0.63252,0.0821 -1.72494,-0.59609 -1.41441,-0.87803 -1.43301,-0.90492 -1.50915,-2.18324 -0.065,-1.09022 0.0754,-1.59885 0.89013,-3.22608 0.97918,-1.95573 3.05125,-7.21855 4.56371,-11.59131 l 0.82704,-2.3911 -1.3218,-2.18829 c -1.86075,-3.08058 -3.98463,-5.8776 -5.42671,-7.14665 -1.09203,-0.96099 -1.25294,-1.03218 -1.41661,-0.62659 -0.28799,0.71359 -1.23298,9.64549 -1.37427,12.98928 -0.11545,2.73227 -0.0325,3.54683 0.90589,8.89752 1.36525,7.78448 1.87512,11.76317 1.65667,12.92758 -0.19303,1.0289 -1.55955,2.61177 -2.2548,2.61177 -0.33381,0 -0.3817,0.16351 -0.25138,0.85819 0.14383,0.76666 0.0837,0.89819 -0.56368,1.23296 -1.05426,0.54517 -3.38738,1.09221 -5.96579,1.39876 -2.60871,0.31015 -15.17456,0.3053 -17.85848,-0.007 l 0,0 z"
       id="path3637"
       inkscape:connector-curvature="0" />
  </g>
</svg>
