<?xml version="1.0" encoding="UTF-8" standalone="no"?>
<!-- Generator: Adobe Illustrator 18.1.1, SVG Export Plug-In . SVG Version: 6.00 Build 0)  -->

<svg
   xmlns:dc="http://purl.org/dc/elements/1.1/"
   xmlns:cc="http://creativecommons.org/ns#"
   xmlns:rdf="http://www.w3.org/1999/02/22-rdf-syntax-ns#"
   xmlns:svg="http://www.w3.org/2000/svg"
   xmlns="http://www.w3.org/2000/svg"
   xmlns:sodipodi="http://sodipodi.sourceforge.net/DTD/sodipodi-0.dtd"
   xmlns:inkscape="http://www.inkscape.org/namespaces/inkscape"
   version="1.1"
   id="Capa_1"
   x="0px"
   y="0px"
   viewBox="0 0 63.864407 63.864407"
   xml:space="preserve"
   inkscape:version="0.91 r13725"
   sodipodi:docname="transport-orange.svg"
   width="63.864407"
   height="63.864407"><metadata
     id="metadata42"><rdf:RDF><cc:Work
         rdf:about=""><dc:format>image/svg+xml</dc:format><dc:type
           rdf:resource="http://purl.org/dc/dcmitype/StillImage" /><dc:title></dc:title></cc:Work></rdf:RDF></metadata><defs
     id="defs40" /><sodipodi:namedview
     pagecolor="#ffffff"
     bordercolor="#666666"
     borderopacity="1"
     objecttolerance="10"
     gridtolerance="10"
     guidetolerance="10"
     inkscape:pageopacity="0"
     inkscape:pageshadow="2"
     inkscape:window-width="959"
     inkscape:window-height="1029"
     id="namedview38"
     showgrid="false"
     fit-margin-top="0"
     fit-margin-left="0"
     fit-margin-right="0"
     fit-margin-bottom="0"
     inkscape:zoom="5.2149125"
     inkscape:cx="17.180233"
     inkscape:cy="62.129531"
     inkscape:window-x="0"
     inkscape:window-y="0"
     inkscape:window-maximized="0"
     inkscape:current-layer="Capa_1" /><g
     id="g3"
     transform="scale(1.9957627,1.9957627)"><g
       id="steering_x5F_wheel"><path
         style="fill:#030104"
         d="M 16,0 C 7.164,0 0,7.164 0,16 0,24.836 7.164,32 16,32 24.836,32 32,24.836 32,16 32,7.164 24.836,0 16,0 Z m 0,4 c 5.207,0 9.605,3.354 11.266,8 L 4.734,12 C 6.395,7.354 10.793,4 16,4 Z m 0,14 c -1.105,0 -2,-0.895 -2,-2 0,-1.105 0.895,-2 2,-2 1.105,0 2,0.895 2,2 0,1.105 -0.895,2 -2,2 z M 4,16 c 5.465,0 9.891,5.266 9.984,11.797 C 8.328,26.828 4,21.926 4,16 Z M 18.016,27.797 C 18.109,21.266 22.535,16 28,16 c 0,5.926 -4.328,10.828 -9.984,11.797 z"
         id="path6"
         inkscape:connector-curvature="0" /></g></g><g
     id="g8" /><g
     id="g10" /><g
     id="g12" /><g
     id="g14" /><g
     id="g16" /><g
     id="g18" /><g
     id="g20" /><g
     id="g22" /><g
     id="g24" /><g
     id="g26" /><g
     id="g28" /><g
     id="g30" /><g
     id="g32" /><g
     id="g34" /><g
     id="g36" /><path
     style="fill:#d4953f;fill-opacity:1"
     d="M 29.644488,63.648469 C 16.99962,62.845144 5.778906,54.134969 1.7614289,42.004008 0.747294,38.94178 0.30719845,36.518767 0.17669685,33.279029 -0.19016851,24.171494 3.0736798,15.828173 9.5159749,9.4051867 16.063538,2.8772485 24.948927,-0.43005384 34.210378,0.21348302 47.77441,1.1559868 59.30338,10.741233 62.728433,23.923545 c 3.771515,14.515776 -3.071488,29.618576 -16.492409,36.399447 -3.750226,1.894789 -7.852302,3.059114 -11.509756,3.266908 -0.94931,0.05393 -1.984892,0.120696 -2.301293,0.148363 -0.3164,0.02767 -1.567619,-0.01273 -2.780487,-0.08979 z M 27.556637,51.052025 C 25.768143,40.521713 18.381206,32.730855 9.4149594,31.918354 l -1.4390997,-0.130406 0,1.247756 c 0,0.686267 0.1306148,2.014107 0.2902553,2.950755 1.2326197,7.232083 5.668459,13.359611 12.365758,17.081665 1.473129,0.818699 3.416638,1.557559 5.454252,2.073533 l 1.736664,0.439764 0.05739,-1.143287 c 0.03156,-0.628808 -0.11403,-2.152556 -0.323539,-3.386109 z M 39.80765,54.54054 c 7.075288,-2.466356 12.560285,-8.036545 14.956517,-15.18882 0.636814,-1.900761 1.149226,-4.767004 1.150365,-6.434716 l 7.67e-4,-1.129056 -1.4391,0.130406 c -9.077533,0.822586 -16.520578,8.745714 -18.211265,19.385906 -0.223978,1.409592 -0.382823,3.550755 -0.308149,4.153724 0.02242,0.181062 2.161557,-0.328573 3.850861,-0.917444 l 4e-6,0 z M 33.815833,35.506489 c 2.553218,-1.309301 2.928057,-4.86247 0.706171,-6.693937 -2.635273,-2.172215 -6.613204,-0.322476 -6.599125,3.068594 0.01296,3.12382 3.130691,5.041843 5.892954,3.625343 z M 53.882806,22.396776 C 48.404925,9.5705094 32.922761,4.1468153 20.66111,10.758589 15.783662,13.388625 11.675154,17.974071 9.7179869,22.972049 l -0.3942266,1.006728 22.6173447,0 22.617346,0 -0.675645,-1.582001 z"
     id="path3407"
     inkscape:connector-curvature="0" /></svg>