<?xml version="1.0" encoding="UTF-8" standalone="no"?>
<!-- Created with Inkscape (http://www.inkscape.org/) -->

<svg
   xmlns:dc="http://purl.org/dc/elements/1.1/"
   xmlns:cc="http://creativecommons.org/ns#"
   xmlns:rdf="http://www.w3.org/1999/02/22-rdf-syntax-ns#"
   xmlns:svg="http://www.w3.org/2000/svg"
   xmlns="http://www.w3.org/2000/svg"
   xmlns:sodipodi="http://sodipodi.sourceforge.net/DTD/sodipodi-0.dtd"
   xmlns:inkscape="http://www.inkscape.org/namespaces/inkscape"
   width="42.779846mm"
   height="22.54648mm"
   viewBox="0 0 151.58213 79.889103"
   id="svg3654"
   version="1.1"
   inkscape:version="0.91 r13725"
   sodipodi:docname="clear-view-escapes.svg">
  <defs
     id="defs3656" />
  <sodipodi:namedview
     id="base"
     pagecolor="#ffffff"
     bordercolor="#666666"
     borderopacity="1.0"
     inkscape:pageopacity="0.0"
     inkscape:pageshadow="2"
     inkscape:zoom="2.8"
     inkscape:cx="263.91473"
     inkscape:cy="-19.810039"
     inkscape:document-units="px"
     inkscape:current-layer="layer1"
     showgrid="false"
     fit-margin-top="0"
     fit-margin-left="0"
     fit-margin-right="0"
     fit-margin-bottom="0"
     inkscape:window-width="1920"
     inkscape:window-height="1029"
     inkscape:window-x="0"
     inkscape:window-y="0"
     inkscape:window-maximized="1" />
  <metadata
     id="metadata3659">
    <rdf:RDF>
      <cc:Work
         rdf:about="">
        <dc:format>image/svg+xml</dc:format>
        <dc:type
           rdf:resource="http://purl.org/dc/dcmitype/StillImage" />
        <dc:title></dc:title>
      </cc:Work>
    </rdf:RDF>
  </metadata>
  <g
     inkscape:label="Layer 1"
     inkscape:groupmode="layer"
     id="layer1"
     transform="translate(1427.2196,473.29663)">
    <g
       style="font-style:normal;font-weight:normal;font-size:45.94298935px;line-height:125%;font-family:sans-serif;letter-spacing:0px;word-spacing:0px;fill:#ececec;fill-opacity:1;stroke:none;stroke-width:1px;stroke-linecap:butt;stroke-linejoin:miter;stroke-opacity:1"
       id="text3572"
       transform="translate(-1423.1517,-452.19664)">
      <path
         d="m 36.861954,3.0380221 q -0.605694,0.2691972 -1.435719,0.5159613 -0.830024,0.2467641 -1.749782,0.448662 -0.919757,0.1794648 -1.88438,0.2916303 -0.964623,0.1121655 -1.839514,0.1121655 -1.682483,0 -3.207933,-0.3140634 Q 25.241608,3.7558813 24.09752,3.0380221 22.975865,2.2977298 22.302872,1.1536417 q -0.65056,-1.14408811 -0.65056,-2.7817044 0,-1.8619473 0.807591,-3.6341623 0.807592,-1.7722149 2.198444,-3.3200988 1.390852,-1.5478842 3.2528,-2.8265702 1.88438,-1.30112 3.993092,-2.220877 2.131144,-0.942191 4.396887,-1.458152 2.288176,-0.515961 4.48662,-0.515961 2.220877,0 4.150124,0.471095 1.95168,0.448662 3.387398,1.503018 1.458151,1.031922 2.288176,2.691972 0.852458,1.6600491 0.852458,4.0379577 0,2.0638452 -0.785159,4.1949898 -0.785158,2.13114449 -2.153577,4.2174228 -1.368419,2.0862783 -3.230367,4.0828243 -1.839514,1.9965459 -3.993091,3.813627 -2.153578,1.7946484 -4.509054,3.3425324 -2.333042,1.52545 -4.666084,2.691972 1.906813,0.830024 3.791194,1.458151 1.88438,0.628127 3.813627,0.628127 1.368419,0 2.714405,-0.35893 l 0.314063,1.121655 q -1.547884,0.426229 -3.073335,0.426229 -1.23382,0 -2.422774,-0.224331 -1.166522,-0.224331 -2.288177,-0.58326 -1.121655,-0.35893 -2.220877,-0.807592 -1.076788,-0.471095 -2.131144,-0.94219 -2.377909,1.076789 -4.576353,1.637616 -2.17601,0.583261 -4.015525,0.583261 -0.87489,0 -1.637616,-0.157032 -0.740292,-0.157032 -1.323553,-0.493528 -0.560827,-0.336497 -0.897324,-0.852458 -0.314063,-0.538394 -0.314063,-1.256254 0,-0.448662 0.224331,-0.964623 0.246764,-0.538394 0.807591,-0.987056 0.560828,-0.448662 1.480585,-0.740293 0.919757,-0.314063 2.288176,-0.314063 0.964624,0 1.929247,0.179465 0.964623,0.157031 1.906813,0.426229 0.942191,0.269197 1.861948,0.628126 0.919757,0.35893 1.839514,0.740293 2.176011,-1.121655 4.419321,-2.647106 2.265743,-1.525451 4.374454,-3.3200989 2.131145,-1.794648 3.993092,-3.7911939 1.884381,-2.0189791 3.275233,-4.1052574 1.390852,-2.0862783 2.198444,-4.1949897 0.807591,-2.1311446 0.807591,-4.1501236 0,-1.9516797 -0.695426,-3.2527995 -0.695426,-1.30112 -1.88438,-2.086278 -1.188955,-0.785159 -2.781705,-1.121655 -1.570317,-0.336497 -3.342532,-0.336497 -1.974113,0 -3.948225,0.538395 -1.974113,0.538394 -3.791194,1.458151 -1.817081,0.919757 -3.387398,2.153578 -1.570317,1.2338202 -2.736839,2.6471055 -1.144088,1.4132853 -1.817081,2.916303 -0.65056,1.5030178 -0.65056,2.9387362 0,1.36841909 0.515962,2.3106093 0.538394,0.9421902 1.390852,1.5254508 0.874891,0.5832606 1.929246,0.8524578 1.076789,0.2467641 2.153578,0.2467641 1.233821,0 2.176011,-0.089732 0.964623,-0.1121655 1.704915,-0.2691972 0.740293,-0.1570317 1.323553,-0.3589296 0.583261,-0.2018979 1.099222,-0.3813627 l 0.336497,0.9646233 z M 21.943942,17.215741 q 1.368419,0 3.095768,-0.493528 1.727349,-0.493528 3.701461,-1.413285 -1.547883,-0.65056 -3.028468,-1.099222 -1.480585,-0.471095 -2.983602,-0.471095 -0.987057,0 -1.66005,0.179465 -0.672993,0.179465 -1.099222,0.471095 -0.426229,0.269197 -0.605693,0.605694 -0.179465,0.336496 -0.179465,0.628126 0,0.65056 0.672993,1.121655 0.672993,0.471095 2.086278,0.471095 z"
         style="font-style:normal;font-variant:normal;font-weight:normal;font-stretch:normal;font-family:Parisienne;-inkscape-font-specification:Parisienne;fill:#ececec"
         id="path3602"
         inkscape:connector-curvature="0" />
      <path
         d="m 77.914528,-13.046511 q -0.426229,-0.112165 -1.188954,-0.29163 -0.762725,-0.179465 -2.108711,-0.179465 -1.749782,0 -3.836061,0.785159 -2.063845,0.785158 -4.172556,2.220877 -2.108712,1.435718 -4.082824,3.454697 -1.974113,1.9965459 -3.499564,4.4417539 -1.525451,2.42277479 -2.445208,5.2269123 -0.919757,2.7817045 -0.919757,5.7653068 0,2.086278 0.560827,3.701462 0.583261,1.615183 1.59275,2.714405 1.031923,1.099222 2.445208,1.660049 1.435719,0.560828 3.140634,0.560828 1.704916,0 3.387399,-0.560828 1.704915,-0.560827 3.320098,-1.547884 1.637617,-1.009489 3.140634,-2.377908 1.503018,-1.36842 2.826571,-2.9611697 1.323553,-1.6151832 2.400342,-3.3873981 1.099222,-1.7946481 1.861947,-3.5892961 0.785159,-1.8170811 1.211388,-3.58929602 0.426228,-1.79464798 0.426228,-3.43226438 0,-1.7273487 -0.426228,-2.916303 -0.426229,-1.2113874 -1.166522,-1.9741128 -0.717859,-0.7627259 -1.660049,-1.0992219 -0.919757,-0.336497 -1.929247,-0.336497 -1.749782,0 -3.47713,1.0319231 -1.704916,1.0094895 -3.2528,3.0284685 L 69.09832,-7.4382357 q 1.727349,-2.2208769 3.656595,-3.3649653 1.95168,-1.144088 3.993092,-1.144088 1.368419,0 2.53494,0.515961 1.188955,0.493529 2.041413,1.4805851 0.852457,0.9646233 1.323552,2.3779086 0.493529,1.4132853 0.493529,3.2527995 0,1.8170812 -0.471095,3.76876089 -0.448662,1.92924661 -1.278687,3.85849321 -0.830025,1.9292467 -2.018979,3.791194 -1.166521,1.8619473 -2.579807,3.5219967 -1.413285,1.660049 -3.050901,3.073335 -1.615184,1.390852 -3.364965,2.422775 -1.749782,1.009489 -3.589296,1.59275 -1.817082,0.560827 -3.634163,0.560827 -2.400341,0 -4.284722,-0.852458 -1.861947,-0.852457 -3.163067,-2.288176 -1.278687,-1.458151 -1.95168,-3.342532 -0.672993,-1.9068133 -0.672993,-4.0155247 0,-2.8714368 0.785159,-5.6531413 0.785158,-2.78170442 2.198444,-5.2717785 1.435718,-2.4900742 3.409831,-4.5987856 1.974113,-2.1087114 4.352021,-3.6341619 2.377909,-1.547884 5.069881,-2.400342 2.714405,-0.874891 5.608275,-0.874891 0.964623,0 2.018979,0.224331 1.076789,0.201898 1.794648,0.493528 l -0.403796,0.897324 z"
         style="font-style:normal;font-variant:normal;font-weight:normal;font-stretch:normal;font-family:Parisienne;-inkscape-font-specification:Parisienne;fill:#ececec"
         id="path3604"
         inkscape:connector-curvature="0" />
      <path
         d="M 103.6453,-13.40544 88.009427,18.0009 85.42962,16.834379 q 1.772215,-3.342532 3.230367,-6.124237 1.480584,-2.781704 2.714405,-5.1147464 1.23382,-2.3554756 2.265743,-4.3295884 1.054356,-1.97411282 1.996546,-3.7014615 0.94219,-1.7273488 1.794648,-3.2527996 0.874891,-1.5254508 1.749782,-2.9836023 -1.525451,1.4132853 -3.095768,2.6695389 -1.547884,1.2562536 -3.006036,2.3330424 -1.458151,1.0543558 -2.759271,1.9068136 -1.278687,0.85245778 -2.24331,1.45815149 -0.94219,0.58326061 -1.503018,0.91975711 -0.560827,0.3140634 -0.58326,0.3140634 L 85.42962,-0.10261191 q 0.02243,-0.0224331 0.874891,-0.4935282 0.852458,-0.49352819 2.220877,-1.39085219 1.390852,-0.897324 3.1855,-2.1535777 1.794648,-1.2562536 3.701462,-2.8041375 1.906813,-1.5478839 3.768761,-3.3425315 1.884379,-1.794648 3.477129,-3.746328 l 0.98706,0.628127 z"
         style="font-style:normal;font-variant:normal;font-weight:normal;font-stretch:normal;font-family:Parisienne;-inkscape-font-specification:Parisienne;fill:#ececec"
         id="path3606"
         inkscape:connector-curvature="0" />
      <path
         d="m 126.63922,0.09928599 q 2.33305,-1.07678881 3.97066,-2.44520789 1.66005,-1.3684192 2.69197,-2.9611693 1.05436,-1.6151832 1.52546,-3.3873981 0.49352,-1.7946477 0.49352,-3.7014617 0,-1.817081 -0.58326,-3.207933 -0.56082,-1.413286 -1.61518,-2.355476 -1.03192,-0.964623 -2.49007,-1.458151 -1.43572,-0.493528 -3.1855,-0.493528 -3.29767,0 -5.65315,1.503017 -2.33304,1.480585 -3.81362,4.19499 -1.48059,2.691972 -2.13115,6.483166 -0.65056,3.7687608 -0.56083,8.3451133 2.62468,-1.14408811 5.04745,-2.3330424 2.42278,-1.1889543 4.41932,-2.6022397 2.01898,-1.4357184 3.49957,-3.1855002 1.50301,-1.7497818 2.26574,-4.015525 l 1.03192,0.269197 q -0.83002,2.8041378 -2.42277,4.9577154 -1.59275,2.1311445 -3.7239,3.8584933 -2.13114,1.70491558 -4.73338,3.1182009 -2.57981,1.4132853 -5.42881,2.7817044 -0.2019,4.4866201 -1.18896,8.210515 -0.98705,3.701461 -2.5798,6.348567 -1.57032,2.669539 -3.6566,4.127691 -2.08628,1.480584 -4.46418,1.480584 -1.36842,0 -2.49008,-0.471095 -1.099221,-0.448662 -1.861946,-1.278687 -0.785158,-0.807591 -1.211387,-1.951679 -0.426229,-1.121655 -0.426229,-2.490074 0,-2.89387 1.323553,-5.249346 1.301119,-2.3554755 3.566859,-4.3295883 2.28818,-1.9741128 5.31665,-3.6117292 3.0509,-1.6376163 6.5056,-3.1182009 -0.0673,-5.5634089 0.78516,-9.7359655 0.87489,-4.1725571 2.60224,-6.9318281 1.72734,-2.781704 4.26228,-4.172557 2.53494,-1.390852 5.78774,-1.390852 2.06385,0 3.90336,0.65056 1.83952,0.65056 3.20794,1.817081 1.39085,1.166521 2.17601,2.804138 0.80759,1.637616 0.80759,3.589296 0,2.3330423 -0.87489,4.3968875 -0.87489,2.0638452 -2.35548,3.7687608 -1.48058,1.7049157 -3.40983,3.0060355 -1.92924,1.3011198 -4.03796,2.0638452 L 126.63922,0.09928599 Z M 103.3761,22.442654 q 2.17601,0 4.01552,-1.390852 1.86195,-1.390853 3.2528,-3.836061 1.39086,-2.467641 2.24331,-5.832606 0.87489,-3.3649646 1.12166,-7.3131903 -3.40983,1.6151833 -5.81017,3.1406341 -2.37791,1.5030177 -3.9931,2.8938702 -1.59275,1.390852 -2.53494,2.624672 -0.91975,1.233821 -1.39085,2.31061 -0.448661,1.076789 -0.560827,1.951679 -0.134598,0.874891 -0.134598,1.525451 0,0.628127 0.201898,1.30112 0.179464,0.695426 0.605697,1.278687 0.44866,0.58326 1.16652,0.964623 0.74029,0.381363 1.81708,0.381363 z"
         style="font-style:normal;font-variant:normal;font-weight:normal;font-stretch:normal;font-family:Parisienne;-inkscape-font-specification:Parisienne;fill:#ececec"
         id="path3608"
         inkscape:connector-curvature="0" />
    </g>
    <g
       style="font-style:normal;font-weight:normal;font-size:40px;line-height:125%;font-family:sans-serif;letter-spacing:0px;word-spacing:0px;fill:#000000;fill-opacity:1;stroke:none;stroke-width:1px;stroke-linecap:butt;stroke-linejoin:miter;stroke-opacity:1"
       id="text3580"
       transform="translate(-1423.1517,-452.19664)">
      <path
         d="m 23.275823,32.226612 q 0.03906,-0.05859 0.15625,-0.644531 0.136719,-0.585938 0.136719,-1.425781 0,-1.171875 -0.410156,-2.128907 -0.390625,-0.976562 -1.113282,-1.660156 -0.722656,-0.703125 -1.71875,-1.074219 -0.996093,-0.390625 -2.167968,-0.390625 -1.601563,0 -3.339844,0.585938 -1.71875,0.566406 -3.457031,1.601562 -1.7187504,1.035157 -3.3984379,2.480469 -1.6796875,1.445313 -3.203125,3.183594 -1.5039062,1.738281 -2.7929687,3.730469 -1.26953128,1.972656 -2.20703128,4.082031 -0.91796872,2.089844 -1.44531252,4.257812 -0.5273437,2.167969 -0.5273437,4.296875 0,1.933594 0.3710937,3.496094 0.390625,1.542969 1.17187502,2.636719 0.78125,1.113281 1.99218748,1.699219 1.2109375,0.585937 2.890625,0.585937 2.0117188,0 3.90625,-0.839844 1.9140629,-0.820312 3.5742189,-2.207031 1.660156,-1.367187 3.027344,-3.125 1.386718,-1.777344 2.382812,-3.652344 0.996094,-1.894531 1.542969,-3.75 0.546875,-1.855468 0.546875,-3.398437 0,-1.425781 -0.449219,-2.578125 -0.429687,-1.171875 -1.25,-1.972656 -0.820312,-0.820313 -1.992187,-1.25 -1.171875,-0.449219 -2.636719,-0.449219 -1.582031,0 -3.2812501,0.507812 -1.6796875,0.507813 -3.3203125,1.582032 -1.640625,1.074218 -3.125,2.753906 -1.484375,1.679687 -2.63671878,4.023437 l -0.91796875,-0.449218 q 1.23046875,-2.5 2.83203123,-4.277344 1.6210938,-1.796875 3.3984375,-2.949219 1.796875,-1.152344 3.6523438,-1.679687 1.8554686,-0.546875 3.5546876,-0.546875 1.757812,0 3.222656,0.585937 1.484375,0.585938 2.539063,1.699219 1.074218,1.09375 1.660156,2.714844 0.605469,1.601562 0.605469,3.652343 0,1.71875 -0.585938,3.632813 -0.566406,1.914062 -1.601562,3.789062 -1.035157,1.875 -2.5,3.59375 -1.464844,1.699219 -3.261719,2.988282 -1.777344,1.308593 -3.8281251,2.070312 -2.0507813,0.78125 -4.2773438,0.78125 -2.03125,0 -3.7109375,-0.683594 -1.66015623,-0.683593 -2.8515625,-2.011718 -1.1914062,-1.328125 -1.8554687,-3.300782 -0.6445313,-1.992187 -0.6445313,-4.589843 0,-3.007813 0.8789063,-5.976563 0.8984375,-2.988281 2.42187497,-5.703125 1.54296875,-2.714844 3.59375003,-5.058594 2.0703125,-2.34375 4.4335937,-4.0625 2.3632813,-1.71875 4.9023439,-2.695312 2.558594,-0.976563 5.058594,-0.976563 1.953125,0 3.339843,0.546875 1.40625,0.546875 2.285157,1.445313 0.898437,0.898437 1.308593,2.070312 0.410157,1.171875 0.410157,2.421875 0,0.566407 -0.07813,1.152344 -0.07813,0.585938 -0.234375,1.171875 l -0.976563,-0.3125 z"
         style="font-style:normal;font-variant:normal;font-weight:normal;font-stretch:normal;font-family:Parisienne;-inkscape-font-specification:Parisienne;fill:#ececec"
         id="path3585"
         inkscape:connector-curvature="0" />
      <path
         d="m 61.185979,28.418018 q -0.01953,-0.03906 -0.273437,-0.429687 -0.253906,-0.390625 -0.859375,-0.839844 -0.605469,-0.449219 -1.621094,-0.800781 -1.015625,-0.371094 -2.539062,-0.371094 -2.421875,0 -4.785157,0.957031 -2.34375,0.9375 -4.472656,2.578125 -2.128906,1.640625 -3.945312,3.847657 -1.796875,2.1875 -3.125,4.6875 -1.328125,2.480468 -2.070313,5.136718 -0.742187,2.636719 -0.742187,5.175782 0,1.777343 0.546875,3.28125 0.566406,1.503906 1.601562,2.578125 1.054688,1.09375 2.558594,1.699218 1.503906,0.625 3.417969,0.625 1.679687,0 3.339843,-0.488281 1.679688,-0.488281 3.261719,-1.367187 1.582031,-0.878907 3.027344,-2.089844 1.464844,-1.230469 2.734375,-2.65625 1.269531,-1.445313 2.304687,-3.046875 1.035157,-1.621094 1.777344,-3.300781 0.742188,-1.679688 1.132813,-3.378907 0.410156,-1.699218 0.410156,-3.300781 0,-1.679687 -0.449219,-2.96875 -0.449219,-1.289062 -1.25,-2.148437 -0.800781,-0.878907 -1.914062,-1.308594 -1.09375,-0.449219 -2.402344,-0.449219 -1.269531,0 -2.539063,0.46875 -1.269531,0.449219 -2.441406,1.289063 -1.152344,0.820312 -2.167969,1.953125 -0.996093,1.132812 -1.738281,2.480468 -0.742187,1.328125 -1.171875,2.851563 -0.410156,1.503906 -0.410156,3.066406 0,1.191406 0.292969,2.207031 0.292968,0.996094 0.78125,1.777344 0.488281,0.78125 1.113281,1.308594 0.644531,0.507812 1.328125,0.703125 l -0.175781,0.820312 q -0.976563,-0.136718 -1.992188,-0.644531 -0.996094,-0.507812 -1.816406,-1.386719 -0.800781,-0.898437 -1.328125,-2.1875 -0.507813,-1.308593 -0.507813,-3.007812 0,-1.601563 0.46875,-3.164063 0.46875,-1.582031 1.308594,-2.988281 0.859375,-1.425781 2.03125,-2.617187 1.171875,-1.210938 2.578125,-2.070313 1.425781,-0.878906 3.027344,-1.367187 1.621094,-0.507813 3.320312,-0.507813 1.621094,0 2.929688,0.566406 1.308594,0.546875 2.226562,1.582032 0.917969,1.015625 1.40625,2.480468 0.507813,1.464844 0.507813,3.28125 0,1.71875 -0.429688,3.535157 -0.410156,1.796875 -1.191406,3.574218 -0.761719,1.757813 -1.855469,3.457032 -1.09375,1.679687 -2.421875,3.183593 -1.328125,1.503907 -2.871093,2.753907 -1.523438,1.269531 -3.203125,2.1875 -1.679688,0.917968 -3.457032,1.425781 -1.777343,0.507812 -3.574218,0.507812 -2.089844,0 -3.945313,-0.703125 -1.855469,-0.683593 -3.242187,-2.03125 -1.367188,-1.347656 -2.167969,-3.300781 -0.800781,-1.972656 -0.800781,-4.511719 0,-2.832031 0.722656,-5.566406 0.742187,-2.734375 2.070312,-5.175781 1.347657,-2.460938 3.222657,-4.53125 1.875,-2.070313 4.160156,-3.574219 2.285156,-1.503906 4.921875,-2.34375 2.636719,-0.859375 5.488281,-0.859375 1.328125,0 2.34375,0.214844 1.015625,0.214844 1.757813,0.546875 0.761718,0.3125 1.269531,0.703125 0.507812,0.371094 0.820312,0.722656 0.3125,0.332031 0.449219,0.566406 0.136719,0.234375 0.15625,0.273438 l -0.917969,0.429687 z"
         style="font-style:normal;font-variant:normal;font-weight:normal;font-stretch:normal;font-family:Parisienne;-inkscape-font-specification:Parisienne;fill:#ececec"
         id="path3587"
         inkscape:connector-curvature="0" />
      <path
         d="m 66.986761,46.152393 q 1.015625,-1.40625 2.148437,-2.695312 1.152344,-1.308594 2.324219,-2.304688 1.171875,-1.015625 2.363281,-1.621093 1.191406,-0.605469 2.324219,-0.605469 0.703125,0 1.152344,0.214844 0.449218,0.214843 0.703125,0.546875 0.273437,0.332031 0.371093,0.761718 0.117188,0.410157 0.117188,0.820313 0,0.585937 -0.234375,1.269531 -0.214844,0.683594 -0.683594,1.386719 -0.449219,0.683594 -1.152344,1.328125 -0.703125,0.625 -1.679687,1.132812 0.214844,0.507813 0.214844,1.230469 0,0.449219 -0.117188,0.917969 -0.117187,0.449219 -0.253906,0.898437 -0.136719,0.449219 -0.253906,0.917969 -0.117188,0.449219 -0.117188,0.917969 0,0.234375 0.01953,0.449219 0.03906,0.214843 0.117188,0.390625 0.09766,0.175781 0.273437,0.292968 0.195313,0.09766 0.527344,0.09766 0.390625,0 0.898438,-0.3125 0.507812,-0.332032 1.074218,-0.859375 0.566407,-0.527344 1.152344,-1.210938 0.605469,-0.703125 1.171875,-1.464844 0.566406,-0.761718 1.09375,-1.503906 0.527344,-0.761719 0.957031,-1.425781 l 0.722657,0.546875 q -0.996094,1.484375 -1.953125,2.832031 -0.9375,1.347656 -1.894532,2.363281 -0.9375,1.015625 -1.914062,1.621094 -0.976563,0.605469 -2.011719,0.605469 -0.410156,0 -0.859375,-0.117188 -0.429687,-0.117187 -0.800781,-0.390625 -0.351563,-0.253906 -0.585938,-0.683593 -0.234375,-0.429688 -0.234375,-1.054688 0,-0.742187 0.371094,-1.738281 0.332031,-0.9375 0.488281,-1.5625 0.15625,-0.644531 0.175782,-1.074219 -0.410157,0.09766 -0.878907,0.175781 -0.449218,0.07813 -0.859375,0.07813 -0.214843,0 -0.46875,-0.03906 -0.253906,-0.05859 -0.46875,-0.175781 -0.214843,-0.117188 -0.371093,-0.292969 -0.136719,-0.195313 -0.136719,-0.488281 0,-0.292969 0.175781,-0.546875 0.195313,-0.273438 0.507813,-0.46875 0.332031,-0.214844 0.78125,-0.332032 0.449218,-0.117187 0.996093,-0.117187 1.015625,0 1.738282,0.546875 0.703125,-0.546875 1.152343,-1.191406 0.46875,-0.644532 0.722657,-1.25 0.253906,-0.605469 0.351562,-1.074219 0.09766,-0.488281 0.09766,-0.722656 0,-0.644532 -0.234375,-0.878907 -0.234375,-0.253906 -0.566406,-0.253906 -0.625,0 -1.40625,0.410156 -0.761719,0.410157 -1.601562,1.113282 -0.820313,0.703125 -1.699219,1.621093 -0.859375,0.917969 -1.699219,1.933594 -0.820312,1.015625 -1.601562,2.050781 -0.761719,1.035157 -1.40625,1.953125 -0.585938,0.976563 -1.054688,1.816407 -0.449219,0.839843 -0.761719,1.445312 -0.3125,0.605469 -0.488281,0.917969 -0.175781,0.3125 -0.195312,0.214844 l -1.933594,-0.507813 q 2.304687,-5.253906 4.667969,-10.507812 2.363281,-5.253907 4.980468,-10.625 0.390625,-0.78125 0.878907,-1.699219 0.507812,-0.9375 1.074218,-1.855469 0.585938,-0.9375 1.230469,-1.816406 0.664063,-0.878906 1.347656,-1.542969 0.703125,-0.683594 1.425782,-1.074219 0.722656,-0.410156 1.445312,-0.410156 0.761719,0 1.230469,0.429688 0.488281,0.429687 0.488281,1.367187 0,1.289063 -0.703125,3.144531 -0.683594,1.835938 -2.050781,3.90625 -1.367188,2.070313 -3.417969,4.199219 -2.03125,2.109375 -4.746094,3.925781 l -2.558593,5.703125 z m 3.417968,-7.578125 q 2.363282,-1.835937 4.0625,-3.769531 1.71875,-1.953125 2.8125,-3.75 1.113282,-1.796875 1.621094,-3.320312 0.527344,-1.542969 0.527344,-2.578125 0,-0.292969 -0.15625,-0.46875 -0.15625,-0.175782 -0.488281,-0.175782 -0.722657,0 -1.484375,0.722657 -0.761719,0.703125 -1.738282,2.34375 -0.957031,1.640625 -2.207031,4.335937 -1.25,2.695313 -2.949219,6.660156 z m 2.5,7.617188 q -0.09766,-0.214844 -0.332031,-0.371094 -0.214844,-0.175781 -0.488281,-0.175781 -0.566406,0 -0.996094,0.234375 -0.429687,0.234375 -0.429687,0.449219 0,0.15625 0.175781,0.214843 0.195312,0.03906 0.351562,0.03906 0.507813,0 0.9375,-0.117188 0.429688,-0.117187 0.78125,-0.273437 z"
         style="font-style:normal;font-variant:normal;font-weight:normal;font-stretch:normal;font-family:Parisienne;-inkscape-font-specification:Parisienne;fill:#ececec"
         id="path3589"
         inkscape:connector-curvature="0" />
      <path
         d="m 85.482854,36.894581 q 0.195313,-0.332031 0.683594,-1.152344 0.507813,-0.820312 1.171875,-1.816406 0.683594,-0.996094 1.464844,-1.992188 0.800781,-1.015625 1.5625,-1.71875 l 0.878906,0.527344 q -0.839844,1.386719 -1.71875,2.949219 -0.878906,1.542969 -1.738281,3.203125 l 6.367187,0 -0.390625,1.015625 -6.503906,0 q -0.878906,1.757812 -1.660156,3.496094 -0.761719,1.738281 -1.347656,3.320312 -0.585938,1.582031 -0.917969,2.96875 -0.332031,1.367188 -0.332031,2.382813 0,1.269531 0.585937,1.835937 0.585938,0.546875 1.445313,0.546875 0.761718,0 1.5625,-0.449219 0.800781,-0.46875 1.5625,-1.171875 0.78125,-0.703125 1.464843,-1.542968 0.703125,-0.839844 1.230469,-1.582032 0.546875,-0.742187 0.898438,-1.289062 0.351562,-0.566406 0.429687,-0.703125 l 0.722656,0.546875 q -0.683593,1.132812 -1.542968,2.402344 -0.859375,1.269531 -1.914063,2.363281 -1.035156,1.074219 -2.265625,1.796875 -1.230469,0.703125 -2.65625,0.703125 -0.878906,0 -1.542969,-0.3125 -0.644531,-0.3125 -1.09375,-0.859375 -0.449218,-0.566406 -0.664062,-1.328125 -0.234375,-0.761719 -0.234375,-1.660156 0,-0.585938 0.195312,-1.660157 0.175782,-1.074218 0.625,-2.539062 0.449219,-1.484375 1.191407,-3.320313 0.761718,-1.835937 1.914062,-3.945312 l -3.242187,0 0.390625,-1.015625 3.417968,0 z"
         style="font-style:normal;font-variant:normal;font-weight:normal;font-stretch:normal;font-family:Parisienne;-inkscape-font-specification:Parisienne;fill:#ececec"
         id="path3591"
         inkscape:connector-curvature="0" />
      <path
         d="m 103.23676,47.695362 q 0.0781,0.01953 0.15625,0.01953 0.0781,0 0.17578,0 0.54688,0 0.9961,-0.09766 0.44921,-0.117187 0.82031,-0.351562 0.39062,-0.234375 0.74219,-0.605469 0.35156,-0.390625 0.68359,-0.9375 l 0.70312,0.546875 q -0.9375,1.328125 -1.93359,1.855469 -0.99609,0.527343 -2.10937,0.527343 -0.41016,0 -0.72266,-0.07813 -0.83984,1.40625 -1.79688,2.402344 -0.957027,0.976563 -1.953121,1.601563 -0.996093,0.625 -1.972656,0.898437 -0.976562,0.292969 -1.816406,0.292969 -0.859375,0 -1.601563,-0.3125 -0.722656,-0.292969 -1.25,-0.859375 -0.527343,-0.566406 -0.820312,-1.347656 -0.292969,-0.78125 -0.292969,-1.757813 0,-0.976562 0.3125,-1.992187 0.3125,-1.015625 0.839844,-2.011719 0.546875,-0.996094 1.269531,-1.914063 0.722656,-0.9375 1.5625,-1.738281 0.839844,-0.800781 1.738281,-1.445312 0.898438,-0.644532 1.796875,-1.054688 l 0.625,0.820313 q -1.035156,0.742187 -2.109375,1.875 -1.054687,1.132812 -1.933593,2.480468 -0.859375,1.347657 -1.425782,2.8125 -0.546875,1.445313 -0.546875,2.8125 0,1.230469 0.546875,1.914063 0.546875,0.664062 1.660157,0.664062 0.859375,0 1.699218,-0.351562 0.839844,-0.351563 1.640625,-0.957031 0.800782,-0.605469 1.542966,-1.425782 0.74219,-0.839843 1.40625,-1.777343 -0.5664,-0.332032 -0.99609,-0.878907 -0.42969,-0.566406 -0.72266,-1.269531 -0.292966,-0.722656 -0.449216,-1.542969 -0.136718,-0.820312 -0.136718,-1.679687 0,-0.859375 0.214843,-1.621094 0.214844,-0.761719 0.585941,-1.328125 0.39062,-0.585937 0.89843,-0.917969 0.50782,-0.332031 1.11329,-0.332031 0.54687,0 0.97656,0.292969 0.42969,0.273437 0.72265,0.78125 0.29297,0.488281 0.44922,1.171875 0.15625,0.683594 0.15625,1.464844 0,0.585937 -0.0977,1.289062 -0.0977,0.703125 -0.29297,1.425781 -0.17578,0.703125 -0.44922,1.40625 -0.25391,0.683594 -0.60547,1.230469 z m -2.65625,-4.863281 q 0,0.566406 0.0977,1.230469 0.0977,0.664062 0.3125,1.289062 0.21484,0.625 0.54687,1.171875 0.33203,0.527344 0.82031,0.839844 0.35157,-0.683594 0.58594,-1.386719 0.25391,-0.722656 0.41016,-1.386719 0.17578,-0.664062 0.23437,-1.230468 0.0781,-0.585938 0.0781,-1.015625 0,-0.585938 -0.0977,-1.074219 -0.0977,-0.488281 -0.27344,-0.839844 -0.15625,-0.371094 -0.41015,-0.566406 -0.23438,-0.214844 -0.52735,-0.214844 -0.39062,0 -0.72265,0.273438 -0.33203,0.253906 -0.56641,0.703125 -0.23437,0.429687 -0.37109,1.015625 -0.11719,0.566406 -0.11719,1.191406 z"
         style="font-style:normal;font-variant:normal;font-weight:normal;font-stretch:normal;font-family:Parisienne;-inkscape-font-specification:Parisienne;fill:#ececec"
         id="path3593"
         inkscape:connector-curvature="0" />
      <path
         d="m 117.96332,44.140675 q -0.74218,-0.175782 -1.28906,-0.488282 -0.52734,-0.332031 -0.85937,-0.742187 -0.33204,-0.410156 -0.48829,-0.859375 -0.15625,-0.46875 -0.15625,-0.917969 0,-0.976562 0.54688,-1.503906 0.54687,-0.546875 1.36719,-0.546875 0.54687,0 0.9375,0.292969 0.39062,0.273437 0.64453,0.742187 0.2539,0.46875 0.37109,1.09375 0.11719,0.605469 0.11719,1.269531 0,0.449219 -0.0391,0.898438 -0.0391,0.429687 -0.13672,0.878906 -0.46875,2.109375 -1.38672,3.828125 -0.89844,1.699219 -2.05078,2.929688 -1.13281,1.210937 -2.42188,1.875 -1.28906,0.644531 -2.51953,0.644531 -0.83984,0 -1.60156,-0.234375 -0.74219,-0.234375 -1.32813,-0.78125 -0.5664,-0.546875 -0.89843,-1.425781 -0.33203,-0.898438 -0.33203,-2.207032 0,-1.621093 0.625,-3.867187 0.64453,-2.246094 2.16796,-5.273438 2.1875,-4.238281 4.39454,-7.597656 0.9375,-1.425781 1.97265,-2.792969 1.03516,-1.367187 2.07031,-2.441406 1.05469,-1.074219 2.07032,-1.71875 1.03515,-0.664062 1.95312,-0.664062 0.11719,0 0.41016,0.03906 0.3125,0.03906 0.625,0.214844 0.3125,0.15625 0.54687,0.507812 0.25391,0.332032 0.25391,0.9375 0,0.722657 -0.39063,1.835938 -0.37109,1.09375 -1.13281,2.441406 -0.74219,1.328125 -1.85547,2.851563 -1.09375,1.503906 -2.53906,3.027343 -1.42578,1.523438 -3.18359,2.988282 -1.73828,1.464843 -3.78907,2.734375 -0.68359,1.484375 -1.15234,2.695312 -0.44922,1.191406 -0.72266,2.167969 -0.27343,0.957031 -0.39062,1.699219 -0.11719,0.742187 -0.11719,1.289062 0,0.761719 0.19531,1.269531 0.21485,0.488282 0.56641,0.78125 0.35156,0.273438 0.80078,0.390625 0.44922,0.117188 0.9375,0.117188 0.91797,0 1.77735,-0.46875 0.8789,-0.46875 1.66015,-1.210938 0.78125,-0.761718 1.42578,-1.699218 0.66407,-0.9375 1.15235,-1.855469 0.48828,-0.9375 0.80078,-1.757813 0.3125,-0.839843 0.39062,-1.386718 z m -6.5039,-3.808594 q 1.79687,-1.230469 3.30078,-2.597656 1.52344,-1.367188 2.7539,-2.734375 1.23047,-1.386719 2.16797,-2.695313 0.9375,-1.328125 1.5625,-2.480469 0.625,-1.152343 0.9375,-2.050781 0.33203,-0.917969 0.33203,-1.484375 0,-0.507812 -0.37109,-0.507812 -0.70312,0 -1.69922,0.761718 -0.97656,0.761719 -2.28515,2.480469 -1.28907,1.71875 -2.96875,4.492188 -1.66016,2.773437 -3.73047,6.816406 z m 6.64062,2.792969 q 0.0195,-0.175782 0.0195,-0.351563 0.0195,-0.175781 0.0195,-0.332031 0,-1.054688 -0.27343,-1.699219 -0.27344,-0.644531 -0.78125,-0.644531 -0.11719,0 -0.27344,0.03906 -0.13672,0.01953 -0.29297,0.136719 -0.13672,0.09766 -0.23437,0.292969 -0.0977,0.195312 -0.0977,0.507812 0,0.800782 0.54687,1.328125 0.56641,0.507813 1.36719,0.722657 z"
         style="font-style:normal;font-variant:normal;font-weight:normal;font-stretch:normal;font-family:Parisienne;-inkscape-font-specification:Parisienne;fill:#ececec"
         id="path3595"
         inkscape:connector-curvature="0" />
      <path
         d="m 122.37739,48.554737 q -0.0391,0.234375 -0.0586,0.46875 -0.0195,0.234375 -0.0195,0.46875 0,0.703125 0.19531,1.347656 0.21485,0.625 0.60547,1.113282 0.41016,0.46875 0.9961,0.742187 0.60546,0.273438 1.36718,0.273438 2.5586,0 4.94141,-1.738282 2.38281,-1.738281 4.74609,-5.507812 l 0.66407,0.585937 q -1.28907,2.148438 -2.61719,3.632813 -1.32813,1.464844 -2.65625,2.382812 -1.3086,0.917969 -2.57813,1.328125 -1.26953,0.410157 -2.42187,0.410157 -0.83985,0 -1.77735,-0.234375 -0.9375,-0.234375 -1.73828,-0.78125 -0.78125,-0.546875 -1.28906,-1.464844 -0.52734,-0.917969 -0.52734,-2.285156 0,-1.464844 0.50781,-2.8125 0.48828,-1.367188 1.28906,-2.539063 0.80078,-1.171875 1.83594,-2.128906 1.03516,-0.976563 2.08984,-1.660156 1.07422,-0.683594 2.08985,-1.054688 1.01562,-0.390625 1.79687,-0.390625 0.50781,0 1.03516,0.15625 0.52734,0.15625 0.9375,0.488281 0.42969,0.332032 0.68359,0.878907 0.27344,0.546875 0.27344,1.308593 0,1.035157 -0.48828,1.953125 -0.46875,0.898438 -1.26953,1.679688 -0.80078,0.761719 -1.85547,1.386719 -1.05469,0.605468 -2.20703,1.035156 -1.15235,0.429687 -2.32422,0.683594 -1.17188,0.253906 -2.22656,0.273437 z m 0.15625,-0.839844 q 1.30859,-0.136718 2.46093,-0.546875 1.15235,-0.410156 2.10938,-0.996093 0.95703,-0.605469 1.69922,-1.308594 0.76172,-0.703125 1.26953,-1.425781 0.50781,-0.722657 0.78125,-1.386719 0.27344,-0.664063 0.27344,-1.191406 0,-0.527344 -0.29297,-0.839844 -0.27344,-0.3125 -0.66407,-0.3125 -0.85937,0 -1.93359,0.625 -1.07422,0.605469 -2.14844,1.699219 -1.07422,1.074218 -2.03125,2.539062 -0.9375,1.464844 -1.52343,3.144531 z"
         style="font-style:normal;font-variant:normal;font-weight:normal;font-stretch:normal;font-family:Parisienne;-inkscape-font-specification:Parisienne;fill:#ececec"
         id="path3597"
         inkscape:connector-curvature="0" />
      <path
         d="m 147.5141,46.269581 q -0.29296,0.429687 -0.70312,1.171875 -0.39063,0.722656 -0.91797,1.582031 -0.52734,0.839844 -1.17187,1.71875 -0.625,0.878906 -1.38672,1.582031 -0.74219,0.703125 -1.6211,1.152344 -0.8789,0.449219 -1.875,0.449219 -0.54687,0 -1.03515,-0.175781 -0.48828,-0.15625 -0.85938,-0.507813 -0.37109,-0.351562 -0.58594,-0.859375 -0.21484,-0.527344 -0.21484,-1.230469 0,-0.957031 0.37109,-1.992187 0.39063,-1.054688 0.89844,-2.03125 0.50781,-0.976563 1.01563,-1.777344 0.50781,-0.820312 0.74218,-1.308594 0.23438,-0.488281 0.23438,-0.839843 0,-0.253907 -0.17578,-0.449219 -0.15625,-0.195313 -0.41016,-0.371094 -0.23437,-0.195312 -0.50781,-0.390625 -0.25391,-0.214844 -0.42969,-0.507812 -0.48828,0.78125 -0.99609,1.582031 -0.44922,0.683594 -0.97656,1.542969 -0.52735,0.839843 -1.01563,1.660156 l -0.70312,-0.546875 4.17968,-6.542969 0.56641,0.292969 q -0.0391,0.117187 -0.13672,0.371094 -0.0781,0.253906 -0.0781,0.546875 0,0.214843 0.0586,0.429687 0.0781,0.195313 0.29297,0.371094 0.78125,0.703125 1.23047,1.09375 0.44922,0.371094 0.64453,0.605469 0.21484,0.214843 0.2539,0.371093 0.0586,0.136719 0.0586,0.371094 0,0.234375 -0.0781,0.566406 -0.0781,0.332032 -0.27343,0.800782 -0.17579,0.46875 -0.50782,1.113281 -0.3125,0.625 -0.80078,1.464844 -0.29297,0.507812 -0.58594,1.035156 -0.27343,0.507812 -0.50781,1.035156 -0.21484,0.527344 -0.35156,1.054688 -0.13672,0.527343 -0.13672,1.015625 0,0.371093 0.0977,0.605468 0.11718,0.214844 0.29297,0.332032 0.17578,0.117187 0.37109,0.15625 0.21484,0.03906 0.41016,0.03906 0.64453,0 1.26953,-0.371094 0.64453,-0.390625 1.25,-0.996093 0.625,-0.605469 1.1914,-1.367188 0.58594,-0.78125 1.11328,-1.582031 0.52735,-0.800781 0.97657,-1.523438 0.44922,-0.742187 0.80078,-1.289062 l 0.72265,0.546875 z"
         style="font-style:normal;font-variant:normal;font-weight:normal;font-stretch:normal;font-family:Parisienne;-inkscape-font-specification:Parisienne;fill:#ececec"
         id="path3599"
         inkscape:connector-curvature="0" />
    </g>
  </g>
</svg>
